STARTFONT 2.1
FONT -xos4-Gambas-Bold-R-Normal--16-150-75-75-P-88-ISO10646-1
SIZE 15 75 75
FONTBOUNDINGBOX 9 18 0 -3
COMMENT "Generated by fontforge, http://fontforge.sourceforge.net"
COMMENT "Copyright (C) 2012 Benoit Minisini"
STARTPROPERTIES 34
FOUNDRY "xos4"
FAMILY_NAME "Gambas"
WEIGHT_NAME "Bold"
SLANT "R"
SETWIDTH_NAME "Normal"
ADD_STYLE_NAME ""
PIXEL_SIZE 16
POINT_SIZE 150
RESOLUTION_X 75
RESOLUTION_Y 75
SPACING "P"
AVERAGE_WIDTH 88
CHARSET_REGISTRY "ISO10646"
CHARSET_ENCODING "1"
FONTNAME_REGISTRY ""
CHARSET_COLLECTIONS "ASCII ISOLatin1Encoding ISO8859-2 ISO8859-5 ISO8859-7 ISO8859-9 ISO8859-6 ISO8859-4 ISO10646-1"
FONT_NAME "GambasBold"
FACE_NAME "Gambas Bold"
COPYRIGHT "Copyright (C) 2012 Benoit Minisini"
FONT_VERSION "001.000"
FONT_ASCENT 13
FONT_DESCENT 3
UNDERLINE_POSITION -2
UNDERLINE_THICKNESS 1
X_HEIGHT 7
CAP_HEIGHT 10
RAW_ASCENT 846
RAW_DESCENT 154
NORM_SPACE 9
RELATIVE_WEIGHT 50
RELATIVE_SETWIDTH 50
FIGURE_WIDTH 9
AVG_LOWERCASE_WIDTH 89
AVG_UPPERCASE_WIDTH 89
ENDPROPERTIES
CHARS 2744
STARTCHAR uni0000
ENCODING 0
SWIDTH 562 0
DWIDTH 9 0
BBX 7 11 1 0
BITMAP
AA
00
82
00
82
00
82
00
82
00
AA
ENDCHAR
STARTCHAR space
ENCODING 32
SWIDTH 562 0
DWIDTH 9 0
BBX 1 1 8 -2
BITMAP
00
ENDCHAR
STARTCHAR exclam
ENCODING 33
SWIDTH 562 0
DWIDTH 9 0
BBX 2 11 3 0
BITMAP
C0
C0
C0
C0
C0
C0
C0
C0
00
C0
C0
ENDCHAR
STARTCHAR quotedbl
ENCODING 34
SWIDTH 562 0
DWIDTH 9 0
BBX 5 4 1 8
BITMAP
D8
D8
48
90
ENDCHAR
STARTCHAR numbersign
ENCODING 35
SWIDTH 562 0
DWIDTH 9 0
BBX 7 11 1 0
BITMAP
6C
6C
6C
FE
6C
6C
6C
FE
6C
6C
6C
ENDCHAR
STARTCHAR dollar
ENCODING 36
SWIDTH 562 0
DWIDTH 9 0
BBX 7 13 1 -2
BITMAP
10
10
7C
D6
D0
D0
7C
16
16
D6
7C
10
10
ENDCHAR
STARTCHAR percent
ENCODING 37
SWIDTH 562 0
DWIDTH 9 0
BBX 9 12 0 0
BITMAP
6300
B300
B600
6600
0C00
0C00
1800
1800
3300
3580
6580
6300
ENDCHAR
STARTCHAR ampersand
ENCODING 38
SWIDTH 562 0
DWIDTH 9 0
BBX 8 11 0 0
BITMAP
38
6C
6C
6C
38
30
73
D6
CC
DC
73
ENDCHAR
STARTCHAR quotesingle
ENCODING 39
SWIDTH 562 0
DWIDTH 9 0
BBX 2 4 3 9
BITMAP
C0
C0
40
80
ENDCHAR
STARTCHAR parenleft
ENCODING 40
SWIDTH 562 0
DWIDTH 9 0
BBX 4 13 2 -1
BITMAP
30
60
60
C0
C0
C0
C0
C0
C0
C0
60
60
30
ENDCHAR
STARTCHAR parenright
ENCODING 41
SWIDTH 562 0
DWIDTH 9 0
BBX 4 13 2 -1
BITMAP
C0
60
60
30
30
30
30
30
30
30
60
60
C0
ENDCHAR
STARTCHAR asterisk
ENCODING 42
SWIDTH 562 0
DWIDTH 9 0
BBX 8 7 0 2
BITMAP
18
DB
7E
18
7E
DB
18
ENDCHAR
STARTCHAR plus
ENCODING 43
SWIDTH 562 0
DWIDTH 9 0
BBX 6 5 1 3
BITMAP
30
30
FC
30
30
ENDCHAR
STARTCHAR comma
ENCODING 44
SWIDTH 562 0
DWIDTH 9 0
BBX 2 4 3 -2
BITMAP
C0
C0
40
80
ENDCHAR
STARTCHAR hyphen
ENCODING 45
SWIDTH 562 0
DWIDTH 9 0
BBX 6 1 1 5
BITMAP
FC
ENDCHAR
STARTCHAR period
ENCODING 46
SWIDTH 562 0
DWIDTH 9 0
BBX 2 2 3 0
BITMAP
C0
C0
ENDCHAR
STARTCHAR slash
ENCODING 47
SWIDTH 562 0
DWIDTH 9 0
BBX 7 12 1 0
BITMAP
06
06
0C
0C
18
18
30
30
60
60
C0
C0
ENDCHAR
STARTCHAR zero
ENCODING 48
SWIDTH 562 0
DWIDTH 9 0
BBX 7 11 1 0
BITMAP
7C
C6
C6
CE
DE
F6
E6
C6
C6
C6
7C
ENDCHAR
STARTCHAR one
ENCODING 49
SWIDTH 562 0
DWIDTH 9 0
BBX 6 11 1 0
BITMAP
30
70
F0
30
30
30
30
30
30
30
FC
ENDCHAR
STARTCHAR two
ENCODING 50
SWIDTH 562 0
DWIDTH 9 0
BBX 7 11 1 0
BITMAP
7C
C6
06
06
0C
18
30
60
C0
C0
FE
ENDCHAR
STARTCHAR three
ENCODING 51
SWIDTH 562 0
DWIDTH 9 0
BBX 7 11 1 0
BITMAP
7C
C6
06
06
06
3C
06
06
06
C6
7C
ENDCHAR
STARTCHAR four
ENCODING 52
SWIDTH 562 0
DWIDTH 9 0
BBX 7 11 1 0
BITMAP
1C
1C
3C
3C
6C
6C
CC
CC
FE
0C
0C
ENDCHAR
STARTCHAR five
ENCODING 53
SWIDTH 562 0
DWIDTH 9 0
BBX 7 11 1 0
BITMAP
FE
C0
C0
C0
F8
0C
06
06
06
CC
78
ENDCHAR
STARTCHAR six
ENCODING 54
SWIDTH 562 0
DWIDTH 9 0
BBX 7 11 1 0
BITMAP
3C
60
C0
C0
DC
E6
C6
C6
C6
C6
7C
ENDCHAR
STARTCHAR seven
ENCODING 55
SWIDTH 562 0
DWIDTH 9 0
BBX 7 11 1 0
BITMAP
FE
06
06
0C
0C
18
18
30
30
60
60
ENDCHAR
STARTCHAR eight
ENCODING 56
SWIDTH 562 0
DWIDTH 9 0
BBX 7 11 1 0
BITMAP
7C
C6
C6
C6
C6
7C
C6
C6
C6
C6
7C
ENDCHAR
STARTCHAR nine
ENCODING 57
SWIDTH 562 0
DWIDTH 9 0
BBX 7 11 1 0
BITMAP
7C
C6
C6
C6
C6
CE
76
06
06
0C
78
ENDCHAR
STARTCHAR colon
ENCODING 58
SWIDTH 562 0
DWIDTH 9 0
BBX 2 7 3 0
BITMAP
C0
C0
00
00
00
C0
C0
ENDCHAR
STARTCHAR semicolon
ENCODING 59
SWIDTH 562 0
DWIDTH 9 0
BBX 2 9 3 -2
BITMAP
C0
C0
00
00
00
C0
C0
40
80
ENDCHAR
STARTCHAR less
ENCODING 60
SWIDTH 562 0
DWIDTH 9 0
BBX 6 9 1 1
BITMAP
0C
18
30
60
C0
60
30
18
0C
ENDCHAR
STARTCHAR equal
ENCODING 61
SWIDTH 562 0
DWIDTH 9 0
BBX 6 4 1 4
BITMAP
FC
00
00
FC
ENDCHAR
STARTCHAR greater
ENCODING 62
SWIDTH 562 0
DWIDTH 9 0
BBX 6 9 2 1
BITMAP
C0
60
30
18
0C
18
30
60
C0
ENDCHAR
STARTCHAR question
ENCODING 63
SWIDTH 562 0
DWIDTH 9 0
BBX 7 11 1 0
BITMAP
7C
C6
06
06
0C
18
30
30
00
30
30
ENDCHAR
STARTCHAR at
ENCODING 64
SWIDTH 562 0
DWIDTH 9 0
BBX 8 11 0 0
BITMAP
3E
63
CF
DB
DB
DB
DB
CE
C0
60
3E
ENDCHAR
STARTCHAR A
ENCODING 65
SWIDTH 562 0
DWIDTH 9 0
BBX 8 11 0 0
BITMAP
18
18
3C
3C
3C
66
66
7E
C3
C3
C3
ENDCHAR
STARTCHAR B
ENCODING 66
SWIDTH 562 0
DWIDTH 9 0
BBX 7 11 1 0
BITMAP
FC
C6
C6
C6
C6
FC
C6
C6
C6
C6
FC
ENDCHAR
STARTCHAR C
ENCODING 67
SWIDTH 562 0
DWIDTH 9 0
BBX 7 11 1 0
BITMAP
3C
66
C0
C0
C0
C0
C0
C0
C0
66
3C
ENDCHAR
STARTCHAR D
ENCODING 68
SWIDTH 562 0
DWIDTH 9 0
BBX 7 11 1 0
BITMAP
F8
CC
C6
C6
C6
C6
C6
C6
C6
CC
F8
ENDCHAR
STARTCHAR E
ENCODING 69
SWIDTH 562 0
DWIDTH 9 0
BBX 7 11 1 0
BITMAP
FE
C0
C0
C0
C0
F8
C0
C0
C0
C0
FE
ENDCHAR
STARTCHAR F
ENCODING 70
SWIDTH 562 0
DWIDTH 9 0
BBX 7 11 1 0
BITMAP
FE
C0
C0
C0
C0
FC
C0
C0
C0
C0
C0
ENDCHAR
STARTCHAR G
ENCODING 71
SWIDTH 562 0
DWIDTH 9 0
BBX 7 11 1 0
BITMAP
3C
66
C0
C0
C0
CE
C6
C6
C6
66
3E
ENDCHAR
STARTCHAR H
ENCODING 72
SWIDTH 562 0
DWIDTH 9 0
BBX 7 11 1 0
BITMAP
C6
C6
C6
C6
C6
FE
C6
C6
C6
C6
C6
ENDCHAR
STARTCHAR I
ENCODING 73
SWIDTH 562 0
DWIDTH 9 0
BBX 6 11 0 0
BITMAP
FC
30
30
30
30
30
30
30
30
30
FC
ENDCHAR
STARTCHAR J
ENCODING 74
SWIDTH 562 0
DWIDTH 9 0
BBX 6 11 1 0
BITMAP
3C
18
18
18
18
18
18
18
18
18
F0
ENDCHAR
STARTCHAR K
ENCODING 75
SWIDTH 562 0
DWIDTH 9 0
BBX 7 11 1 0
BITMAP
C6
CC
D8
F0
E0
C0
E0
F0
D8
CC
C6
ENDCHAR
STARTCHAR L
ENCODING 76
SWIDTH 562 0
DWIDTH 9 0
BBX 7 11 1 0
BITMAP
C0
C0
C0
C0
C0
C0
C0
C0
C0
C0
FE
ENDCHAR
STARTCHAR M
ENCODING 77
SWIDTH 562 0
DWIDTH 9 0
BBX 8 11 0 0
BITMAP
C3
C3
E7
E7
FF
DB
DB
C3
C3
C3
C3
ENDCHAR
STARTCHAR N
ENCODING 78
SWIDTH 562 0
DWIDTH 9 0
BBX 8 11 0 0
BITMAP
E3
E3
F3
F3
FB
DB
DF
CF
CF
C7
C7
ENDCHAR
STARTCHAR O
ENCODING 79
SWIDTH 562 0
DWIDTH 9 0
BBX 8 11 0 0
BITMAP
3C
66
C3
C3
C3
C3
C3
C3
C3
66
3C
ENDCHAR
STARTCHAR P
ENCODING 80
SWIDTH 562 0
DWIDTH 9 0
BBX 7 11 1 0
BITMAP
F8
CC
C6
C6
C6
CC
F8
C0
C0
C0
C0
ENDCHAR
STARTCHAR Q
ENCODING 81
SWIDTH 562 0
DWIDTH 9 0
BBX 8 11 0 0
BITMAP
3C
66
C3
C3
C3
C3
C3
DB
CE
7E
3B
ENDCHAR
STARTCHAR R
ENCODING 82
SWIDTH 562 0
DWIDTH 9 0
BBX 7 11 1 0
BITMAP
FC
C6
C6
C6
C6
FC
E0
F0
D8
CC
C6
ENDCHAR
STARTCHAR S
ENCODING 83
SWIDTH 562 0
DWIDTH 9 0
BBX 7 11 1 0
BITMAP
7C
C6
C0
C0
60
38
0C
06
06
C6
7C
ENDCHAR
STARTCHAR T
ENCODING 84
SWIDTH 562 0
DWIDTH 9 0
BBX 8 11 0 0
BITMAP
FF
18
18
18
18
18
18
18
18
18
18
ENDCHAR
STARTCHAR U
ENCODING 85
SWIDTH 562 0
DWIDTH 9 0
BBX 7 11 1 0
BITMAP
C6
C6
C6
C6
C6
C6
C6
C6
C6
C6
7C
ENDCHAR
STARTCHAR V
ENCODING 86
SWIDTH 562 0
DWIDTH 9 0
BBX 8 11 0 0
BITMAP
C3
C3
C3
66
66
66
3C
3C
3C
18
18
ENDCHAR
STARTCHAR W
ENCODING 87
SWIDTH 562 0
DWIDTH 9 0
BBX 8 11 0 0
BITMAP
C3
C3
C3
C3
DB
DB
FF
E7
E7
C3
C3
ENDCHAR
STARTCHAR X
ENCODING 88
SWIDTH 562 0
DWIDTH 9 0
BBX 8 11 0 0
BITMAP
C3
66
66
3C
3C
18
3C
3C
66
66
C3
ENDCHAR
STARTCHAR Y
ENCODING 89
SWIDTH 562 0
DWIDTH 9 0
BBX 8 11 0 0
BITMAP
C3
C3
66
66
3C
3C
18
18
18
18
18
ENDCHAR
STARTCHAR Z
ENCODING 90
SWIDTH 562 0
DWIDTH 9 0
BBX 7 11 1 0
BITMAP
FE
06
0C
0C
18
18
30
30
60
60
FE
ENDCHAR
STARTCHAR bracketleft
ENCODING 91
SWIDTH 562 0
DWIDTH 9 0
BBX 5 13 2 -1
BITMAP
F8
C0
C0
C0
C0
C0
C0
C0
C0
C0
C0
C0
F8
ENDCHAR
STARTCHAR backslash
ENCODING 92
SWIDTH 562 0
DWIDTH 9 0
BBX 7 12 1 0
BITMAP
C0
C0
60
60
30
30
18
18
0C
0C
06
06
ENDCHAR
STARTCHAR bracketright
ENCODING 93
SWIDTH 562 0
DWIDTH 9 0
BBX 5 13 2 -1
BITMAP
F8
18
18
18
18
18
18
18
18
18
18
18
F8
ENDCHAR
STARTCHAR asciicircum
ENCODING 94
SWIDTH 562 0
DWIDTH 9 0
BBX 6 3 2 10
BITMAP
30
78
CC
ENDCHAR
STARTCHAR underscore
ENCODING 95
SWIDTH 562 0
DWIDTH 9 0
BBX 9 1 0 -2
BITMAP
FF80
ENDCHAR
STARTCHAR grave
ENCODING 96
SWIDTH 562 0
DWIDTH 9 0
BBX 3 3 3 10
BITMAP
C0
C0
60
ENDCHAR
STARTCHAR a
ENCODING 97
SWIDTH 562 0
DWIDTH 9 0
BBX 7 8 1 0
BITMAP
7C
C6
06
7E
C6
C6
C6
7E
ENDCHAR
STARTCHAR b
ENCODING 98
SWIDTH 562 0
DWIDTH 9 0
BBX 7 11 1 0
BITMAP
C0
C0
C0
DC
E6
C6
C6
C6
C6
E6
DC
ENDCHAR
STARTCHAR c
ENCODING 99
SWIDTH 562 0
DWIDTH 9 0
BBX 7 8 1 0
BITMAP
3C
66
C0
C0
C0
C0
66
3C
ENDCHAR
STARTCHAR d
ENCODING 100
SWIDTH 562 0
DWIDTH 9 0
BBX 7 11 1 0
BITMAP
06
06
06
76
CE
C6
C6
C6
C6
CE
76
ENDCHAR
STARTCHAR e
ENCODING 101
SWIDTH 562 0
DWIDTH 9 0
BBX 7 8 1 0
BITMAP
7C
C6
C6
C6
FE
C0
C0
7E
ENDCHAR
STARTCHAR f
ENCODING 102
SWIDTH 562 0
DWIDTH 9 0
BBX 7 11 1 0
BITMAP
3C
66
60
60
FC
60
60
60
60
60
60
ENDCHAR
STARTCHAR g
ENCODING 103
SWIDTH 562 0
DWIDTH 9 0
BBX 7 11 1 -3
BITMAP
76
CE
C6
C6
C6
C6
CE
76
06
C6
7C
ENDCHAR
STARTCHAR h
ENCODING 104
SWIDTH 562 0
DWIDTH 9 0
BBX 7 11 1 0
BITMAP
C0
C0
C0
DC
E6
C6
C6
C6
C6
C6
C6
ENDCHAR
STARTCHAR i
ENCODING 105
SWIDTH 562 0
DWIDTH 9 0
BBX 6 11 2 0
BITMAP
30
00
00
F0
30
30
30
30
30
30
FC
ENDCHAR
STARTCHAR j
ENCODING 106
SWIDTH 562 0
DWIDTH 9 0
BBX 4 14 2 -3
BITMAP
30
00
00
F0
30
30
30
30
30
30
30
30
30
E0
ENDCHAR
STARTCHAR k
ENCODING 107
SWIDTH 562 0
DWIDTH 9 0
BBX 7 11 1 0
BITMAP
C0
C0
C0
C6
CC
D8
F0
F0
D8
CC
C6
ENDCHAR
STARTCHAR l
ENCODING 108
SWIDTH 562 0
DWIDTH 9 0
BBX 5 11 2 0
BITMAP
E0
60
60
60
60
60
60
60
60
60
38
ENDCHAR
STARTCHAR m
ENCODING 109
SWIDTH 562 0
DWIDTH 9 0
BBX 8 8 0 0
BITMAP
FE
DB
DB
DB
DB
DB
DB
DB
ENDCHAR
STARTCHAR n
ENCODING 110
SWIDTH 562 0
DWIDTH 9 0
BBX 7 8 1 0
BITMAP
DC
E6
C6
C6
C6
C6
C6
C6
ENDCHAR
STARTCHAR o
ENCODING 111
SWIDTH 562 0
DWIDTH 9 0
BBX 7 8 1 0
BITMAP
7C
C6
C6
C6
C6
C6
C6
7C
ENDCHAR
STARTCHAR p
ENCODING 112
SWIDTH 562 0
DWIDTH 9 0
BBX 7 11 1 -3
BITMAP
DC
E6
C6
C6
C6
C6
E6
DC
C0
C0
C0
ENDCHAR
STARTCHAR q
ENCODING 113
SWIDTH 562 0
DWIDTH 9 0
BBX 7 11 1 -3
BITMAP
76
CE
C6
C6
C6
C6
CE
76
06
06
06
ENDCHAR
STARTCHAR r
ENCODING 114
SWIDTH 562 0
DWIDTH 9 0
BBX 7 8 1 0
BITMAP
DC
E6
C0
C0
C0
C0
C0
C0
ENDCHAR
STARTCHAR s
ENCODING 115
SWIDTH 562 0
DWIDTH 9 0
BBX 7 8 1 0
BITMAP
7C
C6
C0
70
1C
06
C6
7C
ENDCHAR
STARTCHAR t
ENCODING 116
SWIDTH 562 0
DWIDTH 9 0
BBX 5 11 2 0
BITMAP
60
60
60
F8
60
60
60
60
60
60
38
ENDCHAR
STARTCHAR u
ENCODING 117
SWIDTH 562 0
DWIDTH 9 0
BBX 7 8 1 0
BITMAP
C6
C6
C6
C6
C6
C6
C6
7C
ENDCHAR
STARTCHAR v
ENCODING 118
SWIDTH 562 0
DWIDTH 9 0
BBX 8 8 0 0
BITMAP
C3
C3
66
66
3C
3C
18
18
ENDCHAR
STARTCHAR w
ENCODING 119
SWIDTH 562 0
DWIDTH 9 0
BBX 8 8 0 0
BITMAP
C3
C3
C3
DB
DB
FF
E7
C3
ENDCHAR
STARTCHAR x
ENCODING 120
SWIDTH 562 0
DWIDTH 9 0
BBX 8 8 0 0
BITMAP
C3
66
3C
18
18
3C
66
C3
ENDCHAR
STARTCHAR y
ENCODING 121
SWIDTH 562 0
DWIDTH 9 0
BBX 7 11 1 -3
BITMAP
C6
C6
66
6C
3C
3C
18
18
18
30
30
ENDCHAR
STARTCHAR z
ENCODING 122
SWIDTH 562 0
DWIDTH 9 0
BBX 7 8 1 0
BITMAP
FE
06
0C
18
30
60
C0
FE
ENDCHAR
STARTCHAR braceleft
ENCODING 123
SWIDTH 562 0
DWIDTH 9 0
BBX 6 13 2 -1
BITMAP
1C
30
30
30
30
30
E0
30
30
30
30
30
1C
ENDCHAR
STARTCHAR bar
ENCODING 124
SWIDTH 562 0
DWIDTH 9 0
BBX 2 14 3 -3
BITMAP
C0
C0
C0
C0
C0
C0
C0
C0
C0
C0
C0
C0
C0
C0
ENDCHAR
STARTCHAR braceright
ENCODING 125
SWIDTH 562 0
DWIDTH 9 0
BBX 6 13 2 -1
BITMAP
E0
30
30
30
30
30
1C
30
30
30
30
30
E0
ENDCHAR
STARTCHAR asciitilde
ENCODING 126
SWIDTH 562 0
DWIDTH 9 0
BBX 8 3 0 10
BITMAP
73
DB
CE
ENDCHAR
STARTCHAR uni00A0
ENCODING 160
SWIDTH 562 0
DWIDTH 9 0
BBX 1 1 8 -2
BITMAP
00
ENDCHAR
STARTCHAR exclamdown
ENCODING 161
SWIDTH 562 0
DWIDTH 9 0
BBX 2 11 3 0
BITMAP
C0
C0
00
00
C0
C0
C0
C0
C0
C0
C0
ENDCHAR
STARTCHAR cent
ENCODING 162
SWIDTH 562 0
DWIDTH 9 0
BBX 7 12 1 -2
BITMAP
10
10
7C
D6
D0
D0
D0
D0
D6
7C
10
10
ENDCHAR
STARTCHAR sterling
ENCODING 163
SWIDTH 562 0
DWIDTH 9 0
BBX 7 11 1 0
BITMAP
1C
36
60
60
60
F8
60
60
60
60
FE
ENDCHAR
STARTCHAR currency
ENCODING 164
SWIDTH 562 0
DWIDTH 9 0
BBX 8 7 0 1
BITMAP
DB
66
C3
C3
C3
66
DB
ENDCHAR
STARTCHAR yen
ENCODING 165
SWIDTH 562 0
DWIDTH 9 0
BBX 8 11 0 0
BITMAP
C3
C3
66
66
3C
3C
7E
18
7E
18
18
ENDCHAR
STARTCHAR brokenbar
ENCODING 166
SWIDTH 562 0
DWIDTH 9 0
BBX 2 13 3 0
BITMAP
C0
C0
C0
C0
C0
C0
00
C0
C0
C0
C0
C0
C0
ENDCHAR
STARTCHAR section
ENCODING 167
SWIDTH 562 0
DWIDTH 9 0
BBX 7 14 1 -3
BITMAP
7C
C6
C0
C0
78
CC
C6
C6
66
3C
06
06
C6
7C
ENDCHAR
STARTCHAR dieresis
ENCODING 168
SWIDTH 562 0
DWIDTH 9 0
BBX 5 1 2 11
BITMAP
D8
ENDCHAR
STARTCHAR copyright
ENCODING 169
SWIDTH 562 0
DWIDTH 9 0
BBX 8 10 0 1
BITMAP
7E
C3
99
B5
B1
B1
B5
99
C3
7E
ENDCHAR
STARTCHAR ordfeminine
ENCODING 170
SWIDTH 562 0
DWIDTH 9 0
BBX 6 6 1 5
BITMAP
78
0C
7C
CC
CC
7C
ENDCHAR
STARTCHAR guillemotleft
ENCODING 171
SWIDTH 562 0
DWIDTH 9 0
BBX 8 7 0 2
BITMAP
1B
36
6C
D8
6C
36
1B
ENDCHAR
STARTCHAR logicalnot
ENCODING 172
SWIDTH 562 0
DWIDTH 9 0
BBX 7 5 1 3
BITMAP
FE
06
06
06
06
ENDCHAR
STARTCHAR uni00AD
ENCODING 173
SWIDTH 562 0
DWIDTH 9 0
BBX 7 1 1 5
BITMAP
FE
ENDCHAR
STARTCHAR registered
ENCODING 174
SWIDTH 562 0
DWIDTH 9 0
BBX 8 12 0 0
BITMAP
7E
C3
81
B9
B5
BD
B9
BD
B5
81
C3
7E
ENDCHAR
STARTCHAR macron
ENCODING 175
SWIDTH 562 0
DWIDTH 9 0
BBX 4 1 2 12
BITMAP
F0
ENDCHAR
STARTCHAR degree
ENCODING 176
SWIDTH 562 0
DWIDTH 9 0
BBX 5 4 1 7
BITMAP
70
D8
D8
70
ENDCHAR
STARTCHAR plusminus
ENCODING 177
SWIDTH 562 0
DWIDTH 9 0
BBX 8 9 0 1
BITMAP
18
18
18
FF
18
18
18
00
FF
ENDCHAR
STARTCHAR uni00B2
ENCODING 178
SWIDTH 562 0
DWIDTH 9 0
BBX 5 6 1 6
BITMAP
70
D8
18
30
60
F8
ENDCHAR
STARTCHAR uni00B3
ENCODING 179
SWIDTH 562 0
DWIDTH 9 0
BBX 5 6 1 6
BITMAP
F0
18
70
18
18
F0
ENDCHAR
STARTCHAR acute
ENCODING 180
SWIDTH 562 0
DWIDTH 9 0
BBX 3 3 2 10
BITMAP
60
60
C0
ENDCHAR
STARTCHAR uni00B5
ENCODING 181
SWIDTH 562 0
DWIDTH 9 0
BBX 8 11 0 -3
BITMAP
C6
C6
C6
C6
C6
C6
E6
FB
C0
C0
C0
ENDCHAR
STARTCHAR paragraph
ENCODING 182
SWIDTH 562 0
DWIDTH 9 0
BBX 7 11 1 0
BITMAP
7E
F6
F6
F6
F6
F6
76
36
36
36
36
ENDCHAR
STARTCHAR periodcentered
ENCODING 183
SWIDTH 562 0
DWIDTH 9 0
BBX 2 2 3 4
BITMAP
C0
C0
ENDCHAR
STARTCHAR cedilla
ENCODING 184
SWIDTH 562 0
DWIDTH 9 0
BBX 4 3 2 -3
BITMAP
60
30
E0
ENDCHAR
STARTCHAR uni00B9
ENCODING 185
SWIDTH 562 0
DWIDTH 9 0
BBX 4 6 1 6
BITMAP
30
70
F0
30
30
30
ENDCHAR
STARTCHAR ordmasculine
ENCODING 186
SWIDTH 562 0
DWIDTH 9 0
BBX 6 5 1 6
BITMAP
78
CC
CC
CC
78
ENDCHAR
STARTCHAR guillemotright
ENCODING 187
SWIDTH 562 0
DWIDTH 9 0
BBX 8 7 0 2
BITMAP
D8
6C
36
1B
36
6C
D8
ENDCHAR
STARTCHAR onequarter
ENCODING 188
SWIDTH 562 0
DWIDTH 9 0
BBX 8 16 0 -3
BITMAP
30
70
30
30
31
32
04
08
10
20
4E
8E
1A
1A
1F
06
ENDCHAR
STARTCHAR onehalf
ENCODING 189
SWIDTH 562 0
DWIDTH 9 0
BBX 8 16 0 -3
BITMAP
30
70
30
30
31
32
04
08
10
20
5E
83
03
06
0C
1F
ENDCHAR
STARTCHAR threequarters
ENCODING 190
SWIDTH 562 0
DWIDTH 9 0
BBX 8 16 0 -3
BITMAP
F0
18
70
18
19
F2
04
08
10
20
4E
8E
1A
1A
1F
06
ENDCHAR
STARTCHAR questiondown
ENCODING 191
SWIDTH 562 0
DWIDTH 9 0
BBX 7 11 1 0
BITMAP
30
30
00
30
30
60
C0
C0
C0
C6
7C
ENDCHAR
STARTCHAR Agrave
ENCODING 192
SWIDTH 562 0
DWIDTH 9 0
BBX 8 13 0 0
BITMAP
30
18
00
18
18
3C
3C
3C
66
66
7E
C3
C3
ENDCHAR
STARTCHAR Aacute
ENCODING 193
SWIDTH 562 0
DWIDTH 9 0
BBX 8 13 0 0
BITMAP
0C
18
00
18
18
3C
3C
3C
66
66
7E
C3
C3
ENDCHAR
STARTCHAR Acircumflex
ENCODING 194
SWIDTH 562 0
DWIDTH 9 0
BBX 8 13 0 0
BITMAP
10
38
6C
10
18
38
3C
3C
64
66
7E
C3
C3
ENDCHAR
STARTCHAR Atilde
ENCODING 195
SWIDTH 562 0
DWIDTH 9 0
BBX 8 13 0 0
BITMAP
3B
6E
00
18
18
3C
3C
3C
66
66
7E
C3
C3
ENDCHAR
STARTCHAR Adieresis
ENCODING 196
SWIDTH 562 0
DWIDTH 9 0
BBX 8 13 0 0
BITMAP
36
00
18
18
3C
3C
3C
66
66
7E
C3
C3
C3
ENDCHAR
STARTCHAR Aring
ENCODING 197
SWIDTH 562 0
DWIDTH 9 0
BBX 8 13 0 0
BITMAP
38
6C
38
00
18
18
3C
3C
66
66
FE
C3
C3
ENDCHAR
STARTCHAR AE
ENCODING 198
SWIDTH 562 0
DWIDTH 9 0
BBX 8 11 0 0
BITMAP
1F
1C
3C
3C
3C
6F
6C
7C
CC
CC
CF
ENDCHAR
STARTCHAR Ccedilla
ENCODING 199
SWIDTH 562 0
DWIDTH 9 0
BBX 7 14 1 -3
BITMAP
7C
C6
C0
C0
C0
C0
C0
C0
C0
C6
7C
18
0C
38
ENDCHAR
STARTCHAR Egrave
ENCODING 200
SWIDTH 562 0
DWIDTH 9 0
BBX 7 13 1 0
BITMAP
30
18
00
FE
C0
C0
C0
FC
C0
C0
C0
C0
FE
ENDCHAR
STARTCHAR Eacute
ENCODING 201
SWIDTH 562 0
DWIDTH 9 0
BBX 7 13 1 0
BITMAP
18
30
00
FE
C0
C0
C0
FC
C0
C0
C0
C0
FE
ENDCHAR
STARTCHAR Ecircumflex
ENCODING 202
SWIDTH 562 0
DWIDTH 9 0
BBX 7 13 1 0
BITMAP
10
38
6C
00
FE
C0
C0
FC
C0
C0
C0
C0
FE
ENDCHAR
STARTCHAR Edieresis
ENCODING 203
SWIDTH 562 0
DWIDTH 9 0
BBX 7 13 1 0
BITMAP
6C
00
FE
C0
C0
C0
C0
FC
C0
C0
C0
C0
FE
ENDCHAR
STARTCHAR Igrave
ENCODING 204
SWIDTH 562 0
DWIDTH 9 0
BBX 6 13 1 0
BITMAP
60
30
00
FC
30
30
30
30
30
30
30
30
FC
ENDCHAR
STARTCHAR Iacute
ENCODING 205
SWIDTH 562 0
DWIDTH 9 0
BBX 6 13 1 0
BITMAP
18
30
00
FC
30
30
30
30
30
30
30
30
FC
ENDCHAR
STARTCHAR Icircumflex
ENCODING 206
SWIDTH 562 0
DWIDTH 9 0
BBX 6 13 1 0
BITMAP
20
70
D8
00
FC
30
30
30
30
30
30
30
FC
ENDCHAR
STARTCHAR Idieresis
ENCODING 207
SWIDTH 562 0
DWIDTH 9 0
BBX 6 13 1 0
BITMAP
D8
00
FC
30
30
30
30
30
30
30
30
30
FC
ENDCHAR
STARTCHAR Eth
ENCODING 208
SWIDTH 562 0
DWIDTH 9 0
BBX 8 11 0 0
BITMAP
7C
66
63
63
63
FB
63
63
63
66
7C
ENDCHAR
STARTCHAR Ntilde
ENCODING 209
SWIDTH 562 0
DWIDTH 9 0
BBX 7 13 1 0
BITMAP
76
DC
00
C6
E6
E6
F6
F6
DE
DE
CE
CE
C6
ENDCHAR
STARTCHAR Ograve
ENCODING 210
SWIDTH 562 0
DWIDTH 9 0
BBX 8 13 0 0
BITMAP
30
18
00
3C
66
C3
C3
C3
C3
C3
C3
66
3C
ENDCHAR
STARTCHAR Oacute
ENCODING 211
SWIDTH 562 0
DWIDTH 9 0
BBX 8 13 0 0
BITMAP
0C
18
00
3C
66
C3
C3
C3
C3
C3
C3
66
3C
ENDCHAR
STARTCHAR Ocircumflex
ENCODING 212
SWIDTH 562 0
DWIDTH 9 0
BBX 8 13 0 0
BITMAP
18
34
00
3C
66
C3
C3
C3
C3
C3
C3
66
3C
ENDCHAR
STARTCHAR Otilde
ENCODING 213
SWIDTH 562 0
DWIDTH 9 0
BBX 8 13 0 0
BITMAP
3B
6E
00
3C
66
C3
C3
C3
C3
C3
C3
66
3C
ENDCHAR
STARTCHAR Odieresis
ENCODING 214
SWIDTH 562 0
DWIDTH 9 0
BBX 8 13 0 0
BITMAP
36
00
3C
66
C3
C3
C3
C3
C3
C3
C3
66
3C
ENDCHAR
STARTCHAR multiply
ENCODING 215
SWIDTH 562 0
DWIDTH 9 0
BBX 8 7 0 2
BITMAP
C3
66
3C
18
3C
66
C3
ENDCHAR
STARTCHAR Oslash
ENCODING 216
SWIDTH 562 0
DWIDTH 9 0
BBX 8 13 0 -1
BITMAP
02
3C
66
C7
CF
CB
DB
D3
F3
E3
66
3C
40
ENDCHAR
STARTCHAR Ugrave
ENCODING 217
SWIDTH 562 0
DWIDTH 9 0
BBX 7 13 1 0
BITMAP
30
18
00
C6
C6
C6
C6
C6
C6
C6
C6
C6
7C
ENDCHAR
STARTCHAR Uacute
ENCODING 218
SWIDTH 562 0
DWIDTH 9 0
BBX 7 13 1 0
BITMAP
18
30
00
C6
C6
C6
C6
C6
C6
C6
C6
C6
7C
ENDCHAR
STARTCHAR Ucircumflex
ENCODING 219
SWIDTH 562 0
DWIDTH 9 0
BBX 7 13 1 0
BITMAP
30
68
00
C6
C6
C6
C6
C6
C6
C6
C6
C6
7C
ENDCHAR
STARTCHAR Udieresis
ENCODING 220
SWIDTH 562 0
DWIDTH 9 0
BBX 7 13 1 0
BITMAP
6C
00
C6
C6
C6
C6
C6
C6
C6
C6
C6
C6
7C
ENDCHAR
STARTCHAR Yacute
ENCODING 221
SWIDTH 562 0
DWIDTH 9 0
BBX 8 13 0 0
BITMAP
0C
18
00
C3
C3
66
66
3C
3C
18
18
18
18
ENDCHAR
STARTCHAR Thorn
ENCODING 222
SWIDTH 562 0
DWIDTH 9 0
BBX 7 11 1 0
BITMAP
C0
C0
F8
CC
C6
C6
C6
CC
F8
C0
C0
ENDCHAR
STARTCHAR germandbls
ENCODING 223
SWIDTH 562 0
DWIDTH 9 0
BBX 7 13 1 -2
BITMAP
7C
C6
C6
CC
D8
CC
C6
C6
C6
C6
DC
C0
C0
ENDCHAR
STARTCHAR agrave
ENCODING 224
SWIDTH 562 0
DWIDTH 9 0
BBX 7 12 1 0
BITMAP
30
30
18
00
7C
C6
06
7E
C6
C6
C6
7E
ENDCHAR
STARTCHAR aacute
ENCODING 225
SWIDTH 562 0
DWIDTH 9 0
BBX 7 12 1 0
BITMAP
18
18
30
00
7C
C6
06
7E
C6
C6
C6
7E
ENDCHAR
STARTCHAR acircumflex
ENCODING 226
SWIDTH 562 0
DWIDTH 9 0
BBX 7 12 1 0
BITMAP
10
38
6C
00
7C
C6
06
7E
C6
C6
C6
7E
ENDCHAR
STARTCHAR atilde
ENCODING 227
SWIDTH 562 0
DWIDTH 9 0
BBX 7 11 1 0
BITMAP
76
DC
00
7C
C6
06
7E
C6
C6
C6
7E
ENDCHAR
STARTCHAR adieresis
ENCODING 228
SWIDTH 562 0
DWIDTH 9 0
BBX 7 11 1 0
BITMAP
6C
00
00
7C
C6
06
7E
C6
C6
C6
7E
ENDCHAR
STARTCHAR aring
ENCODING 229
SWIDTH 562 0
DWIDTH 9 0
BBX 7 12 1 0
BITMAP
38
6C
38
00
7C
C6
06
7E
C6
C6
C6
7E
ENDCHAR
STARTCHAR ae
ENCODING 230
SWIDTH 562 0
DWIDTH 9 0
BBX 8 8 0 0
BITMAP
7E
DB
1B
7B
DE
D8
D8
7F
ENDCHAR
STARTCHAR ccedilla
ENCODING 231
SWIDTH 562 0
DWIDTH 9 0
BBX 7 11 1 -3
BITMAP
7C
C6
C0
C0
C0
C0
C6
7C
30
18
70
ENDCHAR
STARTCHAR egrave
ENCODING 232
SWIDTH 562 0
DWIDTH 9 0
BBX 7 12 1 0
BITMAP
30
30
18
00
7C
C6
C6
C6
FE
C0
C0
7E
ENDCHAR
STARTCHAR eacute
ENCODING 233
SWIDTH 562 0
DWIDTH 9 0
BBX 7 12 1 0
BITMAP
18
18
30
00
7C
C6
C6
C6
FE
C0
C0
7E
ENDCHAR
STARTCHAR ecircumflex
ENCODING 234
SWIDTH 562 0
DWIDTH 9 0
BBX 7 12 1 0
BITMAP
10
38
6C
00
7C
C6
C6
C6
FE
C0
C0
7E
ENDCHAR
STARTCHAR edieresis
ENCODING 235
SWIDTH 562 0
DWIDTH 9 0
BBX 7 11 1 0
BITMAP
6C
00
00
7C
C6
C6
C6
FE
C0
C0
7E
ENDCHAR
STARTCHAR igrave
ENCODING 236
SWIDTH 562 0
DWIDTH 9 0
BBX 6 12 2 0
BITMAP
60
60
30
00
F0
30
30
30
30
30
30
FC
ENDCHAR
STARTCHAR iacute
ENCODING 237
SWIDTH 562 0
DWIDTH 9 0
BBX 6 12 2 0
BITMAP
18
18
30
00
F0
30
30
30
30
30
30
FC
ENDCHAR
STARTCHAR icircumflex
ENCODING 238
SWIDTH 562 0
DWIDTH 9 0
BBX 6 12 2 0
BITMAP
20
70
D8
00
F0
30
30
30
30
30
30
FC
ENDCHAR
STARTCHAR idieresis
ENCODING 239
SWIDTH 562 0
DWIDTH 9 0
BBX 6 11 2 0
BITMAP
D8
00
00
F0
30
30
30
30
30
30
FC
ENDCHAR
STARTCHAR eth
ENCODING 240
SWIDTH 562 0
DWIDTH 9 0
BBX 8 11 0 0
BITMAP
68
30
58
0C
3E
63
C3
C3
C3
66
3C
ENDCHAR
STARTCHAR ntilde
ENCODING 241
SWIDTH 562 0
DWIDTH 9 0
BBX 7 11 1 0
BITMAP
76
DC
00
BC
E6
C6
C6
C6
C6
C6
C6
ENDCHAR
STARTCHAR ograve
ENCODING 242
SWIDTH 562 0
DWIDTH 9 0
BBX 7 12 1 0
BITMAP
30
30
18
00
7C
C6
C6
C6
C6
C6
C6
7C
ENDCHAR
STARTCHAR oacute
ENCODING 243
SWIDTH 562 0
DWIDTH 9 0
BBX 7 12 1 0
BITMAP
18
18
30
00
7C
C6
C6
C6
C6
C6
C6
7C
ENDCHAR
STARTCHAR ocircumflex
ENCODING 244
SWIDTH 562 0
DWIDTH 9 0
BBX 7 12 1 0
BITMAP
10
38
6C
00
7C
C6
C6
C6
C6
C6
C6
7C
ENDCHAR
STARTCHAR otilde
ENCODING 245
SWIDTH 562 0
DWIDTH 9 0
BBX 7 11 1 0
BITMAP
76
DC
00
7C
C6
C6
C6
C6
C6
C6
7C
ENDCHAR
STARTCHAR odieresis
ENCODING 246
SWIDTH 562 0
DWIDTH 9 0
BBX 7 11 1 0
BITMAP
6C
00
00
7C
C6
C6
C6
C6
C6
C6
7C
ENDCHAR
STARTCHAR divide
ENCODING 247
SWIDTH 562 0
DWIDTH 9 0
BBX 7 9 1 1
BITMAP
38
38
00
00
FE
00
00
38
38
ENDCHAR
STARTCHAR oslash
ENCODING 248
SWIDTH 562 0
DWIDTH 9 0
BBX 7 10 1 -1
BITMAP
02
7C
CE
CE
D6
D6
E6
E6
7C
80
ENDCHAR
STARTCHAR ugrave
ENCODING 249
SWIDTH 562 0
DWIDTH 9 0
BBX 7 12 1 0
BITMAP
30
30
18
00
C6
C6
C6
C6
C6
C6
C6
7C
ENDCHAR
STARTCHAR uacute
ENCODING 250
SWIDTH 562 0
DWIDTH 9 0
BBX 7 12 1 0
BITMAP
18
18
30
00
C6
C6
C6
C6
C6
C6
C6
7C
ENDCHAR
STARTCHAR ucircumflex
ENCODING 251
SWIDTH 562 0
DWIDTH 9 0
BBX 7 12 1 0
BITMAP
10
38
6C
00
C6
C6
C6
C6
C6
C6
C6
7C
ENDCHAR
STARTCHAR udieresis
ENCODING 252
SWIDTH 562 0
DWIDTH 9 0
BBX 7 11 1 0
BITMAP
6C
00
00
C6
C6
C6
C6
C6
C6
C6
7C
ENDCHAR
STARTCHAR yacute
ENCODING 253
SWIDTH 562 0
DWIDTH 9 0
BBX 7 15 1 -3
BITMAP
18
18
30
00
C6
C6
66
6C
3C
3C
18
18
18
30
30
ENDCHAR
STARTCHAR thorn
ENCODING 254
SWIDTH 562 0
DWIDTH 9 0
BBX 7 13 1 -3
BITMAP
C0
C0
C0
F8
EC
C6
C6
C6
EC
F8
C0
C0
C0
ENDCHAR
STARTCHAR ydieresis
ENCODING 255
SWIDTH 562 0
DWIDTH 9 0
BBX 7 14 1 -3
BITMAP
6C
00
00
C6
C6
66
6C
3C
3C
18
18
18
30
30
ENDCHAR
STARTCHAR Amacron
ENCODING 256
SWIDTH 562 0
DWIDTH 9 0
BBX 8 13 0 0
BITMAP
7E
00
18
18
3C
3C
3C
66
66
7E
C3
C3
C3
ENDCHAR
STARTCHAR amacron
ENCODING 257
SWIDTH 562 0
DWIDTH 9 0
BBX 7 10 1 0
BITMAP
7C
00
7C
C6
06
7E
C6
C6
C6
7E
ENDCHAR
STARTCHAR Abreve
ENCODING 258
SWIDTH 562 0
DWIDTH 9 0
BBX 8 13 0 0
BITMAP
66
3C
00
18
18
3C
3C
3C
66
66
7E
C3
C3
ENDCHAR
STARTCHAR abreve
ENCODING 259
SWIDTH 562 0
DWIDTH 9 0
BBX 7 11 1 0
BITMAP
6C
38
00
7C
C6
06
7E
C6
C6
C6
7E
ENDCHAR
STARTCHAR Aogonek
ENCODING 260
SWIDTH 562 0
DWIDTH 9 0
BBX 8 14 0 -3
BITMAP
18
18
3C
3C
3C
66
66
7E
C3
C3
C3
06
0C
07
ENDCHAR
STARTCHAR aogonek
ENCODING 261
SWIDTH 562 0
DWIDTH 9 0
BBX 7 11 1 -3
BITMAP
7C
C6
06
7E
C6
C6
C6
7E
0C
18
0E
ENDCHAR
STARTCHAR Cacute
ENCODING 262
SWIDTH 562 0
DWIDTH 9 0
BBX 7 13 1 0
BITMAP
18
30
00
3C
66
C0
C0
C0
C0
C0
C0
66
3C
ENDCHAR
STARTCHAR cacute
ENCODING 263
SWIDTH 562 0
DWIDTH 9 0
BBX 7 12 1 0
BITMAP
18
18
30
00
3C
66
C0
C0
C0
C0
66
3C
ENDCHAR
STARTCHAR Ccircumflex
ENCODING 264
SWIDTH 562 0
DWIDTH 9 0
BBX 7 13 1 0
BITMAP
10
38
6C
00
3C
66
C0
C0
C0
C0
C0
66
3C
ENDCHAR
STARTCHAR ccircumflex
ENCODING 265
SWIDTH 562 0
DWIDTH 9 0
BBX 7 12 1 0
BITMAP
10
38
6C
00
3C
66
C0
C0
C0
C0
66
3C
ENDCHAR
STARTCHAR Cdotaccent
ENCODING 266
SWIDTH 562 0
DWIDTH 9 0
BBX 7 13 1 0
BITMAP
10
00
3C
66
C0
C0
C0
C0
C0
C0
C0
66
3C
ENDCHAR
STARTCHAR cdotaccent
ENCODING 267
SWIDTH 562 0
DWIDTH 9 0
BBX 7 10 1 0
BITMAP
10
00
3C
66
C0
C0
C0
C0
66
3C
ENDCHAR
STARTCHAR Ccaron
ENCODING 268
SWIDTH 562 0
DWIDTH 9 0
BBX 7 13 1 0
BITMAP
6C
38
10
00
3C
66
C0
C0
C0
C0
C0
66
3C
ENDCHAR
STARTCHAR ccaron
ENCODING 269
SWIDTH 562 0
DWIDTH 9 0
BBX 7 12 1 0
BITMAP
6C
38
10
00
3C
66
C0
C0
C0
C0
66
3C
ENDCHAR
STARTCHAR Dcaron
ENCODING 270
SWIDTH 562 0
DWIDTH 9 0
BBX 7 13 1 0
BITMAP
6C
38
10
00
F8
CC
C6
C6
C6
C6
C6
CC
F8
ENDCHAR
STARTCHAR dcaron
ENCODING 271
SWIDTH 562 0
DWIDTH 9 0
BBX 8 11 0 0
BITMAP
0D
0D
0D
6C
DC
CC
CC
CC
CC
DC
6C
ENDCHAR
STARTCHAR Dcroat
ENCODING 272
SWIDTH 562 0
DWIDTH 9 0
BBX 8 11 0 0
BITMAP
7C
66
63
63
63
FB
63
63
63
66
7C
ENDCHAR
STARTCHAR dcroat
ENCODING 273
SWIDTH 562 0
DWIDTH 9 0
BBX 8 11 0 0
BITMAP
06
1F
06
76
CE
C6
C6
C6
C6
CE
76
ENDCHAR
STARTCHAR Emacron
ENCODING 274
SWIDTH 562 0
DWIDTH 9 0
BBX 7 13 1 0
BITMAP
7C
00
FE
C0
C0
C0
C0
FC
C0
C0
C0
C0
FE
ENDCHAR
STARTCHAR emacron
ENCODING 275
SWIDTH 562 0
DWIDTH 9 0
BBX 7 10 1 0
BITMAP
7C
00
7C
C6
C6
C6
FE
C0
C0
7E
ENDCHAR
STARTCHAR Ebreve
ENCODING 276
SWIDTH 562 0
DWIDTH 9 0
BBX 7 13 1 0
BITMAP
6C
38
00
FE
C0
C0
C0
FC
C0
C0
C0
C0
FE
ENDCHAR
STARTCHAR ebreve
ENCODING 277
SWIDTH 562 0
DWIDTH 9 0
BBX 7 11 1 0
BITMAP
6C
38
00
7C
C6
C6
C6
FE
C0
C0
7E
ENDCHAR
STARTCHAR Edotaccent
ENCODING 278
SWIDTH 562 0
DWIDTH 9 0
BBX 7 13 1 0
BITMAP
10
00
FE
C0
C0
C0
C0
FC
C0
C0
C0
C0
FE
ENDCHAR
STARTCHAR edotaccent
ENCODING 279
SWIDTH 562 0
DWIDTH 9 0
BBX 7 10 1 0
BITMAP
10
00
7C
C6
C6
C6
FE
C0
C0
7E
ENDCHAR
STARTCHAR Eogonek
ENCODING 280
SWIDTH 562 0
DWIDTH 9 0
BBX 7 14 1 -3
BITMAP
FE
C0
C0
C0
C0
FC
C0
C0
C0
C0
FE
0C
18
0E
ENDCHAR
STARTCHAR eogonek
ENCODING 281
SWIDTH 562 0
DWIDTH 9 0
BBX 7 11 1 -3
BITMAP
7C
C6
C6
C6
FE
C0
C0
7E
0C
18
0E
ENDCHAR
STARTCHAR Ecaron
ENCODING 282
SWIDTH 562 0
DWIDTH 9 0
BBX 7 13 1 0
BITMAP
6C
38
10
00
FE
C0
C0
C0
FC
C0
C0
C0
FE
ENDCHAR
STARTCHAR ecaron
ENCODING 283
SWIDTH 562 0
DWIDTH 9 0
BBX 7 12 1 0
BITMAP
6C
38
10
00
7C
C6
C6
C6
FE
C0
C0
7E
ENDCHAR
STARTCHAR Gcircumflex
ENCODING 284
SWIDTH 562 0
DWIDTH 9 0
BBX 7 13 1 0
BITMAP
10
38
6C
00
3C
66
C0
C0
DE
C6
C6
66
3E
ENDCHAR
STARTCHAR gcircumflex
ENCODING 285
SWIDTH 562 0
DWIDTH 9 0
BBX 7 15 1 -3
BITMAP
10
38
6C
00
76
CE
C6
C6
C6
C6
CE
76
06
C6
7C
ENDCHAR
STARTCHAR Gbreve
ENCODING 286
SWIDTH 562 0
DWIDTH 9 0
BBX 7 13 1 0
BITMAP
6C
38
00
3C
66
C0
C0
C0
DE
C6
E6
66
3E
ENDCHAR
STARTCHAR gbreve
ENCODING 287
SWIDTH 562 0
DWIDTH 9 0
BBX 7 14 1 -3
BITMAP
6C
38
00
76
CE
C6
C6
C6
C6
CE
76
06
C6
7C
ENDCHAR
STARTCHAR Gdotaccent
ENCODING 288
SWIDTH 562 0
DWIDTH 9 0
BBX 7 13 1 0
BITMAP
10
00
3C
66
C0
C0
C0
DE
C6
C6
C6
66
3E
ENDCHAR
STARTCHAR gdotaccent
ENCODING 289
SWIDTH 562 0
DWIDTH 9 0
BBX 7 13 1 -3
BITMAP
10
00
76
CE
C6
C6
C6
C6
CE
76
06
C6
7C
ENDCHAR
STARTCHAR Gcommaaccent
ENCODING 290
SWIDTH 562 0
DWIDTH 9 0
BBX 7 14 1 -3
BITMAP
3C
66
C0
C0
C0
DE
C6
C6
C6
66
3E
18
18
30
ENDCHAR
STARTCHAR gcommaaccent
ENCODING 291
SWIDTH 562 0
DWIDTH 9 0
BBX 7 15 1 -3
BITMAP
18
18
30
00
76
CE
C6
C6
C6
C6
CE
76
06
C6
7C
ENDCHAR
STARTCHAR Hcircumflex
ENCODING 292
SWIDTH 562 0
DWIDTH 9 0
BBX 7 13 1 0
BITMAP
10
38
6C
00
C6
C6
C6
C6
FE
C6
C6
C6
C6
ENDCHAR
STARTCHAR hcircumflex
ENCODING 293
SWIDTH 562 0
DWIDTH 9 0
BBX 7 13 1 0
BITMAP
10
38
6C
00
C0
C0
DC
E6
C6
C6
C6
C6
C6
ENDCHAR
STARTCHAR Hbar
ENCODING 294
SWIDTH 562 0
DWIDTH 9 0
BBX 8 11 0 0
BITMAP
66
66
66
FF
66
7E
66
66
66
66
66
ENDCHAR
STARTCHAR hbar
ENCODING 295
SWIDTH 562 0
DWIDTH 9 0
BBX 8 11 0 0
BITMAP
60
F8
60
6E
73
63
63
63
63
63
63
ENDCHAR
STARTCHAR Itilde
ENCODING 296
SWIDTH 562 0
DWIDTH 9 0
BBX 7 13 1 0
BITMAP
76
DC
00
FC
30
30
30
30
30
30
30
30
FC
ENDCHAR
STARTCHAR itilde
ENCODING 297
SWIDTH 562 0
DWIDTH 9 0
BBX 7 11 1 0
BITMAP
76
DC
00
78
18
18
18
18
18
18
7E
ENDCHAR
STARTCHAR Imacron
ENCODING 298
SWIDTH 562 0
DWIDTH 9 0
BBX 6 13 1 0
BITMAP
FC
00
FC
30
30
30
30
30
30
30
30
30
FC
ENDCHAR
STARTCHAR imacron
ENCODING 299
SWIDTH 562 0
DWIDTH 9 0
BBX 6 10 2 0
BITMAP
F8
00
F0
30
30
30
30
30
30
FC
ENDCHAR
STARTCHAR Ibreve
ENCODING 300
SWIDTH 562 0
DWIDTH 9 0
BBX 6 13 1 0
BITMAP
6C
38
00
FC
30
30
30
30
30
30
30
30
FC
ENDCHAR
STARTCHAR ibreve
ENCODING 301
SWIDTH 562 0
DWIDTH 9 0
BBX 6 11 2 0
BITMAP
D8
70
00
F0
30
30
30
30
30
30
FC
ENDCHAR
STARTCHAR Iogonek
ENCODING 302
SWIDTH 562 0
DWIDTH 9 0
BBX 6 14 1 -3
BITMAP
FC
30
30
30
30
30
30
30
30
30
FC
30
60
38
ENDCHAR
STARTCHAR iogonek
ENCODING 303
SWIDTH 562 0
DWIDTH 9 0
BBX 6 13 2 -3
BITMAP
30
00
F0
30
30
30
30
30
30
FC
30
60
38
ENDCHAR
STARTCHAR Idotaccent
ENCODING 304
SWIDTH 562 0
DWIDTH 9 0
BBX 6 13 1 0
BITMAP
30
00
FC
30
30
30
30
30
30
30
30
30
FC
ENDCHAR
STARTCHAR dotlessi
ENCODING 305
SWIDTH 562 0
DWIDTH 9 0
BBX 6 8 2 0
BITMAP
F0
30
30
30
30
30
30
FC
ENDCHAR
STARTCHAR IJ
ENCODING 306
SWIDTH 562 0
DWIDTH 9 0
BBX 8 11 0 0
BITMAP
F7
63
63
63
63
63
63
63
63
63
FE
ENDCHAR
STARTCHAR ij
ENCODING 307
SWIDTH 562 0
DWIDTH 9 0
BBX 8 13 0 -3
BITMAP
63
00
E7
63
63
63
63
63
63
F3
03
1B
0E
ENDCHAR
STARTCHAR Jcircumflex
ENCODING 308
SWIDTH 562 0
DWIDTH 9 0
BBX 6 13 2 0
BITMAP
10
38
6C
00
3C
18
18
18
18
18
18
18
F0
ENDCHAR
STARTCHAR jcircumflex
ENCODING 309
SWIDTH 562 0
DWIDTH 9 0
BBX 5 15 2 -3
BITMAP
20
70
D8
00
F0
30
30
30
30
30
30
30
30
30
E0
ENDCHAR
STARTCHAR Kcommaaccent
ENCODING 310
SWIDTH 562 0
DWIDTH 9 0
BBX 7 14 1 -3
BITMAP
C6
CC
D8
F0
E0
C0
E0
F0
D8
CC
C6
18
18
30
ENDCHAR
STARTCHAR kcommaaccent
ENCODING 311
SWIDTH 562 0
DWIDTH 9 0
BBX 7 14 1 -3
BITMAP
C0
C0
C6
CC
D8
F0
E0
F0
D8
CC
C6
18
18
30
ENDCHAR
STARTCHAR kgreenlandic
ENCODING 312
SWIDTH 562 0
DWIDTH 9 0
BBX 7 8 1 0
BITMAP
C6
CC
D8
F0
F0
D8
CC
C6
ENDCHAR
STARTCHAR Lacute
ENCODING 313
SWIDTH 562 0
DWIDTH 9 0
BBX 7 13 1 0
BITMAP
60
C0
00
C0
C0
C0
C0
C0
C0
C0
C0
C0
FE
ENDCHAR
STARTCHAR lacute
ENCODING 314
SWIDTH 562 0
DWIDTH 9 0
BBX 5 13 2 0
BITMAP
30
60
00
E0
60
60
60
60
60
60
60
60
38
ENDCHAR
STARTCHAR Lcommaaccent
ENCODING 315
SWIDTH 562 0
DWIDTH 9 0
BBX 7 14 1 -3
BITMAP
C0
C0
C0
C0
C0
C0
C0
C0
C0
C0
FE
18
18
30
ENDCHAR
STARTCHAR lcommaaccent
ENCODING 316
SWIDTH 562 0
DWIDTH 9 0
BBX 5 14 2 -3
BITMAP
E0
60
60
60
60
60
60
60
60
60
38
30
30
60
ENDCHAR
STARTCHAR Lcaron
ENCODING 317
SWIDTH 562 0
DWIDTH 9 0
BBX 7 11 1 0
BITMAP
CC
CC
D8
C0
C0
C0
C0
C0
C0
C0
FE
ENDCHAR
STARTCHAR lcaron
ENCODING 318
SWIDTH 562 0
DWIDTH 9 0
BBX 7 11 1 0
BITMAP
E6
66
6C
60
60
60
60
60
60
60
38
ENDCHAR
STARTCHAR Ldot
ENCODING 319
SWIDTH 562 0
DWIDTH 9 0
BBX 7 11 1 0
BITMAP
C0
C0
C0
C0
D8
C0
C0
C0
C0
C0
FE
ENDCHAR
STARTCHAR ldot
ENCODING 320
SWIDTH 562 0
DWIDTH 9 0
BBX 6 11 2 0
BITMAP
E0
60
60
60
60
6C
60
60
60
60
38
ENDCHAR
STARTCHAR Lslash
ENCODING 321
SWIDTH 562 0
DWIDTH 9 0
BBX 8 11 0 0
BITMAP
60
60
6C
78
70
60
E0
60
60
60
7F
ENDCHAR
STARTCHAR lslash
ENCODING 322
SWIDTH 562 0
DWIDTH 9 0
BBX 6 11 1 0
BITMAP
70
30
30
3C
38
30
70
F0
30
30
1C
ENDCHAR
STARTCHAR Nacute
ENCODING 323
SWIDTH 562 0
DWIDTH 9 0
BBX 8 13 0 0
BITMAP
0C
0C
18
E3
E3
F3
F3
DB
DB
CF
CF
C7
C7
ENDCHAR
STARTCHAR nacute
ENCODING 324
SWIDTH 562 0
DWIDTH 9 0
BBX 7 12 1 0
BITMAP
18
18
30
00
DC
E6
C6
C6
C6
C6
C6
C6
ENDCHAR
STARTCHAR Ncommaaccent
ENCODING 325
SWIDTH 562 0
DWIDTH 9 0
BBX 8 14 0 -3
BITMAP
E3
E3
F3
F3
FB
DB
DF
CF
CF
C7
C7
18
18
30
ENDCHAR
STARTCHAR ncommaaccent
ENCODING 326
SWIDTH 562 0
DWIDTH 9 0
BBX 7 11 1 -3
BITMAP
DC
E6
C6
C6
C6
C6
C6
C6
18
18
30
ENDCHAR
STARTCHAR Ncaron
ENCODING 327
SWIDTH 562 0
DWIDTH 9 0
BBX 8 13 0 0
BITMAP
36
1C
08
E3
E3
F3
F3
DB
DB
CF
CF
C7
C7
ENDCHAR
STARTCHAR ncaron
ENCODING 328
SWIDTH 562 0
DWIDTH 9 0
BBX 7 12 1 0
BITMAP
6C
38
10
00
DC
E6
C6
C6
C6
C6
C6
C6
ENDCHAR
STARTCHAR napostrophe
ENCODING 329
SWIDTH 562 0
DWIDTH 9 0
BBX 8 11 0 0
BITMAP
60
60
C0
36
3B
33
33
33
33
33
33
ENDCHAR
STARTCHAR Eng
ENCODING 330
SWIDTH 562 0
DWIDTH 9 0
BBX 7 14 1 -3
BITMAP
C6
C6
E6
E6
F6
D6
DE
CE
CE
C6
C6
06
06
1C
ENDCHAR
STARTCHAR eng
ENCODING 331
SWIDTH 562 0
DWIDTH 9 0
BBX 7 11 1 -3
BITMAP
DC
E6
C6
C6
C6
C6
C6
C6
06
06
1C
ENDCHAR
STARTCHAR Omacron
ENCODING 332
SWIDTH 562 0
DWIDTH 9 0
BBX 8 13 0 0
BITMAP
7E
00
3C
66
C3
C3
C3
C3
C3
C3
C3
66
3C
ENDCHAR
STARTCHAR omacron
ENCODING 333
SWIDTH 562 0
DWIDTH 9 0
BBX 7 10 1 0
BITMAP
7C
00
7C
C6
C6
C6
C6
C6
C6
7C
ENDCHAR
STARTCHAR Obreve
ENCODING 334
SWIDTH 562 0
DWIDTH 9 0
BBX 8 13 0 0
BITMAP
66
3C
00
3C
66
C3
C3
C3
C3
C3
C3
66
3C
ENDCHAR
STARTCHAR obreve
ENCODING 335
SWIDTH 562 0
DWIDTH 9 0
BBX 7 11 1 0
BITMAP
6C
38
00
7C
C6
C6
C6
C6
C6
C6
7C
ENDCHAR
STARTCHAR Ohungarumlaut
ENCODING 336
SWIDTH 562 0
DWIDTH 9 0
BBX 8 13 0 0
BITMAP
36
6C
00
3C
66
C3
C3
C3
C3
C3
C3
66
3C
ENDCHAR
STARTCHAR ohungarumlaut
ENCODING 337
SWIDTH 562 0
DWIDTH 9 0
BBX 7 11 1 0
BITMAP
36
6C
00
7C
C6
C6
C6
C6
C6
C6
7C
ENDCHAR
STARTCHAR OE
ENCODING 338
SWIDTH 562 0
DWIDTH 9 0
BBX 8 11 0 0
BITMAP
3F
6C
CC
CC
CC
CF
CC
CC
CC
6C
3F
ENDCHAR
STARTCHAR oe
ENCODING 339
SWIDTH 562 0
DWIDTH 9 0
BBX 8 8 0 0
BITMAP
7E
DB
DB
DB
DF
D8
D8
7F
ENDCHAR
STARTCHAR Racute
ENCODING 340
SWIDTH 562 0
DWIDTH 9 0
BBX 7 13 1 0
BITMAP
18
30
00
FC
C6
C6
C6
C6
FC
F0
D8
CC
C6
ENDCHAR
STARTCHAR racute
ENCODING 341
SWIDTH 562 0
DWIDTH 9 0
BBX 7 12 1 0
BITMAP
18
18
30
00
DC
E6
C0
C0
C0
C0
C0
C0
ENDCHAR
STARTCHAR Rcommaaccent
ENCODING 342
SWIDTH 562 0
DWIDTH 9 0
BBX 7 14 1 -3
BITMAP
FC
C6
C6
C6
C6
FC
E0
F0
D8
CC
C6
18
18
30
ENDCHAR
STARTCHAR rcommaaccent
ENCODING 343
SWIDTH 562 0
DWIDTH 9 0
BBX 7 11 1 -3
BITMAP
DC
E6
C0
C0
C0
C0
C0
C0
18
18
30
ENDCHAR
STARTCHAR Rcaron
ENCODING 344
SWIDTH 562 0
DWIDTH 9 0
BBX 7 13 1 0
BITMAP
6C
38
10
00
FC
C6
C6
C6
FC
F0
D8
CC
C6
ENDCHAR
STARTCHAR rcaron
ENCODING 345
SWIDTH 562 0
DWIDTH 9 0
BBX 7 12 1 0
BITMAP
6C
38
10
00
DC
E6
C0
C0
C0
C0
C0
C0
ENDCHAR
STARTCHAR Sacute
ENCODING 346
SWIDTH 562 0
DWIDTH 9 0
BBX 7 13 1 0
BITMAP
18
30
00
7C
C6
C0
C0
70
1C
06
06
C6
7C
ENDCHAR
STARTCHAR sacute
ENCODING 347
SWIDTH 562 0
DWIDTH 9 0
BBX 7 12 1 0
BITMAP
18
18
30
00
7C
C6
C0
70
1C
06
C6
7C
ENDCHAR
STARTCHAR Scircumflex
ENCODING 348
SWIDTH 562 0
DWIDTH 9 0
BBX 7 13 1 0
BITMAP
10
38
6C
00
7C
C6
C0
60
38
0C
06
C6
7C
ENDCHAR
STARTCHAR scircumflex
ENCODING 349
SWIDTH 562 0
DWIDTH 9 0
BBX 7 12 1 0
BITMAP
10
38
6C
00
7C
C6
C0
70
1C
06
C6
7C
ENDCHAR
STARTCHAR Scedilla
ENCODING 350
SWIDTH 562 0
DWIDTH 9 0
BBX 7 14 1 -3
BITMAP
7C
C6
C0
C0
60
38
0C
06
06
C6
7C
18
0C
38
ENDCHAR
STARTCHAR scedilla
ENCODING 351
SWIDTH 562 0
DWIDTH 9 0
BBX 7 11 1 -3
BITMAP
7C
C6
C0
70
1C
06
C6
7C
18
0C
38
ENDCHAR
STARTCHAR Scaron
ENCODING 352
SWIDTH 562 0
DWIDTH 9 0
BBX 7 13 1 0
BITMAP
6C
38
10
00
7C
C6
C0
60
38
0C
06
C6
7C
ENDCHAR
STARTCHAR scaron
ENCODING 353
SWIDTH 562 0
DWIDTH 9 0
BBX 7 12 1 0
BITMAP
6C
38
10
00
7C
C6
C0
70
1C
06
C6
7C
ENDCHAR
STARTCHAR Tcommaaccent
ENCODING 354
SWIDTH 562 0
DWIDTH 9 0
BBX 8 14 0 -3
BITMAP
FF
18
18
18
18
18
18
18
18
18
18
18
0C
38
ENDCHAR
STARTCHAR tcommaaccent
ENCODING 355
SWIDTH 562 0
DWIDTH 9 0
BBX 5 14 2 -3
BITMAP
60
60
60
F8
60
60
60
60
60
60
38
30
18
70
ENDCHAR
STARTCHAR Tcaron
ENCODING 356
SWIDTH 562 0
DWIDTH 9 0
BBX 8 13 0 0
BITMAP
36
1C
08
00
FF
18
18
18
18
18
18
18
18
ENDCHAR
STARTCHAR tcaron
ENCODING 357
SWIDTH 562 0
DWIDTH 9 0
BBX 7 13 1 0
BITMAP
06
06
6C
60
60
F8
60
60
60
60
60
60
38
ENDCHAR
STARTCHAR Tbar
ENCODING 358
SWIDTH 562 0
DWIDTH 9 0
BBX 8 11 0 0
BITMAP
FF
18
18
18
18
7E
18
18
18
18
18
ENDCHAR
STARTCHAR tbar
ENCODING 359
SWIDTH 562 0
DWIDTH 9 0
BBX 5 11 2 0
BITMAP
60
60
60
F8
60
60
F0
60
60
60
38
ENDCHAR
STARTCHAR Utilde
ENCODING 360
SWIDTH 562 0
DWIDTH 9 0
BBX 7 13 1 0
BITMAP
76
DC
00
C6
C6
C6
C6
C6
C6
C6
C6
C6
7C
ENDCHAR
STARTCHAR utilde
ENCODING 361
SWIDTH 562 0
DWIDTH 9 0
BBX 7 11 1 0
BITMAP
76
DC
00
C6
C6
C6
C6
C6
C6
C6
7C
ENDCHAR
STARTCHAR Umacron
ENCODING 362
SWIDTH 562 0
DWIDTH 9 0
BBX 7 13 1 0
BITMAP
7C
00
C6
C6
C6
C6
C6
C6
C6
C6
C6
C6
7C
ENDCHAR
STARTCHAR umacron
ENCODING 363
SWIDTH 562 0
DWIDTH 9 0
BBX 7 10 1 0
BITMAP
7C
00
C6
C6
C6
C6
C6
C6
C6
7C
ENDCHAR
STARTCHAR Ubreve
ENCODING 364
SWIDTH 562 0
DWIDTH 9 0
BBX 7 13 1 0
BITMAP
6C
38
00
C6
C6
C6
C6
C6
C6
C6
C6
C6
7C
ENDCHAR
STARTCHAR ubreve
ENCODING 365
SWIDTH 562 0
DWIDTH 9 0
BBX 7 11 1 0
BITMAP
6C
38
00
C6
C6
C6
C6
C6
C6
C6
7C
ENDCHAR
STARTCHAR Uring
ENCODING 366
SWIDTH 562 0
DWIDTH 9 0
BBX 7 13 1 0
BITMAP
38
6C
38
00
C6
C6
C6
C6
C6
C6
C6
C6
7C
ENDCHAR
STARTCHAR uring
ENCODING 367
SWIDTH 562 0
DWIDTH 9 0
BBX 7 12 1 0
BITMAP
38
6C
38
00
C6
C6
C6
C6
C6
C6
C6
7C
ENDCHAR
STARTCHAR Uhungarumlaut
ENCODING 368
SWIDTH 562 0
DWIDTH 9 0
BBX 7 13 1 0
BITMAP
36
6C
00
C6
C6
C6
C6
C6
C6
C6
C6
C6
7C
ENDCHAR
STARTCHAR uhungarumlaut
ENCODING 369
SWIDTH 562 0
DWIDTH 9 0
BBX 7 12 1 0
BITMAP
36
36
6C
00
C6
C6
C6
C6
C6
C6
C6
7C
ENDCHAR
STARTCHAR Uogonek
ENCODING 370
SWIDTH 562 0
DWIDTH 9 0
BBX 7 14 1 -3
BITMAP
C6
C6
C6
C6
C6
C6
C6
C6
C6
C6
7C
18
30
1C
ENDCHAR
STARTCHAR uogonek
ENCODING 371
SWIDTH 562 0
DWIDTH 9 0
BBX 7 11 1 -3
BITMAP
C6
C6
C6
C6
C6
C6
C6
7C
18
30
1C
ENDCHAR
STARTCHAR Wcircumflex
ENCODING 372
SWIDTH 562 0
DWIDTH 9 0
BBX 8 13 0 0
BITMAP
10
38
6C
00
C3
C3
C3
DB
DB
FF
FF
E7
C3
ENDCHAR
STARTCHAR wcircumflex
ENCODING 373
SWIDTH 562 0
DWIDTH 9 0
BBX 8 12 0 0
BITMAP
10
38
6C
00
C3
C3
C3
C3
DB
FF
E7
C3
ENDCHAR
STARTCHAR Ycircumflex
ENCODING 374
SWIDTH 562 0
DWIDTH 9 0
BBX 8 13 0 0
BITMAP
10
38
6C
00
C3
C3
66
3C
3C
18
18
18
18
ENDCHAR
STARTCHAR ycircumflex
ENCODING 375
SWIDTH 562 0
DWIDTH 9 0
BBX 7 15 1 -3
BITMAP
10
38
6C
00
C6
C6
66
6C
3C
3C
18
18
18
30
30
ENDCHAR
STARTCHAR Ydieresis
ENCODING 376
SWIDTH 562 0
DWIDTH 9 0
BBX 8 13 0 0
BITMAP
6C
00
C3
C3
66
66
3C
3C
18
18
18
18
18
ENDCHAR
STARTCHAR Zacute
ENCODING 377
SWIDTH 562 0
DWIDTH 9 0
BBX 7 13 1 0
BITMAP
18
30
00
FE
0C
0C
18
18
30
30
60
60
FE
ENDCHAR
STARTCHAR zacute
ENCODING 378
SWIDTH 562 0
DWIDTH 9 0
BBX 7 12 1 0
BITMAP
18
18
30
00
FE
06
0C
18
30
60
C0
FE
ENDCHAR
STARTCHAR Zdotaccent
ENCODING 379
SWIDTH 562 0
DWIDTH 9 0
BBX 7 13 1 0
BITMAP
10
00
FE
06
0C
0C
18
18
30
30
60
60
FE
ENDCHAR
STARTCHAR zdotaccent
ENCODING 380
SWIDTH 562 0
DWIDTH 9 0
BBX 7 10 1 0
BITMAP
10
00
FE
06
0C
18
30
60
C0
FE
ENDCHAR
STARTCHAR Zcaron
ENCODING 381
SWIDTH 562 0
DWIDTH 9 0
BBX 7 13 1 0
BITMAP
6C
38
10
00
FE
06
0C
18
30
60
C0
C0
FE
ENDCHAR
STARTCHAR zcaron
ENCODING 382
SWIDTH 562 0
DWIDTH 9 0
BBX 7 12 1 0
BITMAP
6C
38
10
00
FE
06
0C
18
30
60
C0
FE
ENDCHAR
STARTCHAR longs
ENCODING 383
SWIDTH 562 0
DWIDTH 9 0
BBX 5 11 3 0
BITMAP
78
C0
C0
C0
C0
C0
C0
C0
C0
C0
C0
ENDCHAR
STARTCHAR uni0180
ENCODING 384
SWIDTH 562 0
DWIDTH 9 0
BBX 8 11 0 0
BITMAP
60
F8
60
6E
73
63
63
63
63
73
6E
ENDCHAR
STARTCHAR uni0181
ENCODING 385
SWIDTH 562 0
DWIDTH 9 0
BBX 8 11 0 0
BITMAP
7E
B3
B3
33
33
3E
33
33
33
33
3E
ENDCHAR
STARTCHAR uni0182
ENCODING 386
SWIDTH 562 0
DWIDTH 9 0
BBX 7 11 1 0
BITMAP
FC
C0
C0
C0
C0
FC
C6
C6
C6
C6
FC
ENDCHAR
STARTCHAR uni0183
ENCODING 387
SWIDTH 562 0
DWIDTH 9 0
BBX 7 11 1 0
BITMAP
FC
C0
C0
DC
E6
C6
C6
C6
C6
E6
DC
ENDCHAR
STARTCHAR uni0184
ENCODING 388
SWIDTH 562 0
DWIDTH 9 0
BBX 8 11 0 0
BITMAP
60
E0
E0
60
60
7E
63
63
63
63
7E
ENDCHAR
STARTCHAR uni0185
ENCODING 389
SWIDTH 562 0
DWIDTH 9 0
BBX 8 11 0 0
BITMAP
60
E0
E0
6E
73
63
63
63
63
73
6E
ENDCHAR
STARTCHAR uni0186
ENCODING 390
SWIDTH 562 0
DWIDTH 9 0
BBX 7 11 1 0
BITMAP
78
CC
06
06
06
06
06
06
06
CC
78
ENDCHAR
STARTCHAR uni0187
ENCODING 391
SWIDTH 562 0
DWIDTH 9 0
BBX 7 13 1 0
BITMAP
06
08
3C
66
C0
C0
C0
C0
C0
C0
C0
66
3C
ENDCHAR
STARTCHAR uni0188
ENCODING 392
SWIDTH 562 0
DWIDTH 9 0
BBX 7 10 1 0
BITMAP
06
08
3C
66
C0
C0
C0
C0
66
3C
ENDCHAR
STARTCHAR uni0189
ENCODING 393
SWIDTH 562 0
DWIDTH 9 0
BBX 8 11 0 0
BITMAP
7C
66
63
63
63
FB
63
63
63
66
7C
ENDCHAR
STARTCHAR uni018A
ENCODING 394
SWIDTH 562 0
DWIDTH 9 0
BBX 8 11 0 0
BITMAP
7C
B6
B3
33
33
33
33
33
33
36
3C
ENDCHAR
STARTCHAR uni018B
ENCODING 395
SWIDTH 562 0
DWIDTH 9 0
BBX 7 11 1 0
BITMAP
7E
06
06
06
06
7E
C6
C6
C6
C6
7E
ENDCHAR
STARTCHAR uni018C
ENCODING 396
SWIDTH 562 0
DWIDTH 9 0
BBX 7 11 1 0
BITMAP
7E
06
06
76
CE
C6
C6
C6
C6
CE
76
ENDCHAR
STARTCHAR uni018D
ENCODING 397
SWIDTH 562 0
DWIDTH 9 0
BBX 7 11 1 0
BITMAP
7C
C6
C6
C6
C6
66
3C
18
0C
0C
78
ENDCHAR
STARTCHAR uni018E
ENCODING 398
SWIDTH 562 0
DWIDTH 9 0
BBX 7 11 1 0
BITMAP
FE
06
06
06
06
7E
06
06
06
06
FE
ENDCHAR
STARTCHAR uni018F
ENCODING 399
SWIDTH 562 0
DWIDTH 9 0
BBX 7 11 1 0
BITMAP
7C
C6
06
06
06
FE
C6
C6
C6
C6
7C
ENDCHAR
STARTCHAR uni0190
ENCODING 400
SWIDTH 562 0
DWIDTH 9 0
BBX 7 11 1 0
BITMAP
7E
C0
C0
C0
C0
7C
C0
C0
C0
C0
7E
ENDCHAR
STARTCHAR uni0191
ENCODING 401
SWIDTH 562 0
DWIDTH 9 0
BBX 8 13 0 -2
BITMAP
3F
30
30
30
30
3E
30
30
30
30
30
30
E0
ENDCHAR
STARTCHAR florin
ENCODING 402
SWIDTH 562 0
DWIDTH 9 0
BBX 8 13 0 -2
BITMAP
1E
33
30
30
7E
30
30
30
30
30
30
30
E0
ENDCHAR
STARTCHAR uni0193
ENCODING 403
SWIDTH 562 0
DWIDTH 9 0
BBX 7 12 1 0
BITMAP
06
3C
66
C0
C0
C0
DE
C6
C6
C6
66
3E
ENDCHAR
STARTCHAR uni0194
ENCODING 404
SWIDTH 562 0
DWIDTH 9 0
BBX 8 11 0 0
BITMAP
C3
66
3C
3C
18
18
3C
3C
66
66
3C
ENDCHAR
STARTCHAR uni0195
ENCODING 405
SWIDTH 562 0
DWIDTH 9 0
BBX 8 11 0 0
BITMAP
C0
C0
C0
F3
DB
DB
DB
DB
DB
DB
CE
ENDCHAR
STARTCHAR uni0196
ENCODING 406
SWIDTH 562 0
DWIDTH 9 0
BBX 4 11 3 0
BITMAP
C0
C0
C0
C0
C0
C0
C0
C0
C0
C0
70
ENDCHAR
STARTCHAR uni0197
ENCODING 407
SWIDTH 562 0
DWIDTH 9 0
BBX 6 11 1 0
BITMAP
FC
30
30
30
30
FC
30
30
30
30
FC
ENDCHAR
STARTCHAR uni0198
ENCODING 408
SWIDTH 562 0
DWIDTH 9 0
BBX 8 11 0 0
BITMAP
C6
CD
D9
F0
E0
C0
E0
F0
D8
CC
C6
ENDCHAR
STARTCHAR uni0199
ENCODING 409
SWIDTH 562 0
DWIDTH 9 0
BBX 7 12 1 0
BITMAP
70
C0
C0
C0
C6
CC
D8
F0
F0
D8
CC
C6
ENDCHAR
STARTCHAR uni019A
ENCODING 410
SWIDTH 562 0
DWIDTH 9 0
BBX 6 11 1 0
BITMAP
70
30
30
30
30
FC
30
30
30
30
1C
ENDCHAR
STARTCHAR uni019B
ENCODING 411
SWIDTH 562 0
DWIDTH 9 0
BBX 8 11 0 0
BITMAP
68
30
30
58
18
3C
3C
66
66
C3
C3
ENDCHAR
STARTCHAR uni019C
ENCODING 412
SWIDTH 562 0
DWIDTH 9 0
BBX 8 11 0 0
BITMAP
DB
DB
DB
DB
DB
DB
DB
DB
DB
DB
6F
ENDCHAR
STARTCHAR uni019D
ENCODING 413
SWIDTH 562 0
DWIDTH 9 0
BBX 8 13 0 -2
BITMAP
63
73
73
7B
7B
6F
6F
67
67
63
63
60
C0
ENDCHAR
STARTCHAR uni019E
ENCODING 414
SWIDTH 562 0
DWIDTH 9 0
BBX 7 11 1 -3
BITMAP
DC
E6
C6
C6
C6
C6
C6
C6
06
06
06
ENDCHAR
STARTCHAR uni019F
ENCODING 415
SWIDTH 562 0
DWIDTH 9 0
BBX 8 11 0 0
BITMAP
3C
66
C3
C3
C3
FF
C3
C3
C3
66
3C
ENDCHAR
STARTCHAR Ohorn
ENCODING 416
SWIDTH 562 0
DWIDTH 9 0
BBX 9 11 0 0
BITMAP
3880
6C80
C700
C600
C600
C600
C600
C600
C600
6C00
3800
ENDCHAR
STARTCHAR ohorn
ENCODING 417
SWIDTH 562 0
DWIDTH 9 0
BBX 9 8 0 0
BITMAP
7C80
C680
C700
C600
C600
C600
C600
7C00
ENDCHAR
STARTCHAR uni01A2
ENCODING 418
SWIDTH 562 0
DWIDTH 9 0
BBX 8 11 0 0
BITMAP
7E
DB
DB
DB
DB
DB
DB
DB
DB
DB
73
ENDCHAR
STARTCHAR uni01A3
ENCODING 419
SWIDTH 562 0
DWIDTH 9 0
BBX 8 11 0 -3
BITMAP
7E
DB
DB
DB
DB
DB
DB
73
03
03
03
ENDCHAR
STARTCHAR uni01A4
ENCODING 420
SWIDTH 562 0
DWIDTH 9 0
BBX 8 11 0 0
BITMAP
7C
B6
B3
33
33
36
3C
30
30
30
30
ENDCHAR
STARTCHAR uni01A5
ENCODING 421
SWIDTH 562 0
DWIDTH 9 0
BBX 7 13 1 -3
BITMAP
70
C0
DC
E6
C6
C6
C6
C6
E6
DC
C0
C0
C0
ENDCHAR
STARTCHAR uni01A6
ENCODING 422
SWIDTH 562 0
DWIDTH 9 0
BBX 7 12 0 -1
BITMAP
C0
C0
FC
C6
C6
C6
FC
E0
F0
D8
CC
06
ENDCHAR
STARTCHAR uni01A7
ENCODING 423
SWIDTH 562 0
DWIDTH 9 0
BBX 7 11 1 0
BITMAP
7C
C6
06
06
0C
38
60
C0
C0
C6
7C
ENDCHAR
STARTCHAR uni01A8
ENCODING 424
SWIDTH 562 0
DWIDTH 9 0
BBX 7 8 1 0
BITMAP
7C
C6
06
1C
70
C0
C6
7C
ENDCHAR
STARTCHAR uni01A9
ENCODING 425
SWIDTH 562 0
DWIDTH 9 0
BBX 7 11 1 0
BITMAP
FE
C0
60
30
18
0C
18
30
60
C0
FE
ENDCHAR
STARTCHAR uni01AA
ENCODING 426
SWIDTH 562 0
DWIDTH 9 0
BBX 8 15 0 -3
BITMAP
70
D8
7C
18
18
18
18
18
18
18
18
18
18
18
0F
ENDCHAR
STARTCHAR uni01AB
ENCODING 427
SWIDTH 562 0
DWIDTH 9 0
BBX 5 14 2 -3
BITMAP
60
60
60
F8
60
60
60
60
60
60
38
18
18
30
ENDCHAR
STARTCHAR uni01AC
ENCODING 428
SWIDTH 562 0
DWIDTH 9 0
BBX 8 11 0 0
BITMAP
7F
98
98
18
18
18
18
18
18
18
18
ENDCHAR
STARTCHAR uni01AD
ENCODING 429
SWIDTH 562 0
DWIDTH 9 0
BBX 5 12 2 0
BITMAP
38
60
60
60
F8
60
60
60
60
60
60
38
ENDCHAR
STARTCHAR uni01AE
ENCODING 430
SWIDTH 562 0
DWIDTH 9 0
BBX 8 13 0 -2
BITMAP
FF
18
18
18
18
18
18
18
18
18
18
18
0E
ENDCHAR
STARTCHAR Uhorn
ENCODING 431
SWIDTH 562 0
DWIDTH 9 0
BBX 8 11 0 0
BITMAP
CD
CD
CE
CC
CC
CC
CC
CC
CC
CC
78
ENDCHAR
STARTCHAR uhorn
ENCODING 432
SWIDTH 562 0
DWIDTH 9 0
BBX 8 8 0 0
BITMAP
CD
CD
CE
CC
CC
CC
CC
78
ENDCHAR
STARTCHAR uni01B1
ENCODING 433
SWIDTH 562 0
DWIDTH 9 0
BBX 8 11 0 0
BITMAP
E7
24
66
C3
C3
C3
C3
C3
C3
66
3C
ENDCHAR
STARTCHAR uni01B2
ENCODING 434
SWIDTH 562 0
DWIDTH 9 0
BBX 7 11 1 0
BITMAP
C0
C0
CC
C6
C6
C6
C6
C6
C6
CC
78
ENDCHAR
STARTCHAR uni01B3
ENCODING 435
SWIDTH 562 0
DWIDTH 9 0
BBX 8 11 0 0
BITMAP
C2
C7
6D
6C
3C
3C
18
18
18
18
18
ENDCHAR
STARTCHAR uni01B4
ENCODING 436
SWIDTH 562 0
DWIDTH 9 0
BBX 8 11 0 -3
BITMAP
C2
C7
65
6C
3C
3C
18
18
18
30
30
ENDCHAR
STARTCHAR uni01B5
ENCODING 437
SWIDTH 562 0
DWIDTH 9 0
BBX 7 11 1 0
BITMAP
FE
06
0C
0C
18
FE
30
30
60
60
FE
ENDCHAR
STARTCHAR uni01B6
ENCODING 438
SWIDTH 562 0
DWIDTH 9 0
BBX 7 8 1 0
BITMAP
FE
06
0C
FE
30
60
C0
FE
ENDCHAR
STARTCHAR uni01B7
ENCODING 439
SWIDTH 562 0
DWIDTH 9 0
BBX 7 11 1 0
BITMAP
FE
06
0C
18
38
0C
06
06
06
CC
78
ENDCHAR
STARTCHAR uni01B8
ENCODING 440
SWIDTH 562 0
DWIDTH 9 0
BBX 7 11 1 0
BITMAP
FE
C0
60
30
38
60
C0
C0
C0
66
3C
ENDCHAR
STARTCHAR uni01B9
ENCODING 441
SWIDTH 562 0
DWIDTH 9 0
BBX 7 11 1 -3
BITMAP
FE
C0
60
30
38
60
C0
C0
C0
66
3C
ENDCHAR
STARTCHAR uni01BA
ENCODING 442
SWIDTH 562 0
DWIDTH 9 0
BBX 7 11 1 -3
BITMAP
FE
06
0C
18
3C
06
06
7C
C0
C0
7C
ENDCHAR
STARTCHAR uni01BB
ENCODING 443
SWIDTH 562 0
DWIDTH 9 0
BBX 7 11 1 0
BITMAP
7C
C6
06
06
0C
FE
30
60
C0
C0
FE
ENDCHAR
STARTCHAR uni01BC
ENCODING 444
SWIDTH 562 0
DWIDTH 9 0
BBX 7 11 1 0
BITMAP
FE
C0
C0
C0
F8
0C
06
06
06
CC
78
ENDCHAR
STARTCHAR uni01BD
ENCODING 445
SWIDTH 562 0
DWIDTH 9 0
BBX 7 11 1 -3
BITMAP
FE
C0
C0
C0
F8
0C
06
06
06
CC
78
ENDCHAR
STARTCHAR uni01BE
ENCODING 446
SWIDTH 562 0
DWIDTH 9 0
BBX 7 11 1 0
BITMAP
30
30
FC
30
30
1C
06
06
06
C6
7C
ENDCHAR
STARTCHAR uni01BF
ENCODING 447
SWIDTH 562 0
DWIDTH 9 0
BBX 7 11 1 -3
BITMAP
DC
E6
C6
C6
C6
CC
D8
F0
C0
C0
C0
ENDCHAR
STARTCHAR uni01C0
ENCODING 448
SWIDTH 562 0
DWIDTH 9 0
BBX 2 14 3 -3
BITMAP
C0
C0
C0
C0
C0
C0
C0
C0
C0
C0
C0
C0
C0
C0
ENDCHAR
STARTCHAR uni01C1
ENCODING 449
SWIDTH 562 0
DWIDTH 9 0
BBX 5 14 2 -3
BITMAP
D8
D8
D8
D8
D8
D8
D8
D8
D8
D8
D8
D8
D8
D8
ENDCHAR
STARTCHAR uni01C2
ENCODING 450
SWIDTH 562 0
DWIDTH 9 0
BBX 6 14 1 -3
BITMAP
30
30
30
30
30
FC
30
30
FC
30
30
30
30
30
ENDCHAR
STARTCHAR uni01C3
ENCODING 451
SWIDTH 562 0
DWIDTH 9 0
BBX 2 11 3 0
BITMAP
C0
C0
C0
C0
C0
C0
C0
00
00
C0
C0
ENDCHAR
STARTCHAR uni01C4
ENCODING 452
SWIDTH 562 0
DWIDTH 9 0
BBX 8 13 0 0
BITMAP
05
02
E0
DF
D3
D3
D3
D6
D6
D6
DC
DC
EF
ENDCHAR
STARTCHAR uni01C5
ENCODING 453
SWIDTH 562 0
DWIDTH 9 0
BBX 8 11 0 0
BITMAP
E5
D2
D0
DF
D3
D3
D6
D6
DC
DC
EF
ENDCHAR
STARTCHAR uni01C6
ENCODING 454
SWIDTH 562 0
DWIDTH 9 0
BBX 8 11 0 0
BITMAP
15
12
10
7F
D3
D3
D6
D6
DC
DC
7F
ENDCHAR
STARTCHAR uni01C7
ENCODING 455
SWIDTH 562 0
DWIDTH 9 0
BBX 8 11 0 0
BITMAP
C7
C3
C3
C3
C3
C3
C3
C3
C3
C3
FE
ENDCHAR
STARTCHAR uni01C8
ENCODING 456
SWIDTH 562 0
DWIDTH 9 0
BBX 8 14 0 -3
BITMAP
C0
C1
C0
C7
C3
C3
C3
C3
C3
C3
FF
03
03
0E
ENDCHAR
STARTCHAR uni01C9
ENCODING 457
SWIDTH 562 0
DWIDTH 9 0
BBX 8 14 0 -3
BITMAP
E0
62
60
67
63
63
63
63
63
63
3B
03
03
0E
ENDCHAR
STARTCHAR uni01CA
ENCODING 458
SWIDTH 562 0
DWIDTH 9 0
BBX 8 11 0 0
BITMAP
9B
9B
DB
DB
FB
FB
FB
DB
DB
CB
CE
ENDCHAR
STARTCHAR uni01CB
ENCODING 459
SWIDTH 562 0
DWIDTH 9 0
BBX 8 14 0 -3
BITMAP
98
9A
D8
DF
FB
FB
FB
DB
DB
CB
CB
03
03
0E
ENDCHAR
STARTCHAR uni01CC
ENCODING 460
SWIDTH 562 0
DWIDTH 9 0
BBX 8 13 0 -3
BITMAP
02
00
B3
DB
DB
DB
DB
DB
DB
DB
03
03
0E
ENDCHAR
STARTCHAR uni01CD
ENCODING 461
SWIDTH 562 0
DWIDTH 9 0
BBX 8 13 0 0
BITMAP
6C
38
10
00
18
18
3C
3C
66
66
FE
C3
C3
ENDCHAR
STARTCHAR uni01CE
ENCODING 462
SWIDTH 562 0
DWIDTH 9 0
BBX 7 12 1 0
BITMAP
6C
38
10
00
7C
C6
06
7E
C6
C6
C6
7E
ENDCHAR
STARTCHAR uni01CF
ENCODING 463
SWIDTH 562 0
DWIDTH 9 0
BBX 6 13 1 0
BITMAP
D8
70
20
00
FC
30
30
30
30
30
30
30
FC
ENDCHAR
STARTCHAR uni01D0
ENCODING 464
SWIDTH 562 0
DWIDTH 9 0
BBX 6 12 2 0
BITMAP
D8
70
20
00
F0
30
30
30
30
30
30
FC
ENDCHAR
STARTCHAR uni01D1
ENCODING 465
SWIDTH 562 0
DWIDTH 9 0
BBX 8 13 0 0
BITMAP
6C
38
10
00
3C
66
C3
C3
C3
C3
C3
66
3C
ENDCHAR
STARTCHAR uni01D2
ENCODING 466
SWIDTH 562 0
DWIDTH 9 0
BBX 7 12 1 0
BITMAP
D8
70
20
00
7C
C6
C6
C6
C6
C6
C6
7C
ENDCHAR
STARTCHAR uni01D3
ENCODING 467
SWIDTH 562 0
DWIDTH 9 0
BBX 7 13 1 0
BITMAP
6C
38
10
00
C6
C6
C6
C6
C6
C6
C6
C6
7C
ENDCHAR
STARTCHAR uni01D4
ENCODING 468
SWIDTH 562 0
DWIDTH 9 0
BBX 7 12 1 0
BITMAP
6C
38
10
00
C6
C6
C6
C6
C6
C6
C6
7C
ENDCHAR
STARTCHAR uni01D5
ENCODING 469
SWIDTH 562 0
DWIDTH 9 0
BBX 7 13 1 0
BITMAP
7C
00
6C
00
C6
C6
C6
C6
C6
C6
C6
C6
7C
ENDCHAR
STARTCHAR uni01D6
ENCODING 470
SWIDTH 562 0
DWIDTH 9 0
BBX 7 12 1 0
BITMAP
7C
00
6C
00
C6
C6
C6
C6
C6
C6
C6
7C
ENDCHAR
STARTCHAR uni01D7
ENCODING 471
SWIDTH 562 0
DWIDTH 9 0
BBX 7 13 1 0
BITMAP
18
30
C6
00
C6
C6
C6
C6
C6
C6
C6
C6
7C
ENDCHAR
STARTCHAR uni01D8
ENCODING 472
SWIDTH 562 0
DWIDTH 9 0
BBX 7 13 1 0
BITMAP
18
18
30
C6
00
C6
C6
C6
C6
C6
C6
C6
7C
ENDCHAR
STARTCHAR uni01D9
ENCODING 473
SWIDTH 562 0
DWIDTH 9 0
BBX 7 13 1 0
BITMAP
6C
38
10
C6
00
C6
C6
C6
C6
C6
C6
C6
7C
ENDCHAR
STARTCHAR uni01DA
ENCODING 474
SWIDTH 562 0
DWIDTH 9 0
BBX 7 12 1 0
BITMAP
6C
38
10
C6
00
C6
C6
C6
C6
C6
C6
7C
ENDCHAR
STARTCHAR uni01DB
ENCODING 475
SWIDTH 562 0
DWIDTH 9 0
BBX 7 13 1 0
BITMAP
30
18
C6
00
C6
C6
C6
C6
C6
C6
C6
C6
7C
ENDCHAR
STARTCHAR uni01DC
ENCODING 476
SWIDTH 562 0
DWIDTH 9 0
BBX 7 13 1 0
BITMAP
30
30
18
C6
00
C6
C6
C6
C6
C6
C6
C6
7C
ENDCHAR
STARTCHAR uni01DD
ENCODING 477
SWIDTH 562 0
DWIDTH 9 0
BBX 7 8 1 0
BITMAP
FC
06
06
FE
C6
C6
C6
7C
ENDCHAR
STARTCHAR uni01DE
ENCODING 478
SWIDTH 562 0
DWIDTH 9 0
BBX 8 13 0 0
BITMAP
7E
00
66
00
18
18
3C
3C
66
66
FE
C3
C3
ENDCHAR
STARTCHAR uni01DF
ENCODING 479
SWIDTH 562 0
DWIDTH 9 0
BBX 7 12 1 0
BITMAP
7C
00
6C
00
7C
C6
06
7E
C6
C6
C6
7E
ENDCHAR
STARTCHAR uni01E0
ENCODING 480
SWIDTH 562 0
DWIDTH 9 0
BBX 8 13 0 0
BITMAP
7E
00
18
00
18
18
3C
3C
66
66
FE
C3
C3
ENDCHAR
STARTCHAR uni01E1
ENCODING 481
SWIDTH 562 0
DWIDTH 9 0
BBX 7 12 1 0
BITMAP
FC
00
30
00
7C
C6
06
7E
C6
C6
C6
7E
ENDCHAR
STARTCHAR uni01E2
ENCODING 482
SWIDTH 562 0
DWIDTH 9 0
BBX 8 13 0 0
BITMAP
3F
00
1F
1C
3C
3C
3C
6F
6C
7C
CC
CC
CF
ENDCHAR
STARTCHAR uni01E3
ENCODING 483
SWIDTH 562 0
DWIDTH 9 0
BBX 8 10 0 0
BITMAP
7E
00
7E
DB
1B
7B
DE
D8
D8
7F
ENDCHAR
STARTCHAR uni01E4
ENCODING 484
SWIDTH 562 0
DWIDTH 9 0
BBX 8 11 0 0
BITMAP
3C
66
C0
C0
C0
DE
C6
DF
C6
66
3E
ENDCHAR
STARTCHAR uni01E5
ENCODING 485
SWIDTH 562 0
DWIDTH 9 0
BBX 8 11 0 -3
BITMAP
76
CE
C6
C6
C6
CE
76
06
1F
C6
7C
ENDCHAR
STARTCHAR Gcaron
ENCODING 486
SWIDTH 562 0
DWIDTH 9 0
BBX 7 13 1 0
BITMAP
6C
38
10
00
3C
66
C0
C0
DE
C6
C6
66
3E
ENDCHAR
STARTCHAR gcaron
ENCODING 487
SWIDTH 562 0
DWIDTH 9 0
BBX 7 15 1 -3
BITMAP
6C
38
10
00
76
CE
C6
C6
C6
C6
CE
76
06
C6
7C
ENDCHAR
STARTCHAR uni01E8
ENCODING 488
SWIDTH 562 0
DWIDTH 9 0
BBX 7 13 1 0
BITMAP
6C
38
10
C6
CC
D8
F0
E0
E0
F0
D8
CC
C6
ENDCHAR
STARTCHAR uni01E9
ENCODING 489
SWIDTH 562 0
DWIDTH 9 0
BBX 7 13 1 0
BITMAP
6C
38
10
C0
C0
C6
CC
D8
F0
F0
D8
CC
C6
ENDCHAR
STARTCHAR uni01EA
ENCODING 490
SWIDTH 562 0
DWIDTH 9 0
BBX 8 14 0 -3
BITMAP
3C
66
C3
C3
C3
C3
C3
C3
C3
66
3C
18
30
1C
ENDCHAR
STARTCHAR uni01EB
ENCODING 491
SWIDTH 562 0
DWIDTH 9 0
BBX 7 11 1 -3
BITMAP
7C
C6
C6
C6
C6
C6
C6
7C
30
60
38
ENDCHAR
STARTCHAR uni01EC
ENCODING 492
SWIDTH 562 0
DWIDTH 9 0
BBX 8 16 0 -3
BITMAP
7E
00
3C
66
C3
C3
C3
C3
C3
C3
C3
66
3C
18
30
1C
ENDCHAR
STARTCHAR uni01ED
ENCODING 493
SWIDTH 562 0
DWIDTH 9 0
BBX 7 13 1 -3
BITMAP
7C
00
7C
C6
C6
C6
C6
C6
C6
7C
30
60
38
ENDCHAR
STARTCHAR uni01EE
ENCODING 494
SWIDTH 562 0
DWIDTH 9 0
BBX 7 13 1 0
BITMAP
6C
38
10
00
FE
06
0C
38
0C
06
06
CC
78
ENDCHAR
STARTCHAR uni01EF
ENCODING 495
SWIDTH 562 0
DWIDTH 9 0
BBX 7 15 1 -3
BITMAP
6C
38
10
00
FE
06
0C
18
38
0C
06
06
06
CC
78
ENDCHAR
STARTCHAR uni01F0
ENCODING 496
SWIDTH 562 0
DWIDTH 9 0
BBX 5 15 2 -3
BITMAP
D8
70
20
00
F0
30
30
30
30
30
30
30
30
30
E0
ENDCHAR
STARTCHAR uni01F1
ENCODING 497
SWIDTH 562 0
DWIDTH 9 0
BBX 8 11 0 0
BITMAP
EF
D3
D3
D3
D6
D6
D6
DC
DC
DC
EF
ENDCHAR
STARTCHAR uni01F2
ENCODING 498
SWIDTH 562 0
DWIDTH 9 0
BBX 8 11 0 0
BITMAP
E0
D0
D0
DF
D3
D3
D6
D6
DC
DC
EF
ENDCHAR
STARTCHAR uni01F3
ENCODING 499
SWIDTH 562 0
DWIDTH 9 0
BBX 8 11 0 0
BITMAP
10
10
10
7F
D3
D3
D6
D6
DC
DC
7F
ENDCHAR
STARTCHAR uni01F4
ENCODING 500
SWIDTH 562 0
DWIDTH 9 0
BBX 7 13 1 0
BITMAP
18
30
00
3C
66
C0
C0
DE
C6
C6
C6
66
3E
ENDCHAR
STARTCHAR uni01F5
ENCODING 501
SWIDTH 562 0
DWIDTH 9 0
BBX 7 15 1 -3
BITMAP
18
18
30
00
76
CE
C6
C6
C6
C6
CE
76
06
C6
7C
ENDCHAR
STARTCHAR uni01F6
ENCODING 502
SWIDTH 562 0
DWIDTH 9 0
BBX 8 11 0 0
BITMAP
D8
D8
DB
DB
DB
FB
DB
DB
DB
DB
CE
ENDCHAR
STARTCHAR uni01F7
ENCODING 503
SWIDTH 562 0
DWIDTH 9 0
BBX 7 14 1 -3
BITMAP
DC
E6
C6
C6
C6
CC
CC
D8
F0
E0
C0
C0
C0
C0
ENDCHAR
STARTCHAR uni01F8
ENCODING 504
SWIDTH 562 0
DWIDTH 9 0
BBX 8 13 0 0
BITMAP
30
18
E3
E3
F3
F3
FB
DB
DF
CF
CF
C7
C7
ENDCHAR
STARTCHAR uni01F9
ENCODING 505
SWIDTH 562 0
DWIDTH 9 0
BBX 7 12 1 0
BITMAP
30
30
18
00
DC
E6
C6
C6
C6
C6
C6
C6
ENDCHAR
STARTCHAR Aringacute
ENCODING 506
SWIDTH 562 0
DWIDTH 9 0
BBX 8 13 0 0
BITMAP
73
DB
76
00
18
18
3C
3C
66
66
FF
C3
C3
ENDCHAR
STARTCHAR aringacute
ENCODING 507
SWIDTH 562 0
DWIDTH 9 0
BBX 8 12 0 0
BITMAP
73
DB
76
00
3E
63
03
3F
63
63
63
3F
ENDCHAR
STARTCHAR AEacute
ENCODING 508
SWIDTH 562 0
DWIDTH 9 0
BBX 8 13 0 0
BITMAP
0C
18
00
1F
1C
3C
3C
3F
6C
6C
7C
CC
CF
ENDCHAR
STARTCHAR aeacute
ENCODING 509
SWIDTH 562 0
DWIDTH 9 0
BBX 8 12 0 0
BITMAP
0C
0C
18
00
7E
DB
1B
7B
DE
D8
D8
7F
ENDCHAR
STARTCHAR Oslashacute
ENCODING 510
SWIDTH 562 0
DWIDTH 9 0
BBX 8 13 0 0
BITMAP
0C
18
00
18
3D
66
66
6E
76
66
66
BC
18
ENDCHAR
STARTCHAR oslashacute
ENCODING 511
SWIDTH 562 0
DWIDTH 9 0
BBX 8 12 0 0
BITMAP
0C
0C
18
00
3D
66
66
6E
76
66
66
BC
ENDCHAR
STARTCHAR uni0200
ENCODING 512
SWIDTH 562 0
DWIDTH 9 0
BBX 8 13 0 0
BITMAP
6C
36
00
18
18
3C
3C
3C
66
66
7E
C3
C3
ENDCHAR
STARTCHAR uni0201
ENCODING 513
SWIDTH 562 0
DWIDTH 9 0
BBX 7 12 1 0
BITMAP
D8
D8
6C
00
7C
C6
06
7E
C6
C6
C6
7E
ENDCHAR
STARTCHAR uni0202
ENCODING 514
SWIDTH 562 0
DWIDTH 9 0
BBX 8 13 0 0
BITMAP
3C
66
00
18
18
3C
3C
3C
66
66
7E
C3
C3
ENDCHAR
STARTCHAR uni0203
ENCODING 515
SWIDTH 562 0
DWIDTH 9 0
BBX 7 11 1 0
BITMAP
38
6C
00
7C
C6
06
7E
C6
C6
C6
7E
ENDCHAR
STARTCHAR uni0204
ENCODING 516
SWIDTH 562 0
DWIDTH 9 0
BBX 7 13 1 0
BITMAP
D8
6C
00
FE
C0
C0
C0
FC
C0
C0
C0
C0
FE
ENDCHAR
STARTCHAR uni0205
ENCODING 517
SWIDTH 562 0
DWIDTH 9 0
BBX 7 12 1 0
BITMAP
D8
D8
6C
00
7C
C6
C6
C6
FE
C0
C0
7E
ENDCHAR
STARTCHAR uni0206
ENCODING 518
SWIDTH 562 0
DWIDTH 9 0
BBX 7 13 1 0
BITMAP
38
6C
00
FE
C0
C0
C0
FC
C0
C0
C0
C0
FE
ENDCHAR
STARTCHAR uni0207
ENCODING 519
SWIDTH 562 0
DWIDTH 9 0
BBX 7 11 1 0
BITMAP
38
6C
00
7C
C6
C6
C6
FE
C0
C0
7E
ENDCHAR
STARTCHAR uni0208
ENCODING 520
SWIDTH 562 0
DWIDTH 9 0
BBX 6 13 1 0
BITMAP
D8
6C
00
FC
30
30
30
30
30
30
30
30
FC
ENDCHAR
STARTCHAR uni0209
ENCODING 521
SWIDTH 562 0
DWIDTH 9 0
BBX 7 12 1 0
BITMAP
D8
D8
6C
00
78
18
18
18
18
18
18
7E
ENDCHAR
STARTCHAR uni020A
ENCODING 522
SWIDTH 562 0
DWIDTH 9 0
BBX 6 13 1 0
BITMAP
78
CC
00
FC
30
30
30
30
30
30
30
30
FC
ENDCHAR
STARTCHAR uni020B
ENCODING 523
SWIDTH 562 0
DWIDTH 9 0
BBX 6 11 2 0
BITMAP
70
D8
00
F0
30
30
30
30
30
30
FC
ENDCHAR
STARTCHAR uni020C
ENCODING 524
SWIDTH 562 0
DWIDTH 9 0
BBX 8 13 0 0
BITMAP
6C
36
00
3C
66
C3
C3
C3
C3
C3
C3
66
3C
ENDCHAR
STARTCHAR uni020D
ENCODING 525
SWIDTH 562 0
DWIDTH 9 0
BBX 7 12 1 0
BITMAP
D8
D8
6C
00
7C
C6
C6
C6
C6
C6
C6
7C
ENDCHAR
STARTCHAR uni020E
ENCODING 526
SWIDTH 562 0
DWIDTH 9 0
BBX 8 13 0 0
BITMAP
3C
66
00
3C
66
C3
C3
C3
C3
C3
C3
66
3C
ENDCHAR
STARTCHAR uni020F
ENCODING 527
SWIDTH 562 0
DWIDTH 9 0
BBX 7 11 1 0
BITMAP
38
6C
00
7C
C6
C6
C6
C6
C6
C6
7C
ENDCHAR
STARTCHAR uni0210
ENCODING 528
SWIDTH 562 0
DWIDTH 9 0
BBX 7 13 1 0
BITMAP
D8
6C
00
FC
C6
C6
C6
FC
E0
F0
D8
CC
C6
ENDCHAR
STARTCHAR uni0211
ENCODING 529
SWIDTH 562 0
DWIDTH 9 0
BBX 7 12 1 0
BITMAP
D8
D8
6C
00
DC
E6
C0
C0
C0
C0
C0
C0
ENDCHAR
STARTCHAR uni0212
ENCODING 530
SWIDTH 562 0
DWIDTH 9 0
BBX 7 13 1 0
BITMAP
38
6C
00
FC
C6
C6
C6
FC
E0
F0
D8
CC
C6
ENDCHAR
STARTCHAR uni0213
ENCODING 531
SWIDTH 562 0
DWIDTH 9 0
BBX 7 11 1 0
BITMAP
38
6C
00
DC
E6
C0
C0
C0
C0
C0
C0
ENDCHAR
STARTCHAR uni0214
ENCODING 532
SWIDTH 562 0
DWIDTH 9 0
BBX 7 13 1 0
BITMAP
D8
6C
00
C6
C6
C6
C6
C6
C6
C6
C6
C6
7C
ENDCHAR
STARTCHAR uni0215
ENCODING 533
SWIDTH 562 0
DWIDTH 9 0
BBX 7 12 1 0
BITMAP
D8
D8
6C
00
C6
C6
C6
C6
C6
C6
C6
7C
ENDCHAR
STARTCHAR uni0216
ENCODING 534
SWIDTH 562 0
DWIDTH 9 0
BBX 7 13 1 0
BITMAP
38
6C
00
C6
C6
C6
C6
C6
C6
C6
C6
C6
7C
ENDCHAR
STARTCHAR uni0217
ENCODING 535
SWIDTH 562 0
DWIDTH 9 0
BBX 7 11 1 0
BITMAP
38
6C
00
C6
C6
C6
C6
C6
C6
C6
7C
ENDCHAR
STARTCHAR Scommaaccent
ENCODING 536
SWIDTH 562 0
DWIDTH 9 0
BBX 7 14 1 -3
BITMAP
7C
C6
C0
C0
60
38
0C
06
06
C6
7C
00
18
30
ENDCHAR
STARTCHAR scommaaccent
ENCODING 537
SWIDTH 562 0
DWIDTH 9 0
BBX 7 11 1 -3
BITMAP
7C
C6
C0
70
1C
06
C6
7C
00
18
30
ENDCHAR
STARTCHAR uni021A
ENCODING 538
SWIDTH 562 0
DWIDTH 9 0
BBX 8 14 0 -3
BITMAP
FF
18
18
18
18
18
18
18
18
18
18
00
18
30
ENDCHAR
STARTCHAR uni021B
ENCODING 539
SWIDTH 562 0
DWIDTH 9 0
BBX 5 14 2 -3
BITMAP
60
60
60
F8
60
60
60
60
60
60
38
00
30
60
ENDCHAR
STARTCHAR uni021C
ENCODING 540
SWIDTH 562 0
DWIDTH 9 0
BBX 7 14 1 -3
BITMAP
7C
C6
06
06
0C
18
3C
66
06
06
06
0C
38
E0
ENDCHAR
STARTCHAR uni021D
ENCODING 541
SWIDTH 562 0
DWIDTH 9 0
BBX 7 11 1 -3
BITMAP
7C
C6
06
06
1C
76
06
06
0C
38
E0
ENDCHAR
STARTCHAR uni021E
ENCODING 542
SWIDTH 562 0
DWIDTH 9 0
BBX 7 13 1 0
BITMAP
6C
38
10
C6
C6
C6
C6
FE
C6
C6
C6
C6
C6
ENDCHAR
STARTCHAR uni021F
ENCODING 543
SWIDTH 562 0
DWIDTH 9 0
BBX 7 13 1 0
BITMAP
6C
38
10
C0
C0
DC
E6
C6
C6
C6
C6
C6
C6
ENDCHAR
STARTCHAR uni0220
ENCODING 544
SWIDTH 562 0
DWIDTH 9 0
BBX 7 14 1 -3
BITMAP
DC
E6
C6
C6
C6
C6
C6
C6
C6
C6
C6
06
06
06
ENDCHAR
STARTCHAR uni0221
ENCODING 545
SWIDTH 562 0
DWIDTH 9 0
BBX 8 12 0 -1
BITMAP
0C
0C
0C
6C
DC
CC
CC
CC
CE
DD
6E
04
ENDCHAR
STARTCHAR uni0222
ENCODING 546
SWIDTH 562 0
DWIDTH 9 0
BBX 7 11 1 0
BITMAP
0C
66
C6
C6
7C
C6
C6
C6
C6
C6
7C
ENDCHAR
STARTCHAR uni0223
ENCODING 547
SWIDTH 562 0
DWIDTH 9 0
BBX 7 8 1 0
BITMAP
6C
C6
C6
7C
C6
C6
C6
7C
ENDCHAR
STARTCHAR uni0224
ENCODING 548
SWIDTH 562 0
DWIDTH 9 0
BBX 7 13 1 -2
BITMAP
FE
06
0C
0C
18
18
30
30
60
60
FE
06
1C
ENDCHAR
STARTCHAR uni0225
ENCODING 549
SWIDTH 562 0
DWIDTH 9 0
BBX 7 10 1 -2
BITMAP
FE
06
0C
18
30
60
C0
FE
06
1C
ENDCHAR
STARTCHAR uni0226
ENCODING 550
SWIDTH 562 0
DWIDTH 9 0
BBX 8 13 0 0
BITMAP
18
00
18
18
3C
3C
3C
66
66
7E
C3
C3
C3
ENDCHAR
STARTCHAR uni0227
ENCODING 551
SWIDTH 562 0
DWIDTH 9 0
BBX 7 10 1 0
BITMAP
30
00
7C
C6
06
7E
C6
C6
C6
7E
ENDCHAR
STARTCHAR uni0228
ENCODING 552
SWIDTH 562 0
DWIDTH 9 0
BBX 7 14 1 -3
BITMAP
FE
C0
C0
C0
C0
FC
C0
C0
C0
C0
FE
18
0C
38
ENDCHAR
STARTCHAR uni0229
ENCODING 553
SWIDTH 562 0
DWIDTH 9 0
BBX 7 11 1 -3
BITMAP
7C
C6
C6
C6
FE
C0
C0
7E
18
0C
38
ENDCHAR
STARTCHAR uni022A
ENCODING 554
SWIDTH 562 0
DWIDTH 9 0
BBX 8 13 0 0
BITMAP
7E
00
66
00
3C
66
C3
C3
C3
C3
C3
66
3C
ENDCHAR
STARTCHAR uni022B
ENCODING 555
SWIDTH 562 0
DWIDTH 9 0
BBX 7 12 1 0
BITMAP
7C
00
6C
00
7C
C6
C6
C6
C6
C6
C6
7C
ENDCHAR
STARTCHAR uni022C
ENCODING 556
SWIDTH 562 0
DWIDTH 9 0
BBX 8 13 0 0
BITMAP
7E
00
3B
6E
00
3C
66
C3
C3
C3
C3
66
3C
ENDCHAR
STARTCHAR uni022D
ENCODING 557
SWIDTH 562 0
DWIDTH 9 0
BBX 7 12 1 0
BITMAP
7C
00
76
DC
00
7C
C6
C6
C6
C6
C6
7C
ENDCHAR
STARTCHAR uni022E
ENCODING 558
SWIDTH 562 0
DWIDTH 9 0
BBX 8 13 0 0
BITMAP
18
00
3C
66
C3
C3
C3
C3
C3
C3
C3
66
3C
ENDCHAR
STARTCHAR uni022F
ENCODING 559
SWIDTH 562 0
DWIDTH 9 0
BBX 7 10 1 0
BITMAP
30
00
7C
C6
C6
C6
C6
C6
C6
7C
ENDCHAR
STARTCHAR uni0230
ENCODING 560
SWIDTH 562 0
DWIDTH 9 0
BBX 8 13 0 0
BITMAP
7E
00
18
00
3C
66
C3
C3
C3
C3
C3
66
3C
ENDCHAR
STARTCHAR uni0231
ENCODING 561
SWIDTH 562 0
DWIDTH 9 0
BBX 7 12 1 0
BITMAP
7C
00
30
00
7C
C6
C6
C6
C6
C6
C6
7C
ENDCHAR
STARTCHAR uni0232
ENCODING 562
SWIDTH 562 0
DWIDTH 9 0
BBX 8 13 0 0
BITMAP
7E
00
C3
C3
66
66
3C
3C
18
18
18
18
18
ENDCHAR
STARTCHAR uni0233
ENCODING 563
SWIDTH 562 0
DWIDTH 9 0
BBX 7 13 1 -3
BITMAP
7C
00
C6
C6
66
6C
3C
3C
18
18
18
30
30
ENDCHAR
STARTCHAR uni0234
ENCODING 564
SWIDTH 562 0
DWIDTH 9 0
BBX 6 12 1 -1
BITMAP
E0
60
60
60
60
60
60
60
78
74
38
10
ENDCHAR
STARTCHAR uni0235
ENCODING 565
SWIDTH 562 0
DWIDTH 9 0
BBX 8 9 0 -1
BITMAP
D8
EC
CC
CC
CC
CE
CD
CE
04
ENDCHAR
STARTCHAR uni0236
ENCODING 566
SWIDTH 562 0
DWIDTH 9 0
BBX 7 12 0 -1
BITMAP
60
60
60
FC
60
60
60
60
6C
7A
3C
08
ENDCHAR
STARTCHAR uni0237
ENCODING 567
SWIDTH 562 0
DWIDTH 9 0
BBX 4 11 2 -3
BITMAP
F0
30
30
30
30
30
30
30
30
30
E0
ENDCHAR
STARTCHAR uni0238
ENCODING 568
SWIDTH 562 0
DWIDTH 9 0
BBX 8 11 0 0
BITMAP
18
18
18
7C
DB
DB
DB
DB
DB
DB
66
ENDCHAR
STARTCHAR uni0239
ENCODING 569
SWIDTH 562 0
DWIDTH 9 0
BBX 8 11 0 -3
BITMAP
66
DB
DB
DB
DB
DB
DB
7E
18
18
18
ENDCHAR
STARTCHAR uni023A
ENCODING 570
SWIDTH 562 0
DWIDTH 9 0
BBX 8 11 0 0
BITMAP
08
08
1D
1E
1C
36
36
3E
63
E3
63
ENDCHAR
STARTCHAR uni023B
ENCODING 571
SWIDTH 562 0
DWIDTH 9 0
BBX 8 12 0 0
BITMAP
01
3E
63
64
64
68
70
70
60
60
63
BE
ENDCHAR
STARTCHAR uni023C
ENCODING 572
SWIDTH 562 0
DWIDTH 9 0
BBX 7 9 1 0
BITMAP
02
3C
66
C8
D0
E0
C0
66
BC
ENDCHAR
STARTCHAR uni023D
ENCODING 573
SWIDTH 562 0
DWIDTH 9 0
BBX 8 11 0 0
BITMAP
60
60
60
60
60
F0
60
60
60
60
7F
ENDCHAR
STARTCHAR uni023E
ENCODING 574
SWIDTH 562 0
DWIDTH 9 0
BBX 8 11 0 0
BITMAP
FF
1A
1C
1C
18
18
18
38
58
58
98
ENDCHAR
STARTCHAR uni023F
ENCODING 575
SWIDTH 562 0
DWIDTH 9 0
BBX 7 11 1 -3
BITMAP
7C
C6
C0
70
1C
06
C6
7C
30
18
0E
ENDCHAR
STARTCHAR uni0240
ENCODING 576
SWIDTH 562 0
DWIDTH 9 0
BBX 7 11 1 -3
BITMAP
FE
06
0C
18
30
60
C0
E0
30
18
0E
ENDCHAR
STARTCHAR uni0241
ENCODING 577
SWIDTH 562 0
DWIDTH 9 0
BBX 7 11 1 0
BITMAP
7C
C6
06
06
06
1C
30
30
30
30
30
ENDCHAR
STARTCHAR uni0242
ENCODING 578
SWIDTH 562 0
DWIDTH 9 0
BBX 7 8 1 0
BITMAP
7C
C6
06
06
1C
30
30
30
ENDCHAR
STARTCHAR uni0243
ENCODING 579
SWIDTH 562 0
DWIDTH 9 0
BBX 8 11 0 0
BITMAP
7E
63
63
63
63
7E
63
FB
63
63
7E
ENDCHAR
STARTCHAR uni0244
ENCODING 580
SWIDTH 562 0
DWIDTH 9 0
BBX 8 11 0 0
BITMAP
66
66
66
66
66
FF
66
66
66
66
3C
ENDCHAR
STARTCHAR uni0245
ENCODING 581
SWIDTH 562 0
DWIDTH 9 0
BBX 8 11 0 0
BITMAP
18
18
3C
3C
3C
66
66
66
C3
C3
C3
ENDCHAR
STARTCHAR uni0246
ENCODING 582
SWIDTH 562 0
DWIDTH 9 0
BBX 7 13 1 -1
BITMAP
02
FE
C4
C8
C8
D0
FC
E0
E0
C0
C0
FE
80
ENDCHAR
STARTCHAR uni0247
ENCODING 583
SWIDTH 562 0
DWIDTH 9 0
BBX 8 9 0 0
BITMAP
01
3E
67
6B
73
7F
60
60
BF
ENDCHAR
STARTCHAR uni0248
ENCODING 584
SWIDTH 562 0
DWIDTH 9 0
BBX 6 11 2 0
BITMAP
3C
18
18
18
18
3C
18
18
18
18
F0
ENDCHAR
STARTCHAR uni0249
ENCODING 585
SWIDTH 562 0
DWIDTH 9 0
BBX 5 13 2 -3
BITMAP
30
00
F0
30
30
30
78
30
30
30
30
30
E0
ENDCHAR
STARTCHAR uni024A
ENCODING 586
SWIDTH 562 0
DWIDTH 9 0
BBX 9 14 0 -3
BITMAP
7600
CE00
C600
C600
C600
C600
C600
C600
C600
CE00
7600
0600
0600
0380
ENDCHAR
STARTCHAR uni024B
ENCODING 587
SWIDTH 562 0
DWIDTH 9 0
BBX 9 11 0 -3
BITMAP
7600
CE00
C600
C600
C600
C600
CE00
7600
0600
0600
0380
ENDCHAR
STARTCHAR uni024C
ENCODING 588
SWIDTH 562 0
DWIDTH 9 0
BBX 8 11 0 0
BITMAP
7E
63
63
63
63
FE
70
78
6C
66
63
ENDCHAR
STARTCHAR uni024D
ENCODING 589
SWIDTH 562 0
DWIDTH 9 0
BBX 8 8 0 0
BITMAP
6E
73
60
60
F0
60
60
60
ENDCHAR
STARTCHAR uni024E
ENCODING 590
SWIDTH 562 0
DWIDTH 9 0
BBX 8 11 0 0
BITMAP
C3
C3
66
FF
3C
3C
18
18
18
18
18
ENDCHAR
STARTCHAR uni024F
ENCODING 591
SWIDTH 562 0
DWIDTH 9 0
BBX 7 11 1 -3
BITMAP
C6
C6
66
6C
FE
3C
18
18
18
30
30
ENDCHAR
STARTCHAR uni0250
ENCODING 592
SWIDTH 562 0
DWIDTH 9 0
BBX 7 8 1 0
BITMAP
FC
C6
C6
C6
FC
C0
C6
7C
ENDCHAR
STARTCHAR uni0251
ENCODING 593
SWIDTH 562 0
DWIDTH 9 0
BBX 7 8 1 0
BITMAP
76
CE
C6
C6
C6
C6
CE
76
ENDCHAR
STARTCHAR uni0252
ENCODING 594
SWIDTH 562 0
DWIDTH 9 0
BBX 7 8 1 0
BITMAP
DC
E6
C6
C6
C6
C6
E6
DC
ENDCHAR
STARTCHAR uni0253
ENCODING 595
SWIDTH 562 0
DWIDTH 9 0
BBX 7 11 1 0
BITMAP
70
C0
C0
DC
E6
C6
C6
C6
C6
E6
DC
ENDCHAR
STARTCHAR uni0254
ENCODING 596
SWIDTH 562 0
DWIDTH 9 0
BBX 7 8 1 0
BITMAP
78
CC
06
06
06
06
CC
78
ENDCHAR
STARTCHAR uni0255
ENCODING 597
SWIDTH 562 0
DWIDTH 9 0
BBX 7 9 1 -1
BITMAP
3C
66
C0
C0
C0
CC
7A
3C
08
ENDCHAR
STARTCHAR uni0256
ENCODING 598
SWIDTH 562 0
DWIDTH 9 0
BBX 9 13 0 -2
BITMAP
0600
0600
0600
7600
CE00
C600
C600
C600
C600
CE00
7600
0600
0380
ENDCHAR
STARTCHAR uni0257
ENCODING 599
SWIDTH 562 0
DWIDTH 9 0
BBX 9 11 0 0
BITMAP
0380
0600
0600
7600
CE00
C600
C600
C600
C600
CE00
7600
ENDCHAR
STARTCHAR uni0258
ENCODING 600
SWIDTH 562 0
DWIDTH 9 0
BBX 7 8 1 0
BITMAP
7C
C6
C6
C6
FE
06
06
FC
ENDCHAR
STARTCHAR uni0259
ENCODING 601
SWIDTH 562 0
DWIDTH 9 0
BBX 7 8 1 0
BITMAP
FC
06
06
FE
C6
C6
C6
7C
ENDCHAR
STARTCHAR uni025A
ENCODING 602
SWIDTH 562 0
DWIDTH 9 0
BBX 9 8 0 0
BITMAP
7000
1B00
0F00
1D80
7C00
CC00
6C00
3800
ENDCHAR
STARTCHAR uni025B
ENCODING 603
SWIDTH 562 0
DWIDTH 9 0
BBX 7 8 1 0
BITMAP
7E
C0
C0
7C
C0
C0
C0
7E
ENDCHAR
STARTCHAR uni025C
ENCODING 604
SWIDTH 562 0
DWIDTH 9 0
BBX 7 8 1 0
BITMAP
FC
06
06
7C
06
06
06
FC
ENDCHAR
STARTCHAR uni025D
ENCODING 605
SWIDTH 562 0
DWIDTH 9 0
BBX 9 8 0 0
BITMAP
FD00
0700
0680
7C00
0600
0600
0600
FC00
ENDCHAR
STARTCHAR uni025E
ENCODING 606
SWIDTH 562 0
DWIDTH 9 0
BBX 7 8 1 0
BITMAP
7C
C6
C6
DC
C6
C6
C6
7C
ENDCHAR
STARTCHAR uni025F
ENCODING 607
SWIDTH 562 0
DWIDTH 9 0
BBX 5 11 2 -3
BITMAP
F0
30
30
30
30
78
30
30
30
30
E0
ENDCHAR
STARTCHAR uni0260
ENCODING 608
SWIDTH 562 0
DWIDTH 9 0
BBX 9 12 0 -3
BITMAP
0380
7600
CE00
C600
C600
C600
C600
CE00
7600
0600
C600
7C00
ENDCHAR
STARTCHAR uni0261
ENCODING 609
SWIDTH 562 0
DWIDTH 9 0
BBX 7 11 1 -3
BITMAP
7E
C6
C6
C6
C6
C6
CE
76
06
C6
7C
ENDCHAR
STARTCHAR uni0262
ENCODING 610
SWIDTH 562 0
DWIDTH 9 0
BBX 7 8 1 0
BITMAP
3C
66
C0
C0
DE
C6
66
3E
ENDCHAR
STARTCHAR uni0263
ENCODING 611
SWIDTH 562 0
DWIDTH 9 0
BBX 8 11 0 -3
BITMAP
C3
66
3C
3C
18
18
3C
3C
66
66
3C
ENDCHAR
STARTCHAR uni0264
ENCODING 612
SWIDTH 562 0
DWIDTH 9 0
BBX 8 8 0 0
BITMAP
C3
66
3C
18
3C
66
66
3C
ENDCHAR
STARTCHAR uni0265
ENCODING 613
SWIDTH 562 0
DWIDTH 9 0
BBX 7 11 1 0
BITMAP
C6
C6
C6
C6
C6
C6
CE
76
06
06
06
ENDCHAR
STARTCHAR uni0266
ENCODING 614
SWIDTH 562 0
DWIDTH 9 0
BBX 7 12 1 0
BITMAP
70
C0
C0
C0
DC
E6
C6
C6
C6
C6
C6
C6
ENDCHAR
STARTCHAR uni0267
ENCODING 615
SWIDTH 562 0
DWIDTH 9 0
BBX 7 13 1 -1
BITMAP
70
C0
C0
C0
DC
E6
C6
C6
C6
C6
C6
C6
1C
ENDCHAR
STARTCHAR uni0268
ENCODING 616
SWIDTH 562 0
DWIDTH 9 0
BBX 6 10 2 0
BITMAP
30
00
F0
30
30
30
78
30
30
FC
ENDCHAR
STARTCHAR uni0269
ENCODING 617
SWIDTH 562 0
DWIDTH 9 0
BBX 5 8 3 0
BITMAP
E0
60
60
60
60
60
60
38
ENDCHAR
STARTCHAR uni026A
ENCODING 618
SWIDTH 562 0
DWIDTH 9 0
BBX 6 8 1 0
BITMAP
FC
30
30
30
30
30
30
FC
ENDCHAR
STARTCHAR uni026B
ENCODING 619
SWIDTH 562 0
DWIDTH 9 0
BBX 8 11 0 0
BITMAP
38
18
18
18
18
7B
DE
18
18
18
0E
ENDCHAR
STARTCHAR uni026C
ENCODING 620
SWIDTH 562 0
DWIDTH 9 0
BBX 6 11 1 0
BITMAP
70
30
30
30
70
B0
7C
30
30
30
1C
ENDCHAR
STARTCHAR uni026D
ENCODING 621
SWIDTH 562 0
DWIDTH 9 0
BBX 5 13 2 -2
BITMAP
E0
60
60
60
60
60
60
60
60
60
60
60
38
ENDCHAR
STARTCHAR uni026E
ENCODING 622
SWIDTH 562 0
DWIDTH 9 0
BBX 8 14 0 -3
BITMAP
E0
60
60
7F
63
66
6C
7C
66
63
3B
03
36
1C
ENDCHAR
STARTCHAR uni026F
ENCODING 623
SWIDTH 562 0
DWIDTH 9 0
BBX 8 8 0 0
BITMAP
DB
DB
DB
DB
DB
DB
DB
6F
ENDCHAR
STARTCHAR uni0270
ENCODING 624
SWIDTH 562 0
DWIDTH 9 0
BBX 8 11 0 -3
BITMAP
DB
DB
DB
DB
DB
DB
DB
6F
03
03
03
ENDCHAR
STARTCHAR uni0271
ENCODING 625
SWIDTH 562 0
DWIDTH 9 0
BBX 8 11 0 -3
BITMAP
EE
DB
DB
DB
DB
DB
DB
DB
03
03
0E
ENDCHAR
STARTCHAR uni0272
ENCODING 626
SWIDTH 562 0
DWIDTH 9 0
BBX 8 11 0 -3
BITMAP
36
3B
33
33
33
33
33
33
30
30
E0
ENDCHAR
STARTCHAR uni0273
ENCODING 627
SWIDTH 562 0
DWIDTH 9 0
BBX 9 11 0 -3
BITMAP
DC00
E600
C600
C600
C600
C600
C600
C600
0600
0600
0380
ENDCHAR
STARTCHAR uni0274
ENCODING 628
SWIDTH 562 0
DWIDTH 9 0
BBX 8 8 0 0
BITMAP
C3
E3
F3
FB
DF
CF
C7
C3
ENDCHAR
STARTCHAR uni0275
ENCODING 629
SWIDTH 562 0
DWIDTH 9 0
BBX 7 8 1 0
BITMAP
7C
C6
C6
FE
C6
C6
C6
7C
ENDCHAR
STARTCHAR uni0276
ENCODING 630
SWIDTH 562 0
DWIDTH 9 0
BBX 8 8 0 0
BITMAP
7F
D8
D8
DF
D8
D8
D8
7F
ENDCHAR
STARTCHAR uni0277
ENCODING 631
SWIDTH 562 0
DWIDTH 9 0
BBX 8 8 0 0
BITMAP
3C
66
C3
C3
DB
DB
DB
66
ENDCHAR
STARTCHAR uni0278
ENCODING 632
SWIDTH 562 0
DWIDTH 9 0
BBX 8 14 0 -3
BITMAP
18
18
18
3C
7E
DB
DB
DB
DB
7E
3C
18
18
18
ENDCHAR
STARTCHAR uni0279
ENCODING 633
SWIDTH 562 0
DWIDTH 9 0
BBX 7 8 1 0
BITMAP
06
06
06
06
06
06
CE
76
ENDCHAR
STARTCHAR uni027A
ENCODING 634
SWIDTH 562 0
DWIDTH 9 0
BBX 7 11 1 0
BITMAP
06
06
06
06
06
06
06
06
06
CE
76
ENDCHAR
STARTCHAR uni027B
ENCODING 635
SWIDTH 562 0
DWIDTH 9 0
BBX 9 11 0 -3
BITMAP
0600
0600
0600
0600
0600
0600
CE00
7600
0600
0600
0380
ENDCHAR
STARTCHAR uni027C
ENCODING 636
SWIDTH 562 0
DWIDTH 9 0
BBX 7 11 1 -3
BITMAP
DC
E6
C0
C0
C0
C0
C0
C0
C0
C0
C0
ENDCHAR
STARTCHAR uni027D
ENCODING 637
SWIDTH 562 0
DWIDTH 9 0
BBX 7 11 1 -3
BITMAP
DC
E6
C0
C0
C0
C0
C0
C0
C0
C0
70
ENDCHAR
STARTCHAR uni027E
ENCODING 638
SWIDTH 562 0
DWIDTH 9 0
BBX 7 8 1 0
BITMAP
3E
60
60
60
60
60
60
F0
ENDCHAR
STARTCHAR uni027F
ENCODING 639
SWIDTH 562 0
DWIDTH 9 0
BBX 7 8 1 0
BITMAP
F8
0C
0C
0C
0C
0C
0C
1E
ENDCHAR
STARTCHAR uni0280
ENCODING 640
SWIDTH 562 0
DWIDTH 9 0
BBX 7 8 1 0
BITMAP
FC
C6
C6
C6
FC
D8
CC
C6
ENDCHAR
STARTCHAR uni0281
ENCODING 641
SWIDTH 562 0
DWIDTH 9 0
BBX 7 8 1 0
BITMAP
C6
CC
D8
FC
C6
C6
C6
FC
ENDCHAR
STARTCHAR uni0282
ENCODING 642
SWIDTH 562 0
DWIDTH 9 0
BBX 7 11 1 -3
BITMAP
7C
C6
C0
70
1C
06
C6
FC
C0
C0
70
ENDCHAR
STARTCHAR uni0283
ENCODING 643
SWIDTH 562 0
DWIDTH 9 0
BBX 6 14 1 -3
BITMAP
1C
30
30
30
30
30
30
30
30
30
30
30
30
E0
ENDCHAR
STARTCHAR uni0284
ENCODING 644
SWIDTH 562 0
DWIDTH 9 0
BBX 6 14 2 -3
BITMAP
1C
30
30
F0
30
30
30
FC
30
30
30
30
30
E0
ENDCHAR
STARTCHAR uni0285
ENCODING 645
SWIDTH 562 0
DWIDTH 9 0
BBX 6 11 1 -3
BITMAP
E0
30
30
30
30
30
30
30
30
30
1C
ENDCHAR
STARTCHAR uni0286
ENCODING 646
SWIDTH 562 0
DWIDTH 9 0
BBX 6 14 1 -3
BITMAP
1C
30
30
30
30
30
30
30
30
30
30
78
A0
40
ENDCHAR
STARTCHAR uni0287
ENCODING 647
SWIDTH 562 0
DWIDTH 9 0
BBX 5 11 2 0
BITMAP
E0
30
30
30
30
30
30
F8
30
30
30
ENDCHAR
STARTCHAR uni0288
ENCODING 648
SWIDTH 562 0
DWIDTH 9 0
BBX 5 14 2 -3
BITMAP
60
60
60
F8
60
60
60
60
60
60
60
60
60
38
ENDCHAR
STARTCHAR uni0289
ENCODING 649
SWIDTH 562 0
DWIDTH 9 0
BBX 8 8 0 0
BITMAP
66
66
66
66
FF
66
66
3C
ENDCHAR
STARTCHAR uni028A
ENCODING 650
SWIDTH 562 0
DWIDTH 9 0
BBX 8 8 0 0
BITMAP
E7
24
66
C3
C3
C3
66
3C
ENDCHAR
STARTCHAR uni028B
ENCODING 651
SWIDTH 562 0
DWIDTH 9 0
BBX 7 8 1 0
BITMAP
CC
C6
C6
C6
C6
C6
CC
78
ENDCHAR
STARTCHAR uni028C
ENCODING 652
SWIDTH 562 0
DWIDTH 9 0
BBX 8 8 0 0
BITMAP
18
18
3C
3C
66
66
C3
C3
ENDCHAR
STARTCHAR uni028D
ENCODING 653
SWIDTH 562 0
DWIDTH 9 0
BBX 8 8 0 0
BITMAP
C3
E7
FF
FF
DB
C3
C3
C3
ENDCHAR
STARTCHAR uni028E
ENCODING 654
SWIDTH 562 0
DWIDTH 9 0
BBX 7 11 1 0
BITMAP
30
30
18
18
18
3C
3C
6C
66
C6
C6
ENDCHAR
STARTCHAR uni028F
ENCODING 655
SWIDTH 562 0
DWIDTH 9 0
BBX 8 8 0 0
BITMAP
C3
66
3C
18
18
18
18
18
ENDCHAR
STARTCHAR uni0290
ENCODING 656
SWIDTH 562 0
DWIDTH 9 0
BBX 8 11 1 -3
BITMAP
FE
06
0C
18
30
60
C0
FE
06
06
03
ENDCHAR
STARTCHAR uni0291
ENCODING 657
SWIDTH 562 0
DWIDTH 9 0
BBX 7 9 1 -1
BITMAP
FE
06
0C
18
30
64
CA
FC
08
ENDCHAR
STARTCHAR uni0292
ENCODING 658
SWIDTH 562 0
DWIDTH 9 0
BBX 7 11 1 -3
BITMAP
FE
06
0C
18
38
0C
06
06
06
CC
78
ENDCHAR
STARTCHAR uni0293
ENCODING 659
SWIDTH 562 0
DWIDTH 9 0
BBX 7 11 1 -3
BITMAP
FE
06
0C
18
38
0C
06
06
76
CC
76
ENDCHAR
STARTCHAR uni0294
ENCODING 660
SWIDTH 562 0
DWIDTH 9 0
BBX 7 11 1 0
BITMAP
7C
C6
06
06
06
1C
30
30
30
30
30
ENDCHAR
STARTCHAR uni0295
ENCODING 661
SWIDTH 562 0
DWIDTH 9 0
BBX 7 11 1 0
BITMAP
7C
C6
C0
C0
C0
70
18
18
18
18
18
ENDCHAR
STARTCHAR uni0296
ENCODING 662
SWIDTH 562 0
DWIDTH 9 0
BBX 7 11 1 0
BITMAP
30
30
30
30
30
1C
06
06
06
C6
7C
ENDCHAR
STARTCHAR uni0297
ENCODING 663
SWIDTH 562 0
DWIDTH 9 0
BBX 7 14 1 -3
BITMAP
7C
C6
C0
C0
C0
C0
C0
C0
C0
C0
C0
C0
C6
7C
ENDCHAR
STARTCHAR uni0298
ENCODING 664
SWIDTH 562 0
DWIDTH 9 0
BBX 8 11 0 0
BITMAP
3C
66
C3
C3
C3
DB
C3
C3
C3
66
3C
ENDCHAR
STARTCHAR uni0299
ENCODING 665
SWIDTH 562 0
DWIDTH 9 0
BBX 7 8 1 0
BITMAP
FC
C6
C6
FC
C6
C6
C6
FC
ENDCHAR
STARTCHAR uni029A
ENCODING 666
SWIDTH 562 0
DWIDTH 9 0
BBX 7 8 1 0
BITMAP
7C
C6
C6
76
C6
C6
C6
7C
ENDCHAR
STARTCHAR uni029B
ENCODING 667
SWIDTH 562 0
DWIDTH 9 0
BBX 8 10 1 0
BITMAP
07
0C
3E
60
C0
C0
DE
C6
66
3E
ENDCHAR
STARTCHAR uni029C
ENCODING 668
SWIDTH 562 0
DWIDTH 9 0
BBX 7 8 1 0
BITMAP
C6
C6
C6
FE
C6
C6
C6
C6
ENDCHAR
STARTCHAR uni029D
ENCODING 669
SWIDTH 562 0
DWIDTH 9 0
BBX 6 13 1 -3
BITMAP
18
00
78
18
18
18
18
18
18
18
7C
D8
70
ENDCHAR
STARTCHAR uni029E
ENCODING 670
SWIDTH 562 0
DWIDTH 9 0
BBX 7 11 1 0
BITMAP
C6
66
36
1E
1E
36
66
C6
06
06
06
ENDCHAR
STARTCHAR uni029F
ENCODING 671
SWIDTH 562 0
DWIDTH 9 0
BBX 7 8 1 0
BITMAP
C0
C0
C0
C0
C0
C0
C0
FE
ENDCHAR
STARTCHAR uni02A0
ENCODING 672
SWIDTH 562 0
DWIDTH 9 0
BBX 9 13 0 -3
BITMAP
0380
0600
7600
CE00
C600
C600
C600
C600
CE00
7600
0600
0600
0600
ENDCHAR
STARTCHAR uni02A1
ENCODING 673
SWIDTH 562 0
DWIDTH 9 0
BBX 7 11 1 0
BITMAP
7C
C6
06
06
06
1C
30
30
78
30
30
ENDCHAR
STARTCHAR uni02A2
ENCODING 674
SWIDTH 562 0
DWIDTH 9 0
BBX 7 11 1 0
BITMAP
7C
C6
C0
C0
C0
70
18
18
3C
18
18
ENDCHAR
STARTCHAR uni02A3
ENCODING 675
SWIDTH 562 0
DWIDTH 9 0
BBX 8 11 0 0
BITMAP
10
10
10
7F
D3
D3
D6
D6
DC
DC
7F
ENDCHAR
STARTCHAR uni02A4
ENCODING 676
SWIDTH 562 0
DWIDTH 9 0
BBX 8 14 0 -3
BITMAP
10
10
10
7F
D3
D6
D6
DC
D6
D3
73
03
1B
0E
ENDCHAR
STARTCHAR uni02A5
ENCODING 677
SWIDTH 562 0
DWIDTH 9 0
BBX 8 13 0 -2
BITMAP
10
10
10
7E
D6
D6
D6
DC
DC
DF
7D
06
04
ENDCHAR
STARTCHAR uni02A6
ENCODING 678
SWIDTH 562 0
DWIDTH 9 0
BBX 8 11 0 0
BITMAP
60
60
60
F7
6C
6C
66
63
63
63
3E
ENDCHAR
STARTCHAR uni02A7
ENCODING 679
SWIDTH 562 0
DWIDTH 9 0
BBX 8 14 0 -3
BITMAP
67
6C
6C
FC
6C
6C
6C
6C
6C
6C
3C
0C
0C
38
ENDCHAR
STARTCHAR uni02A8
ENCODING 680
SWIDTH 562 0
DWIDTH 9 0
BBX 8 12 0 -1
BITMAP
60
60
60
F6
6D
6C
6C
6C
6E
6D
3E
04
ENDCHAR
STARTCHAR uni02A9
ENCODING 681
SWIDTH 562 0
DWIDTH 9 0
BBX 8 14 0 -3
BITMAP
38
64
60
60
FE
6D
6D
6D
6D
6D
6D
01
01
06
ENDCHAR
STARTCHAR uni02AA
ENCODING 682
SWIDTH 562 0
DWIDTH 9 0
BBX 8 11 0 0
BITMAP
E0
60
60
67
6C
6C
66
63
63
63
3E
ENDCHAR
STARTCHAR uni02AB
ENCODING 683
SWIDTH 562 0
DWIDTH 9 0
BBX 8 11 0 0
BITMAP
E0
60
60
7F
63
66
66
6C
6C
78
3F
ENDCHAR
STARTCHAR uni02AC
ENCODING 684
SWIDTH 562 0
DWIDTH 9 0
BBX 6 11 2 0
BITMAP
CC
CC
FC
CC
84
00
CC
CC
FC
CC
84
ENDCHAR
STARTCHAR uni02AD
ENCODING 685
SWIDTH 562 0
DWIDTH 9 0
BBX 6 11 2 0
BITMAP
FC
CC
CC
CC
CC
00
FC
CC
CC
CC
CC
ENDCHAR
STARTCHAR uni02AE
ENCODING 686
SWIDTH 562 0
DWIDTH 9 0
BBX 8 14 0 -3
BITMAP
E0
30
30
33
33
33
33
33
33
37
1B
03
03
03
ENDCHAR
STARTCHAR uni02AF
ENCODING 687
SWIDTH 562 0
DWIDTH 9 0
BBX 9 14 0 -3
BITMAP
E000
3000
3000
3600
3600
3600
3600
3600
3600
3600
1E00
0600
0600
0380
ENDCHAR
STARTCHAR uni02BB
ENCODING 699
SWIDTH 500 0
DWIDTH 8 0
BBX 2 2 2 12
BITMAP
40
80
ENDCHAR
STARTCHAR afii57929
ENCODING 700
SWIDTH 500 0
DWIDTH 8 0
BBX 2 2 4 12
BITMAP
40
80
ENDCHAR
STARTCHAR afii64937
ENCODING 701
SWIDTH 500 0
DWIDTH 8 0
BBX 2 2 2 12
BITMAP
80
40
ENDCHAR
STARTCHAR circumflex
ENCODING 710
SWIDTH 500 0
DWIDTH 8 0
BBX 4 2 2 12
BITMAP
40
B0
ENDCHAR
STARTCHAR caron
ENCODING 711
SWIDTH 500 0
DWIDTH 8 0
BBX 4 2 2 12
BITMAP
B0
40
ENDCHAR
STARTCHAR breve
ENCODING 728
SWIDTH 500 0
DWIDTH 8 0
BBX 6 2 1 12
BITMAP
84
78
ENDCHAR
STARTCHAR dotaccent
ENCODING 729
SWIDTH 500 0
DWIDTH 8 0
BBX 1 2 4 12
BITMAP
80
80
ENDCHAR
STARTCHAR ring
ENCODING 730
SWIDTH 500 0
DWIDTH 8 0
BBX 4 4 2 10
BITMAP
40
B0
40
40
ENDCHAR
STARTCHAR ogonek
ENCODING 731
SWIDTH 500 0
DWIDTH 8 0
BBX 3 4 2 -2
BITMAP
40
80
60
60
ENDCHAR
STARTCHAR tilde
ENCODING 732
SWIDTH 500 0
DWIDTH 8 0
BBX 6 4 1 10
BITMAP
44
B4
88
88
ENDCHAR
STARTCHAR hungarumlaut
ENCODING 733
SWIDTH 500 0
DWIDTH 8 0
BBX 6 2 1 12
BITMAP
44
88
ENDCHAR
STARTCHAR gravecomb
ENCODING 768
SWIDTH 500 0
DWIDTH 8 0
BBX 2 2 2 12
BITMAP
80
40
ENDCHAR
STARTCHAR acutecomb
ENCODING 769
SWIDTH 500 0
DWIDTH 8 0
BBX 2 2 4 12
BITMAP
40
80
ENDCHAR
STARTCHAR uni0302
ENCODING 770
SWIDTH 500 0
DWIDTH 8 0
BBX 4 2 2 12
BITMAP
40
B0
ENDCHAR
STARTCHAR tildecomb
ENCODING 771
SWIDTH 500 0
DWIDTH 8 0
BBX 6 4 1 10
BITMAP
44
B4
88
88
ENDCHAR
STARTCHAR uni0306
ENCODING 774
SWIDTH 500 0
DWIDTH 8 0
BBX 6 2 1 12
BITMAP
84
78
ENDCHAR
STARTCHAR uni0307
ENCODING 775
SWIDTH 500 0
DWIDTH 8 0
BBX 1 1 4 13
BITMAP
80
ENDCHAR
STARTCHAR uni0308
ENCODING 776
SWIDTH 500 0
DWIDTH 8 0
BBX 4 1 2 13
BITMAP
B0
ENDCHAR
STARTCHAR uni030C
ENCODING 780
SWIDTH 500 0
DWIDTH 8 0
BBX 4 2 2 12
BITMAP
B0
40
ENDCHAR
STARTCHAR uni0329
ENCODING 809
SWIDTH 500 0
DWIDTH 8 0
BBX 1 2 2 0
BITMAP
80
80
ENDCHAR
STARTCHAR uni0370
ENCODING 880
SWIDTH 500 0
DWIDTH 8 0
BBX 6 11 1 0
BITMAP
80
80
80
80
80
FC
80
80
80
80
80
ENDCHAR
STARTCHAR uni0371
ENCODING 881
SWIDTH 500 0
DWIDTH 8 0
BBX 6 8 1 0
BITMAP
80
80
80
FC
80
80
80
80
ENDCHAR
STARTCHAR uni0372
ENCODING 882
SWIDTH 500 0
DWIDTH 8 0
BBX 7 11 0 0
BITMAP
FE
92
92
92
92
10
10
10
10
10
10
ENDCHAR
STARTCHAR uni0373
ENCODING 883
SWIDTH 500 0
DWIDTH 8 0
BBX 5 11 1 0
BITMAP
F8
A8
A8
A8
A8
20
20
20
20
20
20
ENDCHAR
STARTCHAR uni0374
ENCODING 884
SWIDTH 538 0
DWIDTH 9 0
BBX 1 3 4 10
BITMAP
80
80
80
ENDCHAR
STARTCHAR uni0375
ENCODING 885
SWIDTH 538 0
DWIDTH 9 0
BBX 1 3 4 -3
BITMAP
80
80
80
ENDCHAR
STARTCHAR uni0376
ENCODING 886
SWIDTH 500 0
DWIDTH 9 0
BBX 6 11 1 0
BITMAP
84
8C
8C
94
94
A4
A4
C4
C4
84
84
ENDCHAR
STARTCHAR uni0377
ENCODING 887
SWIDTH 500 0
DWIDTH 9 0
BBX 6 8 1 0
BITMAP
8C
8C
94
94
A4
A4
C4
C4
ENDCHAR
STARTCHAR uni037B
ENCODING 891
SWIDTH 538 0
DWIDTH 9 0
BBX 6 8 1 0
BITMAP
70
88
04
04
04
04
88
70
ENDCHAR
STARTCHAR uni037C
ENCODING 892
SWIDTH 538 0
DWIDTH 9 0
BBX 6 8 1 0
BITMAP
38
44
80
90
80
80
44
38
ENDCHAR
STARTCHAR uni037D
ENCODING 893
SWIDTH 538 0
DWIDTH 9 0
BBX 6 8 1 0
BITMAP
70
88
04
24
04
04
88
70
ENDCHAR
STARTCHAR uni037E
ENCODING 894
SWIDTH 538 0
DWIDTH 9 0
BBX 2 10 3 -3
BITMAP
C0
C0
00
00
00
C0
C0
40
40
80
ENDCHAR
STARTCHAR uni037F
ENCODING 895
SWIDTH 562 0
DWIDTH 9 0
BBX 5 11 2 0
BITMAP
38
10
10
10
10
10
10
10
10
10
E0
ENDCHAR
STARTCHAR tonos
ENCODING 900
SWIDTH 500 0
DWIDTH 8 0
BBX 2 3 3 10
BITMAP
40
40
80
ENDCHAR
STARTCHAR dieresistonos
ENCODING 901
SWIDTH 500 0
DWIDTH 8 0
BBX 4 5 2 8
BITMAP
20
20
40
00
90
ENDCHAR
STARTCHAR Alphatonos
ENCODING 902
SWIDTH 500 0
DWIDTH 9 0
BBX 7 13 0 0
BITMAP
40
80
10
10
28
28
28
44
44
7C
82
82
82
ENDCHAR
STARTCHAR anoteleia
ENCODING 903
SWIDTH 500 0
DWIDTH 8 0
BBX 2 2 3 4
BITMAP
C0
C0
ENDCHAR
STARTCHAR Epsilontonos
ENCODING 904
SWIDTH 500 0
DWIDTH 9 0
BBX 7 13 0 0
BITMAP
40
80
7E
40
40
40
40
7C
40
40
40
40
7E
ENDCHAR
STARTCHAR Etatonos
ENCODING 905
SWIDTH 500 0
DWIDTH 9 0
BBX 7 13 0 0
BITMAP
40
80
42
42
42
42
42
7E
42
42
42
42
42
ENDCHAR
STARTCHAR Iotatonos
ENCODING 906
SWIDTH 500 0
DWIDTH 9 0
BBX 6 13 0 0
BITMAP
40
80
7C
10
10
10
10
10
10
10
10
10
7C
ENDCHAR
STARTCHAR Omicrontonos
ENCODING 908
SWIDTH 500 0
DWIDTH 9 0
BBX 7 13 0 0
BITMAP
40
80
18
24
42
42
42
42
42
42
42
24
18
ENDCHAR
STARTCHAR Upsilontonos
ENCODING 910
SWIDTH 500 0
DWIDTH 9 0
BBX 7 13 0 0
BITMAP
10
20
82
82
44
44
28
28
10
10
10
10
10
ENDCHAR
STARTCHAR Omegatonos
ENCODING 911
SWIDTH 500 0
DWIDTH 9 0
BBX 7 13 0 0
BITMAP
40
80
38
44
82
82
82
82
82
82
44
28
EE
ENDCHAR
STARTCHAR iotadieresistonos
ENCODING 912
SWIDTH 500 0
DWIDTH 9 0
BBX 5 13 2 0
BITMAP
20
40
00
90
00
60
20
20
20
20
20
20
18
ENDCHAR
STARTCHAR Alpha
ENCODING 913
SWIDTH 562 0
DWIDTH 9 0
BBX 7 11 0 0
BITMAP
10
10
28
28
28
44
44
7C
82
82
82
ENDCHAR
STARTCHAR Beta
ENCODING 914
SWIDTH 562 0
DWIDTH 9 0
BBX 6 11 1 0
BITMAP
F8
84
84
84
84
F8
84
84
84
84
F8
ENDCHAR
STARTCHAR Gamma
ENCODING 915
SWIDTH 562 0
DWIDTH 9 0
BBX 6 11 1 0
BITMAP
FC
80
80
80
80
80
80
80
80
80
80
ENDCHAR
STARTCHAR Delta
ENCODING 916
SWIDTH 562 0
DWIDTH 9 0
BBX 7 11 0 0
BITMAP
10
10
28
28
28
44
44
44
82
82
FE
ENDCHAR
STARTCHAR Epsilon
ENCODING 917
SWIDTH 562 0
DWIDTH 9 0
BBX 6 11 1 0
BITMAP
FC
80
80
80
80
F8
80
80
80
80
FC
ENDCHAR
STARTCHAR Zeta
ENCODING 918
SWIDTH 562 0
DWIDTH 9 0
BBX 6 11 1 0
BITMAP
FC
04
08
08
10
10
20
20
40
40
FC
ENDCHAR
STARTCHAR Eta
ENCODING 919
SWIDTH 562 0
DWIDTH 9 0
BBX 6 11 1 0
BITMAP
84
84
84
84
84
FC
84
84
84
84
84
ENDCHAR
STARTCHAR Theta
ENCODING 920
SWIDTH 562 0
DWIDTH 9 0
BBX 7 11 0 0
BITMAP
38
44
82
82
82
BA
82
82
82
44
38
ENDCHAR
STARTCHAR Iota
ENCODING 921
SWIDTH 562 0
DWIDTH 9 0
BBX 5 11 1 0
BITMAP
F8
20
20
20
20
20
20
20
20
20
F8
ENDCHAR
STARTCHAR Kappa
ENCODING 922
SWIDTH 562 0
DWIDTH 9 0
BBX 6 11 1 0
BITMAP
84
88
90
A0
C0
80
C0
A0
90
88
84
ENDCHAR
STARTCHAR Lambda
ENCODING 923
SWIDTH 562 0
DWIDTH 9 0
BBX 7 11 0 0
BITMAP
10
10
28
28
28
44
44
44
82
82
82
ENDCHAR
STARTCHAR Mu
ENCODING 924
SWIDTH 562 0
DWIDTH 9 0
BBX 7 11 0 0
BITMAP
82
82
C6
C6
AA
AA
92
92
82
82
82
ENDCHAR
STARTCHAR Nu
ENCODING 925
SWIDTH 562 0
DWIDTH 9 0
BBX 6 11 1 0
BITMAP
84
C4
C4
A4
A4
94
94
8C
8C
84
84
ENDCHAR
STARTCHAR Xi
ENCODING 926
SWIDTH 562 0
DWIDTH 9 0
BBX 6 11 1 0
BITMAP
FC
00
00
00
00
78
00
00
00
00
FC
ENDCHAR
STARTCHAR Omicron
ENCODING 927
SWIDTH 562 0
DWIDTH 9 0
BBX 7 11 0 0
BITMAP
38
44
82
82
82
82
82
82
82
44
38
ENDCHAR
STARTCHAR Pi
ENCODING 928
SWIDTH 562 0
DWIDTH 9 0
BBX 6 11 1 0
BITMAP
FC
84
84
84
84
84
84
84
84
84
84
ENDCHAR
STARTCHAR Rho
ENCODING 929
SWIDTH 562 0
DWIDTH 9 0
BBX 6 11 1 0
BITMAP
F0
88
84
84
84
88
F0
80
80
80
80
ENDCHAR
STARTCHAR Sigma
ENCODING 931
SWIDTH 500 0
DWIDTH 9 0
BBX 6 11 1 0
BITMAP
FC
80
40
20
10
08
10
20
40
80
FC
ENDCHAR
STARTCHAR Tau
ENCODING 932
SWIDTH 500 0
DWIDTH 9 0
BBX 7 11 0 0
BITMAP
FE
10
10
10
10
10
10
10
10
10
10
ENDCHAR
STARTCHAR Upsilon
ENCODING 933
SWIDTH 500 0
DWIDTH 9 0
BBX 7 11 0 0
BITMAP
82
82
44
44
28
28
10
10
10
10
10
ENDCHAR
STARTCHAR Phi
ENCODING 934
SWIDTH 500 0
DWIDTH 9 0
BBX 7 11 0 0
BITMAP
10
38
54
92
92
92
92
92
54
38
10
ENDCHAR
STARTCHAR Chi
ENCODING 935
SWIDTH 500 0
DWIDTH 9 0
BBX 7 11 0 0
BITMAP
82
44
44
28
28
10
28
28
44
44
82
ENDCHAR
STARTCHAR Psi
ENCODING 936
SWIDTH 500 0
DWIDTH 9 0
BBX 7 11 0 0
BITMAP
92
92
92
92
92
92
92
54
38
10
10
ENDCHAR
STARTCHAR Omega
ENCODING 937
SWIDTH 500 0
DWIDTH 9 0
BBX 7 11 0 0
BITMAP
38
44
82
82
82
82
82
82
44
28
EE
ENDCHAR
STARTCHAR Iotadieresis
ENCODING 938
SWIDTH 500 0
DWIDTH 9 0
BBX 5 13 1 0
BITMAP
48
00
F8
20
20
20
20
20
20
20
20
20
F8
ENDCHAR
STARTCHAR Upsilondieresis
ENCODING 939
SWIDTH 500 0
DWIDTH 9 0
BBX 7 13 0 0
BITMAP
48
00
82
82
44
44
28
28
10
10
10
10
10
ENDCHAR
STARTCHAR alphatonos
ENCODING 940
SWIDTH 562 0
DWIDTH 9 0
BBX 7 12 1 0
BITMAP
10
10
20
00
62
94
94
88
88
94
94
62
ENDCHAR
STARTCHAR epsilontonos
ENCODING 941
SWIDTH 562 0
DWIDTH 9 0
BBX 6 12 1 0
BITMAP
10
10
20
00
7C
80
80
78
80
80
80
7C
ENDCHAR
STARTCHAR etatonos
ENCODING 942
SWIDTH 562 0
DWIDTH 9 0
BBX 6 15 1 -3
BITMAP
10
10
20
00
B8
C4
84
84
84
84
84
84
04
04
04
ENDCHAR
STARTCHAR iotatonos
ENCODING 943
SWIDTH 562 0
DWIDTH 9 0
BBX 4 12 2 0
BITMAP
20
20
40
00
C0
40
40
40
40
40
40
30
ENDCHAR
STARTCHAR upsilondieresistonos
ENCODING 944
SWIDTH 562 0
DWIDTH 9 0
BBX 6 13 1 0
BITMAP
10
20
00
48
00
88
84
84
84
84
84
88
70
ENDCHAR
STARTCHAR alpha
ENCODING 945
SWIDTH 562 0
DWIDTH 9 0
BBX 7 8 1 0
BITMAP
62
94
94
88
88
94
94
62
ENDCHAR
STARTCHAR beta
ENCODING 946
SWIDTH 562 0
DWIDTH 9 0
BBX 6 14 1 -3
BITMAP
38
44
84
84
88
B0
88
84
84
C4
B8
80
80
80
ENDCHAR
STARTCHAR gamma
ENCODING 947
SWIDTH 562 0
DWIDTH 9 0
BBX 6 11 1 -3
BITMAP
84
44
44
28
28
28
10
10
10
20
20
ENDCHAR
STARTCHAR delta
ENCODING 948
SWIDTH 562 0
DWIDTH 9 0
BBX 6 11 1 0
BITMAP
38
40
40
30
48
84
84
84
84
48
30
ENDCHAR
STARTCHAR epsilon
ENCODING 949
SWIDTH 562 0
DWIDTH 9 0
BBX 6 8 1 0
BITMAP
7C
80
80
78
80
80
80
7C
ENDCHAR
STARTCHAR zeta
ENCODING 950
SWIDTH 562 0
DWIDTH 9 0
BBX 6 14 1 -3
BITMAP
FC
08
10
20
40
40
80
80
80
40
38
04
04
08
ENDCHAR
STARTCHAR eta
ENCODING 951
SWIDTH 562 0
DWIDTH 9 0
BBX 6 11 1 -3
BITMAP
B8
C4
84
84
84
84
84
84
04
04
04
ENDCHAR
STARTCHAR theta
ENCODING 952
SWIDTH 562 0
DWIDTH 9 0
BBX 6 11 1 0
BITMAP
30
48
48
84
84
FC
84
84
48
48
30
ENDCHAR
STARTCHAR iota
ENCODING 953
SWIDTH 562 0
DWIDTH 9 0
BBX 4 8 3 0
BITMAP
C0
40
40
40
40
40
40
30
ENDCHAR
STARTCHAR kappa
ENCODING 954
SWIDTH 562 0
DWIDTH 9 0
BBX 6 8 1 0
BITMAP
84
88
90
A0
E0
90
88
84
ENDCHAR
STARTCHAR lambda
ENCODING 955
SWIDTH 562 0
DWIDTH 9 0
BBX 6 11 1 0
BITMAP
20
20
10
10
10
28
28
48
44
84
84
ENDCHAR
STARTCHAR mu
ENCODING 956
SWIDTH 562 0
DWIDTH 9 0
BBX 6 11 1 -3
BITMAP
84
84
84
84
84
84
CC
B4
80
80
80
ENDCHAR
STARTCHAR nu
ENCODING 957
SWIDTH 562 0
DWIDTH 9 0
BBX 6 8 1 0
BITMAP
88
84
44
44
28
28
10
10
ENDCHAR
STARTCHAR xi
ENCODING 958
SWIDTH 562 0
DWIDTH 9 0
BBX 6 14 1 -3
BITMAP
FC
40
80
80
40
38
40
80
80
40
38
04
04
18
ENDCHAR
STARTCHAR omicron
ENCODING 959
SWIDTH 562 0
DWIDTH 9 0
BBX 6 8 1 0
BITMAP
30
48
84
84
84
84
48
30
ENDCHAR
STARTCHAR pi
ENCODING 960
SWIDTH 562 0
DWIDTH 9 0
BBX 6 8 1 0
BITMAP
FC
48
48
48
48
48
48
44
ENDCHAR
STARTCHAR rho
ENCODING 961
SWIDTH 562 0
DWIDTH 9 0
BBX 6 11 1 -3
BITMAP
30
48
84
84
84
84
C8
B0
80
80
80
ENDCHAR
STARTCHAR sigma1
ENCODING 962
SWIDTH 562 0
DWIDTH 9 0
BBX 6 11 1 -3
BITMAP
38
44
80
80
80
80
40
38
04
04
18
ENDCHAR
STARTCHAR sigma
ENCODING 963
SWIDTH 562 0
DWIDTH 9 0
BBX 7 8 1 0
BITMAP
3E
48
84
84
84
84
48
30
ENDCHAR
STARTCHAR tau
ENCODING 964
SWIDTH 562 0
DWIDTH 9 0
BBX 5 8 1 0
BITMAP
F8
20
20
20
20
20
20
18
ENDCHAR
STARTCHAR upsilon
ENCODING 965
SWIDTH 562 0
DWIDTH 9 0
BBX 6 8 1 0
BITMAP
88
84
84
84
84
84
88
70
ENDCHAR
STARTCHAR phi
ENCODING 966
SWIDTH 562 0
DWIDTH 9 0
BBX 7 11 0 -3
BITMAP
4C
92
92
92
92
92
54
38
10
10
10
ENDCHAR
STARTCHAR chi
ENCODING 967
SWIDTH 562 0
DWIDTH 9 0
BBX 7 11 0 -3
BITMAP
82
44
44
28
28
10
28
28
44
44
82
ENDCHAR
STARTCHAR psi
ENCODING 968
SWIDTH 562 0
DWIDTH 9 0
BBX 7 11 0 -3
BITMAP
92
92
92
92
92
54
54
38
10
10
10
ENDCHAR
STARTCHAR omega
ENCODING 969
SWIDTH 562 0
DWIDTH 9 0
BBX 7 8 0 0
BITMAP
44
82
82
82
92
92
92
6C
ENDCHAR
STARTCHAR iotadieresis
ENCODING 970
SWIDTH 562 0
DWIDTH 9 0
BBX 5 11 2 0
BITMAP
90
00
00
60
20
20
20
20
20
20
18
ENDCHAR
STARTCHAR upsilondieresis
ENCODING 971
SWIDTH 562 0
DWIDTH 9 0
BBX 6 11 1 0
BITMAP
48
00
00
88
84
84
84
84
84
88
70
ENDCHAR
STARTCHAR omicrontonos
ENCODING 972
SWIDTH 562 0
DWIDTH 9 0
BBX 6 12 1 0
BITMAP
10
10
20
00
30
48
84
84
84
84
48
30
ENDCHAR
STARTCHAR upsilontonos
ENCODING 973
SWIDTH 562 0
DWIDTH 9 0
BBX 6 12 1 0
BITMAP
10
10
20
00
88
84
84
84
84
84
88
70
ENDCHAR
STARTCHAR omegatonos
ENCODING 974
SWIDTH 562 0
DWIDTH 9 0
BBX 7 12 0 0
BITMAP
08
08
10
00
44
82
82
82
92
92
92
6C
ENDCHAR
STARTCHAR uni03CF
ENCODING 975
SWIDTH 562 0
DWIDTH 9 0
BBX 6 13 1 -2
BITMAP
84
88
90
A0
C0
80
C0
A0
90
88
84
08
10
ENDCHAR
STARTCHAR uni03D0
ENCODING 976
SWIDTH 562 0
DWIDTH 9 0
BBX 6 11 1 0
BITMAP
78
84
84
84
88
F0
88
84
84
84
78
ENDCHAR
STARTCHAR theta1
ENCODING 977
SWIDTH 562 0
DWIDTH 9 0
BBX 6 11 1 0
BITMAP
30
48
44
44
24
1C
84
84
84
48
30
ENDCHAR
STARTCHAR Upsilon1
ENCODING 978
SWIDTH 562 0
DWIDTH 9 0
BBX 7 11 0 0
BITMAP
84
4A
28
28
28
10
10
10
10
10
10
ENDCHAR
STARTCHAR uni03D3
ENCODING 979
SWIDTH 562 0
DWIDTH 9 0
BBX 8 12 0 1
BITMAP
40
80
22
25
14
14
14
08
08
08
08
08
ENDCHAR
STARTCHAR uni03D4
ENCODING 980
SWIDTH 562 0
DWIDTH 9 0
BBX 7 13 0 0
BITMAP
48
00
84
4A
28
28
28
10
10
10
10
10
10
ENDCHAR
STARTCHAR phi1
ENCODING 981
SWIDTH 562 0
DWIDTH 9 0
BBX 7 14 0 -3
BITMAP
10
10
10
38
54
92
92
92
92
54
38
10
10
10
ENDCHAR
STARTCHAR omega1
ENCODING 982
SWIDTH 562 0
DWIDTH 9 0
BBX 7 8 0 0
BITMAP
FE
44
82
82
92
92
92
6C
ENDCHAR
STARTCHAR uni03D7
ENCODING 983
SWIDTH 562 0
DWIDTH 9 0
BBX 7 11 0 -3
BITMAP
46
AC
28
38
38
28
6A
C6
02
02
0C
ENDCHAR
STARTCHAR uni03D8
ENCODING 984
SWIDTH 562 0
DWIDTH 9 0
BBX 7 14 0 -3
BITMAP
38
44
82
82
82
82
82
82
82
44
38
10
10
10
ENDCHAR
STARTCHAR uni03D9
ENCODING 985
SWIDTH 562 0
DWIDTH 9 0
BBX 7 11 0 -3
BITMAP
38
44
82
82
82
82
44
38
10
10
10
ENDCHAR
STARTCHAR uni03DA
ENCODING 986
SWIDTH 562 0
DWIDTH 9 0
BBX 7 14 1 -3
BITMAP
38
44
80
80
80
80
80
80
80
40
30
0C
02
0C
ENDCHAR
STARTCHAR uni03DB
ENCODING 987
SWIDTH 562 0
DWIDTH 9 0
BBX 7 11 1 -3
BITMAP
38
44
80
80
80
80
40
30
0C
02
0C
ENDCHAR
STARTCHAR uni03DC
ENCODING 988
SWIDTH 562 0
DWIDTH 9 0
BBX 6 11 1 0
BITMAP
FC
80
80
80
80
F8
80
80
80
80
80
ENDCHAR
STARTCHAR uni03DD
ENCODING 989
SWIDTH 562 0
DWIDTH 9 0
BBX 7 14 0 -3
BITMAP
0C
12
10
10
10
10
1C
10
10
10
10
10
90
60
ENDCHAR
STARTCHAR uni03DE
ENCODING 990
SWIDTH 562 0
DWIDTH 9 0
BBX 6 11 1 -1
BITMAP
40
20
20
40
4C
B4
C8
08
10
10
08
ENDCHAR
STARTCHAR uni03DF
ENCODING 991
SWIDTH 562 0
DWIDTH 9 0
BBX 6 11 1 0
BITMAP
40
40
40
80
80
FC
04
04
08
08
08
ENDCHAR
STARTCHAR uni03E0
ENCODING 992
SWIDTH 562 0
DWIDTH 9 0
BBX 8 14 0 -3
BITMAP
38
64
A2
22
23
05
05
09
09
09
09
02
02
04
ENDCHAR
STARTCHAR uni03E1
ENCODING 993
SWIDTH 562 0
DWIDTH 9 0
BBX 6 12 1 -3
BITMAP
C0
20
10
10
28
28
54
54
A4
04
04
04
ENDCHAR
STARTCHAR uni03E2
ENCODING 994
SWIDTH 562 0
DWIDTH 9 0
BBX 7 14 0 -3
BITMAP
44
82
82
82
82
92
92
92
92
92
6C
04
08
30
ENDCHAR
STARTCHAR uni03E3
ENCODING 995
SWIDTH 562 0
DWIDTH 9 0
BBX 7 11 0 -3
BITMAP
44
82
82
82
92
92
92
6C
04
08
30
ENDCHAR
STARTCHAR uni03E4
ENCODING 996
SWIDTH 562 0
DWIDTH 9 0
BBX 6 14 1 -3
BITMAP
44
84
84
84
84
84
84
84
84
4C
34
04
04
04
ENDCHAR
STARTCHAR uni03E5
ENCODING 997
SWIDTH 562 0
DWIDTH 9 0
BBX 6 11 1 -3
BITMAP
44
84
84
84
84
84
4C
34
04
04
04
ENDCHAR
STARTCHAR uni03E6
ENCODING 998
SWIDTH 562 0
DWIDTH 9 0
BBX 6 14 1 -3
BITMAP
80
80
80
B0
C8
84
84
84
84
84
84
04
08
30
ENDCHAR
STARTCHAR uni03E7
ENCODING 999
SWIDTH 562 0
DWIDTH 9 0
BBX 7 8 1 0
BITMAP
7A
84
8C
74
04
04
48
B0
ENDCHAR
STARTCHAR uni03E8
ENCODING 1000
SWIDTH 562 0
DWIDTH 9 0
BBX 6 14 1 -3
BITMAP
78
84
04
04
04
08
08
10
20
40
80
80
44
38
ENDCHAR
STARTCHAR uni03E9
ENCODING 1001
SWIDTH 562 0
DWIDTH 9 0
BBX 6 11 1 -3
BITMAP
78
84
04
08
10
20
40
80
80
44
38
ENDCHAR
STARTCHAR uni03EA
ENCODING 1002
SWIDTH 562 0
DWIDTH 9 0
BBX 7 11 0 0
BITMAP
C6
28
28
10
10
10
28
28
44
44
FE
ENDCHAR
STARTCHAR uni03EB
ENCODING 1003
SWIDTH 562 0
DWIDTH 9 0
BBX 7 8 0 0
BITMAP
C6
28
10
10
28
28
44
FE
ENDCHAR
STARTCHAR uni03EC
ENCODING 1004
SWIDTH 562 0
DWIDTH 9 0
BBX 7 11 0 0
BITMAP
02
3C
40
80
B8
C4
82
82
82
44
38
ENDCHAR
STARTCHAR uni03ED
ENCODING 1005
SWIDTH 562 0
DWIDTH 9 0
BBX 6 11 1 0
BITMAP
04
38
40
80
B0
C8
84
84
84
48
30
ENDCHAR
STARTCHAR uni03EE
ENCODING 1006
SWIDTH 562 0
DWIDTH 9 0
BBX 7 11 0 0
BITMAP
10
10
FE
92
10
10
10
10
10
10
10
ENDCHAR
STARTCHAR uni03EF
ENCODING 1007
SWIDTH 562 0
DWIDTH 9 0
BBX 5 11 1 0
BITMAP
20
20
F8
A8
20
20
20
20
20
20
20
ENDCHAR
STARTCHAR uni03F0
ENCODING 1008
SWIDTH 562 0
DWIDTH 9 0
BBX 7 8 0 0
BITMAP
46
AC
28
38
38
28
6A
C4
ENDCHAR
STARTCHAR uni03F1
ENCODING 1009
SWIDTH 562 0
DWIDTH 9 0
BBX 6 11 1 -3
BITMAP
30
48
84
84
84
84
C8
B0
80
40
3C
ENDCHAR
STARTCHAR uni03F2
ENCODING 1010
SWIDTH 562 0
DWIDTH 9 0
BBX 6 8 1 0
BITMAP
38
44
80
80
80
80
44
38
ENDCHAR
STARTCHAR uni03F3
ENCODING 1011
SWIDTH 562 0
DWIDTH 9 0
BBX 3 14 2 -3
BITMAP
20
00
00
E0
20
20
20
20
20
20
20
20
20
C0
ENDCHAR
STARTCHAR uni03F4
ENCODING 1012
SWIDTH 562 0
DWIDTH 9 0
BBX 7 11 0 0
BITMAP
38
44
82
82
82
FE
82
82
82
44
38
ENDCHAR
STARTCHAR uni03F5
ENCODING 1013
SWIDTH 562 0
DWIDTH 9 0
BBX 6 8 1 0
BITMAP
3C
40
80
F8
80
80
40
3C
ENDCHAR
STARTCHAR uni03F6
ENCODING 1014
SWIDTH 562 0
DWIDTH 9 0
BBX 6 8 1 0
BITMAP
F0
08
04
7C
04
04
08
F0
ENDCHAR
STARTCHAR uni03F7
ENCODING 1015
SWIDTH 562 0
DWIDTH 9 0
BBX 6 11 1 0
BITMAP
80
80
F0
88
84
84
84
88
F0
80
80
ENDCHAR
STARTCHAR uni03F8
ENCODING 1016
SWIDTH 562 0
DWIDTH 9 0
BBX 6 14 1 -3
BITMAP
80
80
80
B0
C8
84
84
84
84
C8
B0
80
80
80
ENDCHAR
STARTCHAR uni03F9
ENCODING 1017
SWIDTH 562 0
DWIDTH 9 0
BBX 6 11 1 0
BITMAP
38
44
80
80
80
80
80
80
80
44
38
ENDCHAR
STARTCHAR uni03FA
ENCODING 1018
SWIDTH 562 0
DWIDTH 9 0
BBX 7 11 0 0
BITMAP
82
C6
AA
92
82
82
82
82
82
82
82
ENDCHAR
STARTCHAR uni03FB
ENCODING 1019
SWIDTH 562 0
DWIDTH 9 0
BBX 7 11 0 -3
BITMAP
82
C6
AA
92
82
82
82
82
80
80
80
ENDCHAR
STARTCHAR uni03FC
ENCODING 1020
SWIDTH 562 0
DWIDTH 9 0
BBX 7 11 0 -3
BITMAP
18
24
42
42
42
42
64
58
40
E0
40
ENDCHAR
STARTCHAR uni03FD
ENCODING 1021
SWIDTH 562 0
DWIDTH 9 0
BBX 6 11 1 0
BITMAP
70
88
04
04
04
04
04
04
04
88
70
ENDCHAR
STARTCHAR uni03FE
ENCODING 1022
SWIDTH 562 0
DWIDTH 9 0
BBX 6 11 1 0
BITMAP
38
44
80
80
80
90
80
80
80
44
38
ENDCHAR
STARTCHAR uni03FF
ENCODING 1023
SWIDTH 562 0
DWIDTH 9 0
BBX 6 11 1 0
BITMAP
70
88
04
04
04
24
04
04
04
88
70
ENDCHAR
STARTCHAR uni0400
ENCODING 1024
SWIDTH 562 0
DWIDTH 9 0
BBX 6 13 1 0
BITMAP
20
10
00
FC
80
80
80
F8
80
80
80
80
FC
ENDCHAR
STARTCHAR afii10023
ENCODING 1025
SWIDTH 562 0
DWIDTH 9 0
BBX 6 13 1 0
BITMAP
48
00
FC
80
80
80
80
F8
80
80
80
80
FC
ENDCHAR
STARTCHAR afii10051
ENCODING 1026
SWIDTH 562 0
DWIDTH 9 0
BBX 7 14 0 -3
BITMAP
F8
20
20
20
20
3C
22
22
22
22
22
02
02
1C
ENDCHAR
STARTCHAR afii10052
ENCODING 1027
SWIDTH 562 0
DWIDTH 9 0
BBX 6 13 1 0
BITMAP
10
20
00
FC
80
80
80
80
80
80
80
80
80
ENDCHAR
STARTCHAR afii10053
ENCODING 1028
SWIDTH 562 0
DWIDTH 9 0
BBX 6 11 1 0
BITMAP
38
44
80
80
80
F8
80
80
80
44
38
ENDCHAR
STARTCHAR afii10054
ENCODING 1029
SWIDTH 562 0
DWIDTH 9 0
BBX 6 11 1 0
BITMAP
78
84
80
80
40
30
08
04
04
84
78
ENDCHAR
STARTCHAR afii10055
ENCODING 1030
SWIDTH 562 0
DWIDTH 9 0
BBX 5 11 1 0
BITMAP
F8
20
20
20
20
20
20
20
20
20
F8
ENDCHAR
STARTCHAR afii10056
ENCODING 1031
SWIDTH 562 0
DWIDTH 9 0
BBX 5 13 1 0
BITMAP
48
00
F8
20
20
20
20
20
20
20
20
20
F8
ENDCHAR
STARTCHAR afii10057
ENCODING 1032
SWIDTH 562 0
DWIDTH 9 0
BBX 5 11 2 0
BITMAP
38
10
10
10
10
10
10
10
10
10
E0
ENDCHAR
STARTCHAR afii10058
ENCODING 1033
SWIDTH 562 0
DWIDTH 9 0
BBX 8 11 0 0
BITMAP
78
48
48
48
48
4E
49
49
49
49
8E
ENDCHAR
STARTCHAR afii10059
ENCODING 1034
SWIDTH 562 0
DWIDTH 9 0
BBX 8 11 0 0
BITMAP
88
88
88
88
88
FE
89
89
89
89
8E
ENDCHAR
STARTCHAR afii10060
ENCODING 1035
SWIDTH 562 0
DWIDTH 9 0
BBX 7 11 0 0
BITMAP
F8
20
20
20
2C
32
22
22
22
22
22
ENDCHAR
STARTCHAR afii10061
ENCODING 1036
SWIDTH 562 0
DWIDTH 9 0
BBX 6 13 1 0
BITMAP
10
20
84
88
90
A0
C0
80
C0
A0
90
88
84
ENDCHAR
STARTCHAR uni040D
ENCODING 1037
SWIDTH 562 0
DWIDTH 9 0
BBX 6 13 1 0
BITMAP
20
10
84
8C
8C
94
94
A4
A4
C4
C4
84
84
ENDCHAR
STARTCHAR afii10062
ENCODING 1038
SWIDTH 562 0
DWIDTH 9 0
BBX 6 14 1 -3
BITMAP
48
30
00
84
84
44
48
28
28
10
10
10
20
20
ENDCHAR
STARTCHAR afii10145
ENCODING 1039
SWIDTH 562 0
DWIDTH 9 0
BBX 7 13 0 -2
BITMAP
82
82
82
82
82
82
82
82
82
82
FE
10
10
ENDCHAR
STARTCHAR afii10017
ENCODING 1040
SWIDTH 562 0
DWIDTH 9 0
BBX 7 11 0 0
BITMAP
10
10
28
28
28
44
44
7C
82
82
82
ENDCHAR
STARTCHAR afii10018
ENCODING 1041
SWIDTH 562 0
DWIDTH 9 0
BBX 6 11 1 0
BITMAP
F8
80
80
80
80
F8
84
84
84
84
F8
ENDCHAR
STARTCHAR afii10019
ENCODING 1042
SWIDTH 562 0
DWIDTH 9 0
BBX 6 11 1 0
BITMAP
F8
84
84
84
84
F8
84
84
84
84
F8
ENDCHAR
STARTCHAR afii10020
ENCODING 1043
SWIDTH 562 0
DWIDTH 9 0
BBX 6 11 1 0
BITMAP
FC
80
80
80
80
80
80
80
80
80
80
ENDCHAR
STARTCHAR afii10021
ENCODING 1044
SWIDTH 562 0
DWIDTH 9 0
BBX 7 12 0 0
BITMAP
3C
24
24
24
24
24
44
44
44
FE
82
82
ENDCHAR
STARTCHAR afii10022
ENCODING 1045
SWIDTH 562 0
DWIDTH 9 0
BBX 6 11 1 0
BITMAP
FC
80
80
80
80
F8
80
80
80
80
FC
ENDCHAR
STARTCHAR afii10024
ENCODING 1046
SWIDTH 562 0
DWIDTH 9 0
BBX 7 11 0 0
BITMAP
92
92
54
54
38
38
38
54
54
92
92
ENDCHAR
STARTCHAR afii10025
ENCODING 1047
SWIDTH 562 0
DWIDTH 9 0
BBX 6 11 1 0
BITMAP
78
84
04
04
04
38
04
04
04
84
78
ENDCHAR
STARTCHAR afii10026
ENCODING 1048
SWIDTH 562 0
DWIDTH 9 0
BBX 6 11 1 0
BITMAP
84
8C
8C
94
94
A4
A4
C4
C4
84
84
ENDCHAR
STARTCHAR afii10027
ENCODING 1049
SWIDTH 562 0
DWIDTH 9 0
BBX 6 13 1 0
BITMAP
48
30
00
84
8C
8C
94
94
A4
A4
C4
C4
84
ENDCHAR
STARTCHAR afii10028
ENCODING 1050
SWIDTH 562 0
DWIDTH 9 0
BBX 6 11 1 0
BITMAP
84
88
90
A0
C0
80
C0
A0
90
88
84
ENDCHAR
STARTCHAR afii10029
ENCODING 1051
SWIDTH 562 0
DWIDTH 9 0
BBX 7 11 0 0
BITMAP
7E
42
42
42
42
42
42
42
42
42
82
ENDCHAR
STARTCHAR afii10030
ENCODING 1052
SWIDTH 562 0
DWIDTH 9 0
BBX 7 11 0 0
BITMAP
82
82
C6
C6
AA
AA
92
92
82
82
82
ENDCHAR
STARTCHAR afii10031
ENCODING 1053
SWIDTH 562 0
DWIDTH 9 0
BBX 6 11 1 0
BITMAP
84
84
84
84
84
FC
84
84
84
84
84
ENDCHAR
STARTCHAR afii10032
ENCODING 1054
SWIDTH 562 0
DWIDTH 9 0
BBX 7 11 0 0
BITMAP
38
44
82
82
82
82
82
82
82
44
38
ENDCHAR
STARTCHAR afii10033
ENCODING 1055
SWIDTH 562 0
DWIDTH 9 0
BBX 6 11 1 0
BITMAP
FC
84
84
84
84
84
84
84
84
84
84
ENDCHAR
STARTCHAR afii10034
ENCODING 1056
SWIDTH 562 0
DWIDTH 9 0
BBX 6 11 1 0
BITMAP
F0
88
84
84
84
88
F0
80
80
80
80
ENDCHAR
STARTCHAR afii10035
ENCODING 1057
SWIDTH 562 0
DWIDTH 9 0
BBX 6 11 1 0
BITMAP
78
84
80
80
80
80
80
80
80
84
78
ENDCHAR
STARTCHAR afii10036
ENCODING 1058
SWIDTH 562 0
DWIDTH 9 0
BBX 7 11 0 0
BITMAP
FE
10
10
10
10
10
10
10
10
10
10
ENDCHAR
STARTCHAR afii10037
ENCODING 1059
SWIDTH 562 0
DWIDTH 9 0
BBX 6 11 1 0
BITMAP
84
84
44
48
28
28
10
10
10
20
20
ENDCHAR
STARTCHAR afii10038
ENCODING 1060
SWIDTH 562 0
DWIDTH 9 0
BBX 7 13 0 0
BITMAP
10
10
38
54
92
92
92
92
92
54
38
10
10
ENDCHAR
STARTCHAR afii10039
ENCODING 1061
SWIDTH 562 0
DWIDTH 9 0
BBX 7 11 0 0
BITMAP
82
82
44
28
28
10
28
28
44
82
82
ENDCHAR
STARTCHAR afii10040
ENCODING 1062
SWIDTH 562 0
DWIDTH 9 0
BBX 7 13 1 -2
BITMAP
84
84
84
84
84
84
84
84
84
84
FE
02
02
ENDCHAR
STARTCHAR afii10041
ENCODING 1063
SWIDTH 562 0
DWIDTH 9 0
BBX 6 11 1 0
BITMAP
84
84
84
84
84
7C
04
04
04
04
04
ENDCHAR
STARTCHAR afii10042
ENCODING 1064
SWIDTH 562 0
DWIDTH 9 0
BBX 7 11 0 0
BITMAP
92
92
92
92
92
92
92
92
92
92
FE
ENDCHAR
STARTCHAR afii10043
ENCODING 1065
SWIDTH 562 0
DWIDTH 9 0
BBX 8 13 0 -2
BITMAP
92
92
92
92
92
92
92
92
92
92
FF
01
01
ENDCHAR
STARTCHAR afii10044
ENCODING 1066
SWIDTH 562 0
DWIDTH 9 0
BBX 7 11 0 0
BITMAP
E0
20
20
20
20
3C
22
22
22
22
3C
ENDCHAR
STARTCHAR afii10045
ENCODING 1067
SWIDTH 562 0
DWIDTH 9 0
BBX 7 11 0 0
BITMAP
82
82
82
82
82
F2
8A
8A
8A
8A
F2
ENDCHAR
STARTCHAR afii10046
ENCODING 1068
SWIDTH 562 0
DWIDTH 9 0
BBX 6 11 1 0
BITMAP
80
80
80
80
80
F8
84
84
84
84
F8
ENDCHAR
STARTCHAR afii10047
ENCODING 1069
SWIDTH 562 0
DWIDTH 9 0
BBX 6 11 1 0
BITMAP
F0
08
04
04
04
7C
04
04
04
08
F0
ENDCHAR
STARTCHAR afii10048
ENCODING 1070
SWIDTH 562 0
DWIDTH 9 0
BBX 8 11 0 0
BITMAP
8C
92
A1
A1
A1
E1
A1
A1
A1
92
8C
ENDCHAR
STARTCHAR afii10049
ENCODING 1071
SWIDTH 562 0
DWIDTH 9 0
BBX 6 11 1 0
BITMAP
7C
84
84
84
84
7C
0C
14
24
44
84
ENDCHAR
STARTCHAR afii10065
ENCODING 1072
SWIDTH 562 0
DWIDTH 9 0
BBX 6 8 1 0
BITMAP
78
84
04
7C
84
84
84
7C
ENDCHAR
STARTCHAR afii10066
ENCODING 1073
SWIDTH 562 0
DWIDTH 9 0
BBX 6 11 1 0
BITMAP
38
40
80
80
B0
C8
84
84
84
48
30
ENDCHAR
STARTCHAR afii10067
ENCODING 1074
SWIDTH 562 0
DWIDTH 9 0
BBX 6 8 1 0
BITMAP
F8
84
84
F8
84
84
84
F8
ENDCHAR
STARTCHAR afii10068
ENCODING 1075
SWIDTH 562 0
DWIDTH 9 0
BBX 6 8 1 0
BITMAP
FC
80
80
80
80
80
80
80
ENDCHAR
STARTCHAR afii10069
ENCODING 1076
SWIDTH 562 0
DWIDTH 9 0
BBX 8 10 0 -2
BITMAP
3E
22
22
22
42
42
82
FF
81
81
ENDCHAR
STARTCHAR afii10070
ENCODING 1077
SWIDTH 562 0
DWIDTH 9 0
BBX 6 8 1 0
BITMAP
78
84
84
84
FC
80
80
7C
ENDCHAR
STARTCHAR afii10072
ENCODING 1078
SWIDTH 562 0
DWIDTH 9 0
BBX 7 8 0 0
BITMAP
92
54
54
38
38
54
54
92
ENDCHAR
STARTCHAR afii10073
ENCODING 1079
SWIDTH 562 0
DWIDTH 9 0
BBX 6 8 1 0
BITMAP
F8
04
04
38
04
04
04
F8
ENDCHAR
STARTCHAR afii10074
ENCODING 1080
SWIDTH 562 0
DWIDTH 9 0
BBX 6 8 1 0
BITMAP
8C
8C
94
94
A4
A4
C4
C4
ENDCHAR
STARTCHAR afii10075
ENCODING 1081
SWIDTH 562 0
DWIDTH 9 0
BBX 6 11 1 0
BITMAP
48
30
00
8C
8C
94
94
A4
A4
C4
C4
ENDCHAR
STARTCHAR afii10076
ENCODING 1082
SWIDTH 562 0
DWIDTH 9 0
BBX 6 8 1 0
BITMAP
84
88
90
A0
E0
90
88
84
ENDCHAR
STARTCHAR afii10077
ENCODING 1083
SWIDTH 562 0
DWIDTH 9 0
BBX 7 8 0 0
BITMAP
7E
42
42
42
42
42
42
82
ENDCHAR
STARTCHAR afii10078
ENCODING 1084
SWIDTH 562 0
DWIDTH 9 0
BBX 7 8 0 0
BITMAP
82
C6
C6
AA
AA
92
92
82
ENDCHAR
STARTCHAR afii10079
ENCODING 1085
SWIDTH 562 0
DWIDTH 9 0
BBX 6 8 1 0
BITMAP
84
84
84
FC
84
84
84
84
ENDCHAR
STARTCHAR afii10080
ENCODING 1086
SWIDTH 562 0
DWIDTH 9 0
BBX 6 8 1 0
BITMAP
78
84
84
84
84
84
84
78
ENDCHAR
STARTCHAR afii10081
ENCODING 1087
SWIDTH 562 0
DWIDTH 9 0
BBX 6 8 1 0
BITMAP
FC
84
84
84
84
84
84
84
ENDCHAR
STARTCHAR afii10082
ENCODING 1088
SWIDTH 562 0
DWIDTH 9 0
BBX 6 11 1 -3
BITMAP
B8
C4
84
84
84
84
C4
B8
80
80
80
ENDCHAR
STARTCHAR afii10083
ENCODING 1089
SWIDTH 562 0
DWIDTH 9 0
BBX 6 8 1 0
BITMAP
38
44
80
80
80
80
44
38
ENDCHAR
STARTCHAR afii10084
ENCODING 1090
SWIDTH 562 0
DWIDTH 9 0
BBX 7 8 0 0
BITMAP
FE
10
10
10
10
10
10
10
ENDCHAR
STARTCHAR afii10085
ENCODING 1091
SWIDTH 562 0
DWIDTH 9 0
BBX 6 11 1 -3
BITMAP
84
84
44
48
28
28
10
10
10
20
20
ENDCHAR
STARTCHAR afii10086
ENCODING 1092
SWIDTH 562 0
DWIDTH 9 0
BBX 7 14 0 -3
BITMAP
10
10
10
7C
92
92
92
92
92
92
7C
10
10
10
ENDCHAR
STARTCHAR afii10087
ENCODING 1093
SWIDTH 562 0
DWIDTH 9 0
BBX 7 8 0 0
BITMAP
82
44
28
10
10
28
44
82
ENDCHAR
STARTCHAR afii10088
ENCODING 1094
SWIDTH 562 0
DWIDTH 9 0
BBX 7 10 1 -2
BITMAP
84
84
84
84
84
84
84
FE
02
02
ENDCHAR
STARTCHAR afii10089
ENCODING 1095
SWIDTH 562 0
DWIDTH 9 0
BBX 6 8 1 0
BITMAP
84
84
84
84
7C
04
04
04
ENDCHAR
STARTCHAR afii10090
ENCODING 1096
SWIDTH 562 0
DWIDTH 9 0
BBX 7 8 0 0
BITMAP
92
92
92
92
92
92
92
FE
ENDCHAR
STARTCHAR afii10091
ENCODING 1097
SWIDTH 562 0
DWIDTH 9 0
BBX 8 10 0 -2
BITMAP
92
92
92
92
92
92
92
FF
01
01
ENDCHAR
STARTCHAR afii10092
ENCODING 1098
SWIDTH 562 0
DWIDTH 9 0
BBX 7 9 0 0
BITMAP
E0
20
20
20
3C
22
22
22
3C
ENDCHAR
STARTCHAR afii10093
ENCODING 1099
SWIDTH 562 0
DWIDTH 9 0
BBX 7 8 0 0
BITMAP
82
82
82
F2
8A
8A
8A
F2
ENDCHAR
STARTCHAR afii10094
ENCODING 1100
SWIDTH 562 0
DWIDTH 9 0
BBX 6 8 1 0
BITMAP
80
80
80
F8
84
84
84
F8
ENDCHAR
STARTCHAR afii10095
ENCODING 1101
SWIDTH 562 0
DWIDTH 9 0
BBX 6 8 1 0
BITMAP
F0
08
04
7C
04
04
08
F0
ENDCHAR
STARTCHAR afii10096
ENCODING 1102
SWIDTH 562 0
DWIDTH 9 0
BBX 7 8 0 0
BITMAP
9C
A2
A2
E2
A2
A2
A2
9C
ENDCHAR
STARTCHAR afii10097
ENCODING 1103
SWIDTH 562 0
DWIDTH 9 0
BBX 6 8 1 0
BITMAP
7C
84
84
84
7C
24
44
84
ENDCHAR
STARTCHAR uni0450
ENCODING 1104
SWIDTH 562 0
DWIDTH 9 0
BBX 6 12 1 0
BITMAP
20
20
10
00
78
84
84
84
FC
80
80
7C
ENDCHAR
STARTCHAR afii10071
ENCODING 1105
SWIDTH 562 0
DWIDTH 9 0
BBX 6 11 1 0
BITMAP
48
00
00
78
84
84
84
FC
80
80
7C
ENDCHAR
STARTCHAR afii10099
ENCODING 1106
SWIDTH 562 0
DWIDTH 9 0
BBX 7 14 0 -3
BITMAP
40
40
40
F0
40
40
5C
62
42
42
42
02
02
04
ENDCHAR
STARTCHAR afii10100
ENCODING 1107
SWIDTH 562 0
DWIDTH 9 0
BBX 6 12 1 0
BITMAP
10
10
20
00
FC
80
80
80
80
80
80
80
ENDCHAR
STARTCHAR afii10101
ENCODING 1108
SWIDTH 562 0
DWIDTH 9 0
BBX 6 8 1 0
BITMAP
3C
40
80
F8
80
80
40
3C
ENDCHAR
STARTCHAR afii10102
ENCODING 1109
SWIDTH 562 0
DWIDTH 9 0
BBX 6 8 1 0
BITMAP
78
84
80
60
18
04
84
78
ENDCHAR
STARTCHAR afii10103
ENCODING 1110
SWIDTH 562 0
DWIDTH 9 0
BBX 5 11 2 0
BITMAP
20
00
00
E0
20
20
20
20
20
20
F8
ENDCHAR
STARTCHAR afii10104
ENCODING 1111
SWIDTH 562 0
DWIDTH 9 0
BBX 5 11 2 0
BITMAP
90
00
00
E0
20
20
20
20
20
20
F8
ENDCHAR
STARTCHAR afii10105
ENCODING 1112
SWIDTH 562 0
DWIDTH 9 0
BBX 3 14 2 -3
BITMAP
20
00
00
E0
20
20
20
20
20
20
20
20
20
C0
ENDCHAR
STARTCHAR afii10106
ENCODING 1113
SWIDTH 562 0
DWIDTH 9 0
BBX 8 8 0 0
BITMAP
78
48
48
4E
49
49
49
8E
ENDCHAR
STARTCHAR afii10107
ENCODING 1114
SWIDTH 562 0
DWIDTH 9 0
BBX 8 8 0 0
BITMAP
88
88
88
FE
89
89
89
8E
ENDCHAR
STARTCHAR afii10108
ENCODING 1115
SWIDTH 562 0
DWIDTH 9 0
BBX 8 11 0 0
BITMAP
20
20
F8
20
2E
31
21
21
21
21
21
ENDCHAR
STARTCHAR afii10109
ENCODING 1116
SWIDTH 562 0
DWIDTH 9 0
BBX 6 12 1 0
BITMAP
10
10
20
00
84
88
90
A0
E0
90
88
84
ENDCHAR
STARTCHAR uni045D
ENCODING 1117
SWIDTH 562 0
DWIDTH 9 0
BBX 6 12 1 0
BITMAP
20
20
10
00
8C
8C
94
94
A4
A4
C4
C4
ENDCHAR
STARTCHAR afii10110
ENCODING 1118
SWIDTH 562 0
DWIDTH 9 0
BBX 6 14 1 -3
BITMAP
48
30
00
84
84
44
48
28
28
10
10
10
20
20
ENDCHAR
STARTCHAR afii10193
ENCODING 1119
SWIDTH 562 0
DWIDTH 9 0
BBX 7 10 0 -2
BITMAP
82
82
82
82
82
82
82
FE
10
10
ENDCHAR
STARTCHAR uni0460
ENCODING 1120
SWIDTH 562 0
DWIDTH 9 0
BBX 7 11 0 0
BITMAP
44
82
82
82
92
92
92
92
92
92
6C
ENDCHAR
STARTCHAR uni0461
ENCODING 1121
SWIDTH 562 0
DWIDTH 9 0
BBX 7 8 0 0
BITMAP
44
82
82
92
92
92
92
6C
ENDCHAR
STARTCHAR afii10146
ENCODING 1122
SWIDTH 562 0
DWIDTH 9 0
BBX 8 11 0 0
BITMAP
20
F8
20
20
20
3E
21
21
21
21
3E
ENDCHAR
STARTCHAR afii10194
ENCODING 1123
SWIDTH 562 0
DWIDTH 9 0
BBX 8 11 0 0
BITMAP
20
20
20
20
F8
20
20
3E
21
21
3E
ENDCHAR
STARTCHAR uni0464
ENCODING 1124
SWIDTH 562 0
DWIDTH 9 0
BBX 7 11 0 0
BITMAP
8C
92
A0
A0
A0
FC
A0
A0
A0
92
8C
ENDCHAR
STARTCHAR uni0465
ENCODING 1125
SWIDTH 562 0
DWIDTH 9 0
BBX 7 8 0 0
BITMAP
9C
A2
A0
F8
A0
A0
92
8C
ENDCHAR
STARTCHAR uni0466
ENCODING 1126
SWIDTH 562 0
DWIDTH 9 0
BBX 7 11 0 0
BITMAP
10
10
28
28
28
44
44
7C
92
92
92
ENDCHAR
STARTCHAR uni0467
ENCODING 1127
SWIDTH 562 0
DWIDTH 9 0
BBX 7 8 0 0
BITMAP
10
10
28
28
44
7C
92
92
ENDCHAR
STARTCHAR uni0468
ENCODING 1128
SWIDTH 562 0
DWIDTH 9 0
BBX 7 11 0 0
BITMAP
88
88
88
88
94
F4
94
BE
AA
AA
AA
ENDCHAR
STARTCHAR uni0469
ENCODING 1129
SWIDTH 562 0
DWIDTH 9 0
BBX 7 8 0 0
BITMAP
88
88
94
F4
94
BE
AA
AA
ENDCHAR
STARTCHAR uni046A
ENCODING 1130
SWIDTH 562 0
DWIDTH 9 0
BBX 7 11 0 0
BITMAP
FE
82
44
28
10
38
54
54
92
92
92
ENDCHAR
STARTCHAR uni046B
ENCODING 1131
SWIDTH 562 0
DWIDTH 9 0
BBX 7 8 0 0
BITMAP
FE
44
28
10
38
54
92
92
ENDCHAR
STARTCHAR uni046C
ENCODING 1132
SWIDTH 562 0
DWIDTH 9 0
BBX 7 11 0 0
BITMAP
BE
A2
94
94
E8
9C
AA
AA
AA
AA
AA
ENDCHAR
STARTCHAR uni046D
ENCODING 1133
SWIDTH 562 0
DWIDTH 9 0
BBX 7 8 0 0
BITMAP
BE
A2
94
E8
9C
AA
AA
AA
ENDCHAR
STARTCHAR uni046E
ENCODING 1134
SWIDTH 562 0
DWIDTH 9 0
BBX 6 16 1 -3
BITMAP
50
20
78
84
04
04
04
78
04
04
04
04
78
80
80
78
ENDCHAR
STARTCHAR uni046F
ENCODING 1135
SWIDTH 562 0
DWIDTH 9 0
BBX 6 13 1 -3
BITMAP
50
20
78
84
04
38
04
04
04
78
80
80
78
ENDCHAR
STARTCHAR uni0470
ENCODING 1136
SWIDTH 562 0
DWIDTH 9 0
BBX 7 11 0 0
BITMAP
10
92
92
92
54
54
54
38
10
10
10
ENDCHAR
STARTCHAR uni0471
ENCODING 1137
SWIDTH 562 0
DWIDTH 9 0
BBX 7 12 0 -3
BITMAP
10
10
92
92
92
54
54
54
38
10
10
10
ENDCHAR
STARTCHAR afii10147
ENCODING 1138
SWIDTH 562 0
DWIDTH 9 0
BBX 7 11 0 0
BITMAP
38
44
82
82
82
F2
8E
82
82
44
38
ENDCHAR
STARTCHAR afii10195
ENCODING 1139
SWIDTH 562 0
DWIDTH 9 0
BBX 6 8 1 0
BITMAP
78
84
84
E4
9C
84
84
78
ENDCHAR
STARTCHAR afii10148
ENCODING 1140
SWIDTH 562 0
DWIDTH 9 0
BBX 8 11 0 0
BITMAP
83
84
84
44
44
48
28
28
28
10
10
ENDCHAR
STARTCHAR afii10196
ENCODING 1141
SWIDTH 562 0
DWIDTH 9 0
BBX 8 8 0 0
BITMAP
83
84
44
44
28
28
10
10
ENDCHAR
STARTCHAR uni0476
ENCODING 1142
SWIDTH 562 0
DWIDTH 9 0
BBX 8 13 0 0
BITMAP
48
24
00
83
84
44
44
48
28
28
28
10
10
ENDCHAR
STARTCHAR uni0477
ENCODING 1143
SWIDTH 562 0
DWIDTH 9 0
BBX 8 11 0 0
BITMAP
48
24
00
83
84
44
44
28
28
10
10
ENDCHAR
STARTCHAR uni0478
ENCODING 1144
SWIDTH 562 0
DWIDTH 9 0
BBX 8 14 0 -3
BITMAP
60
90
90
95
95
95
95
95
92
92
62
04
04
04
ENDCHAR
STARTCHAR uni0479
ENCODING 1145
SWIDTH 562 0
DWIDTH 9 0
BBX 8 11 0 -3
BITMAP
65
95
95
95
95
92
92
62
04
04
04
ENDCHAR
STARTCHAR uni047A
ENCODING 1146
SWIDTH 562 0
DWIDTH 9 0
BBX 7 12 0 -1
BITMAP
10
38
54
82
82
82
82
82
82
54
38
10
ENDCHAR
STARTCHAR uni047B
ENCODING 1147
SWIDTH 562 0
DWIDTH 9 0
BBX 7 10 0 -1
BITMAP
10
38
54
82
82
82
82
54
38
10
ENDCHAR
STARTCHAR uni047C
ENCODING 1148
SWIDTH 562 0
DWIDTH 9 0
BBX 8 13 0 0
BITMAP
3C
42
18
4A
91
81
81
81
81
81
81
99
66
ENDCHAR
STARTCHAR uni047D
ENCODING 1149
SWIDTH 562 0
DWIDTH 9 0
BBX 8 13 0 0
BITMAP
3C
42
18
08
10
42
81
81
81
81
81
99
66
ENDCHAR
STARTCHAR uni047E
ENCODING 1150
SWIDTH 562 0
DWIDTH 9 0
BBX 7 13 0 0
BITMAP
FE
54
00
44
82
82
82
82
82
92
92
92
6C
ENDCHAR
STARTCHAR uni047F
ENCODING 1151
SWIDTH 562 0
DWIDTH 9 0
BBX 7 11 0 0
BITMAP
FE
54
00
44
82
82
82
92
92
92
6C
ENDCHAR
STARTCHAR uni0480
ENCODING 1152
SWIDTH 562 0
DWIDTH 9 0
BBX 6 14 1 -3
BITMAP
38
44
80
80
80
80
80
80
80
40
38
08
08
08
ENDCHAR
STARTCHAR uni0481
ENCODING 1153
SWIDTH 562 0
DWIDTH 9 0
BBX 6 11 1 -3
BITMAP
38
44
80
80
80
80
40
38
08
08
08
ENDCHAR
STARTCHAR uni0482
ENCODING 1154
SWIDTH 562 0
DWIDTH 9 0
BBX 7 8 1 -1
BITMAP
04
34
08
16
D0
20
58
40
ENDCHAR
STARTCHAR uni048A
ENCODING 1162
SWIDTH 562 0
DWIDTH 9 0
BBX 7 16 1 -3
BITMAP
48
30
00
84
8C
8C
94
94
A4
A4
C4
C4
84
02
04
08
ENDCHAR
STARTCHAR uni048B
ENCODING 1163
SWIDTH 562 0
DWIDTH 9 0
BBX 7 14 1 -3
BITMAP
48
30
00
8C
8C
94
94
A4
A4
C4
C4
02
04
08
ENDCHAR
STARTCHAR uni048C
ENCODING 1164
SWIDTH 562 0
DWIDTH 9 0
BBX 7 11 0 0
BITMAP
40
40
F0
40
40
7C
42
42
42
42
7C
ENDCHAR
STARTCHAR uni048D
ENCODING 1165
SWIDTH 562 0
DWIDTH 9 0
BBX 7 8 0 0
BITMAP
40
F0
40
7C
42
42
42
7C
ENDCHAR
STARTCHAR uni048E
ENCODING 1166
SWIDTH 562 0
DWIDTH 9 0
BBX 6 11 1 0
BITMAP
F0
88
84
84
94
88
F4
80
80
80
80
ENDCHAR
STARTCHAR uni048F
ENCODING 1167
SWIDTH 562 0
DWIDTH 9 0
BBX 6 11 1 -3
BITMAP
B8
C4
84
84
84
94
C8
B4
80
80
80
ENDCHAR
STARTCHAR afii10050
ENCODING 1168
SWIDTH 562 0
DWIDTH 9 0
BBX 6 13 1 0
BITMAP
04
04
FC
80
80
80
80
80
80
80
80
80
80
ENDCHAR
STARTCHAR afii10098
ENCODING 1169
SWIDTH 562 0
DWIDTH 9 0
BBX 6 10 1 0
BITMAP
04
04
FC
80
80
80
80
80
80
80
ENDCHAR
STARTCHAR uni0492
ENCODING 1170
SWIDTH 562 0
DWIDTH 9 0
BBX 7 11 0 0
BITMAP
7E
40
40
40
40
F0
40
40
40
40
40
ENDCHAR
STARTCHAR uni0493
ENCODING 1171
SWIDTH 562 0
DWIDTH 9 0
BBX 7 8 0 0
BITMAP
7E
40
40
F0
40
40
40
40
ENDCHAR
STARTCHAR uni0494
ENCODING 1172
SWIDTH 562 0
DWIDTH 9 0
BBX 6 14 1 -3
BITMAP
FC
80
80
80
80
F0
88
84
84
84
84
04
08
30
ENDCHAR
STARTCHAR uni0495
ENCODING 1173
SWIDTH 562 0
DWIDTH 9 0
BBX 6 11 1 -3
BITMAP
FC
80
80
80
F0
88
84
84
04
08
30
ENDCHAR
STARTCHAR uni0496
ENCODING 1174
SWIDTH 562 0
DWIDTH 9 0
BBX 7 14 0 -3
BITMAP
92
92
54
54
38
38
38
54
54
92
92
02
02
02
ENDCHAR
STARTCHAR uni0497
ENCODING 1175
SWIDTH 562 0
DWIDTH 9 0
BBX 7 11 0 -3
BITMAP
92
54
54
38
38
54
54
92
02
02
02
ENDCHAR
STARTCHAR uni0498
ENCODING 1176
SWIDTH 562 0
DWIDTH 9 0
BBX 6 14 1 -3
BITMAP
78
84
04
04
04
78
04
04
04
84
78
10
08
30
ENDCHAR
STARTCHAR uni0499
ENCODING 1177
SWIDTH 562 0
DWIDTH 9 0
BBX 6 11 1 -3
BITMAP
F8
04
04
78
04
04
04
F8
10
08
30
ENDCHAR
STARTCHAR uni049A
ENCODING 1178
SWIDTH 562 0
DWIDTH 9 0
BBX 6 14 1 -3
BITMAP
84
88
90
A0
C0
80
C0
A0
90
88
84
04
04
04
ENDCHAR
STARTCHAR uni049B
ENCODING 1179
SWIDTH 562 0
DWIDTH 9 0
BBX 6 10 1 -2
BITMAP
84
88
90
A0
E0
90
88
84
04
04
ENDCHAR
STARTCHAR uni049C
ENCODING 1180
SWIDTH 562 0
DWIDTH 9 0
BBX 7 11 1 0
BITMAP
82
84
84
A8
A8
F0
A8
A8
84
84
82
ENDCHAR
STARTCHAR uni049D
ENCODING 1181
SWIDTH 562 0
DWIDTH 9 0
BBX 7 8 1 0
BITMAP
82
84
A8
B0
F0
A8
A4
82
ENDCHAR
STARTCHAR uni049E
ENCODING 1182
SWIDTH 562 0
DWIDTH 9 0
BBX 7 11 0 0
BITMAP
42
E4
48
50
60
40
60
50
48
44
42
ENDCHAR
STARTCHAR uni049F
ENCODING 1183
SWIDTH 562 0
DWIDTH 9 0
BBX 7 11 0 0
BITMAP
40
40
E0
42
44
48
50
70
48
44
42
ENDCHAR
STARTCHAR uni04A0
ENCODING 1184
SWIDTH 562 0
DWIDTH 9 0
BBX 6 11 1 0
BITMAP
84
88
90
A0
C0
80
C0
A0
90
88
84
ENDCHAR
STARTCHAR uni04A1
ENCODING 1185
SWIDTH 562 0
DWIDTH 9 0
BBX 6 8 1 0
BITMAP
84
88
90
A0
E0
90
88
84
ENDCHAR
STARTCHAR uni04A2
ENCODING 1186
SWIDTH 562 0
DWIDTH 9 0
BBX 7 14 1 -3
BITMAP
84
84
84
84
84
FC
84
84
84
84
86
02
02
02
ENDCHAR
STARTCHAR uni04A3
ENCODING 1187
SWIDTH 562 0
DWIDTH 9 0
BBX 7 10 1 -2
BITMAP
84
84
84
FC
84
84
84
86
02
02
ENDCHAR
STARTCHAR uni04A4
ENCODING 1188
SWIDTH 562 0
DWIDTH 9 0
BBX 8 11 0 0
BITMAP
87
84
84
84
84
FC
84
84
84
84
84
ENDCHAR
STARTCHAR uni04A5
ENCODING 1189
SWIDTH 562 0
DWIDTH 9 0
BBX 8 8 0 0
BITMAP
87
84
84
FC
84
84
84
84
ENDCHAR
STARTCHAR uni04A6
ENCODING 1190
SWIDTH 562 0
DWIDTH 9 0
BBX 8 14 0 -3
BITMAP
F8
88
88
88
88
8E
89
89
89
89
89
01
01
02
ENDCHAR
STARTCHAR uni04A7
ENCODING 1191
SWIDTH 562 0
DWIDTH 9 0
BBX 8 11 0 -3
BITMAP
F8
88
88
88
8E
89
89
89
01
01
02
ENDCHAR
STARTCHAR uni04A8
ENCODING 1192
SWIDTH 562 0
DWIDTH 9 0
BBX 8 11 0 0
BITMAP
20
40
8C
92
92
92
92
92
92
4C
33
ENDCHAR
STARTCHAR uni04A9
ENCODING 1193
SWIDTH 562 0
DWIDTH 9 0
BBX 7 8 1 0
BITMAP
40
88
94
94
94
94
48
36
ENDCHAR
STARTCHAR uni04AA
ENCODING 1194
SWIDTH 562 0
DWIDTH 9 0
BBX 6 14 1 -3
BITMAP
78
84
80
80
80
80
80
80
80
84
78
10
08
30
ENDCHAR
STARTCHAR uni04AB
ENCODING 1195
SWIDTH 562 0
DWIDTH 9 0
BBX 6 11 1 -3
BITMAP
78
84
80
80
80
80
84
78
20
10
60
ENDCHAR
STARTCHAR uni04AC
ENCODING 1196
SWIDTH 562 0
DWIDTH 9 0
BBX 7 14 0 -3
BITMAP
FE
10
10
10
10
10
10
10
10
10
18
08
08
08
ENDCHAR
STARTCHAR uni04AD
ENCODING 1197
SWIDTH 562 0
DWIDTH 9 0
BBX 7 10 0 -2
BITMAP
FE
10
10
10
10
10
10
18
08
08
ENDCHAR
STARTCHAR uni04AE
ENCODING 1198
SWIDTH 562 0
DWIDTH 9 0
BBX 7 11 0 0
BITMAP
82
82
44
44
28
28
10
10
10
10
10
ENDCHAR
STARTCHAR uni04AF
ENCODING 1199
SWIDTH 562 0
DWIDTH 9 0
BBX 7 11 0 -3
BITMAP
82
82
44
44
28
28
10
10
10
10
10
ENDCHAR
STARTCHAR uni04B0
ENCODING 1200
SWIDTH 562 0
DWIDTH 9 0
BBX 7 11 0 0
BITMAP
82
82
44
44
28
28
FE
10
10
10
10
ENDCHAR
STARTCHAR uni04B1
ENCODING 1201
SWIDTH 562 0
DWIDTH 9 0
BBX 7 11 0 -3
BITMAP
82
82
44
44
28
28
10
7C
10
10
10
ENDCHAR
STARTCHAR uni04B2
ENCODING 1202
SWIDTH 562 0
DWIDTH 9 0
BBX 8 14 0 -3
BITMAP
82
82
44
28
28
10
28
28
44
82
83
01
01
01
ENDCHAR
STARTCHAR uni04B3
ENCODING 1203
SWIDTH 562 0
DWIDTH 9 0
BBX 8 10 0 -2
BITMAP
82
44
28
10
10
28
44
83
01
01
ENDCHAR
STARTCHAR uni04B4
ENCODING 1204
SWIDTH 562 0
DWIDTH 9 0
BBX 8 14 0 -3
BITMAP
FA
22
22
22
22
22
22
22
22
22
3F
01
01
01
ENDCHAR
STARTCHAR uni04B5
ENCODING 1205
SWIDTH 562 0
DWIDTH 9 0
BBX 8 10 0 -2
BITMAP
FA
22
22
22
22
22
22
3F
01
01
ENDCHAR
STARTCHAR uni04B6
ENCODING 1206
SWIDTH 562 0
DWIDTH 9 0
BBX 7 14 1 -3
BITMAP
84
84
84
84
84
7C
04
04
04
04
06
02
02
02
ENDCHAR
STARTCHAR uni04B7
ENCODING 1207
SWIDTH 562 0
DWIDTH 9 0
BBX 7 10 1 -2
BITMAP
84
84
84
84
7C
04
04
06
02
02
ENDCHAR
STARTCHAR uni04B8
ENCODING 1208
SWIDTH 562 0
DWIDTH 9 0
BBX 6 11 1 0
BITMAP
84
84
84
A4
A4
7C
24
24
04
04
04
ENDCHAR
STARTCHAR uni04B9
ENCODING 1209
SWIDTH 562 0
DWIDTH 9 0
BBX 6 8 1 0
BITMAP
84
84
84
A4
7C
24
04
04
ENDCHAR
STARTCHAR uni04BA
ENCODING 1210
SWIDTH 562 0
DWIDTH 9 0
BBX 6 11 1 0
BITMAP
80
80
80
80
80
F8
84
84
84
84
84
ENDCHAR
STARTCHAR uni04BB
ENCODING 1211
SWIDTH 562 0
DWIDTH 9 0
BBX 6 8 1 0
BITMAP
80
80
80
F8
84
84
84
84
ENDCHAR
STARTCHAR uni04BC
ENCODING 1212
SWIDTH 562 0
DWIDTH 9 0
BBX 8 11 0 0
BITMAP
0C
12
21
21
A1
7F
20
20
20
10
0F
ENDCHAR
STARTCHAR uni04BD
ENCODING 1213
SWIDTH 562 0
DWIDTH 9 0
BBX 8 8 0 0
BITMAP
1E
21
21
A1
7F
20
20
1F
ENDCHAR
STARTCHAR uni04BE
ENCODING 1214
SWIDTH 562 0
DWIDTH 9 0
BBX 8 13 0 -2
BITMAP
0C
12
21
21
A1
7F
20
20
20
10
0F
04
04
ENDCHAR
STARTCHAR uni04BF
ENCODING 1215
SWIDTH 562 0
DWIDTH 9 0
BBX 8 10 0 -2
BITMAP
1E
21
21
A1
7F
20
20
1F
04
04
ENDCHAR
STARTCHAR uni04C0
ENCODING 1216
SWIDTH 562 0
DWIDTH 9 0
BBX 5 11 1 0
BITMAP
F8
20
20
20
20
20
20
20
20
20
F8
ENDCHAR
STARTCHAR uni04C1
ENCODING 1217
SWIDTH 562 0
DWIDTH 9 0
BBX 7 13 0 0
BITMAP
44
38
00
92
92
54
54
38
38
54
54
92
92
ENDCHAR
STARTCHAR uni04C2
ENCODING 1218
SWIDTH 562 0
DWIDTH 9 0
BBX 7 12 0 0
BITMAP
44
38
00
00
92
54
54
38
38
54
54
92
ENDCHAR
STARTCHAR uni04C3
ENCODING 1219
SWIDTH 562 0
DWIDTH 9 0
BBX 6 14 1 -3
BITMAP
84
88
90
A0
C0
80
F8
84
84
84
84
04
04
18
ENDCHAR
STARTCHAR uni04C4
ENCODING 1220
SWIDTH 562 0
DWIDTH 9 0
BBX 6 11 1 -3
BITMAP
84
88
90
A0
F8
84
84
84
04
04
18
ENDCHAR
STARTCHAR uni04C5
ENCODING 1221
SWIDTH 562 0
DWIDTH 9 0
BBX 8 14 0 -3
BITMAP
7E
42
42
42
42
42
42
42
42
42
82
01
02
04
ENDCHAR
STARTCHAR uni04C6
ENCODING 1222
SWIDTH 562 0
DWIDTH 9 0
BBX 8 11 0 -3
BITMAP
7E
42
42
42
42
42
42
82
01
02
04
ENDCHAR
STARTCHAR uni04C7
ENCODING 1223
SWIDTH 562 0
DWIDTH 9 0
BBX 6 14 1 -3
BITMAP
84
84
84
84
84
FC
84
84
84
84
84
04
04
18
ENDCHAR
STARTCHAR uni04C8
ENCODING 1224
SWIDTH 562 0
DWIDTH 9 0
BBX 6 11 1 -3
BITMAP
84
84
84
FC
84
84
84
84
04
04
18
ENDCHAR
STARTCHAR uni04C9
ENCODING 1225
SWIDTH 562 0
DWIDTH 9 0
BBX 7 14 1 -3
BITMAP
84
84
84
84
84
FC
84
84
84
84
84
02
04
08
ENDCHAR
STARTCHAR uni04CA
ENCODING 1226
SWIDTH 562 0
DWIDTH 9 0
BBX 7 11 1 -3
BITMAP
84
84
84
FC
84
84
84
84
02
04
08
ENDCHAR
STARTCHAR uni04CB
ENCODING 1227
SWIDTH 562 0
DWIDTH 9 0
BBX 6 13 1 -2
BITMAP
84
84
84
84
84
7C
04
04
04
04
0C
08
08
ENDCHAR
STARTCHAR uni04CC
ENCODING 1228
SWIDTH 562 0
DWIDTH 9 0
BBX 6 10 1 -2
BITMAP
84
84
84
84
7C
04
04
0C
08
08
ENDCHAR
STARTCHAR uni04CD
ENCODING 1229
SWIDTH 562 0
DWIDTH 9 0
BBX 8 14 0 -3
BITMAP
82
82
C6
C6
AA
AA
92
92
82
82
82
01
02
04
ENDCHAR
STARTCHAR uni04CE
ENCODING 1230
SWIDTH 562 0
DWIDTH 9 0
BBX 8 11 0 -3
BITMAP
82
C6
C6
AA
AA
92
92
82
01
02
04
ENDCHAR
STARTCHAR uni04CF
ENCODING 1231
SWIDTH 562 0
DWIDTH 9 0
BBX 5 10 1 0
BITMAP
F8
20
20
20
20
20
20
20
20
F8
ENDCHAR
STARTCHAR uni04D0
ENCODING 1232
SWIDTH 562 0
DWIDTH 9 0
BBX 7 13 0 0
BITMAP
24
18
00
10
10
28
28
28
44
44
7C
82
82
ENDCHAR
STARTCHAR uni04D1
ENCODING 1233
SWIDTH 562 0
DWIDTH 9 0
BBX 6 11 1 0
BITMAP
48
30
00
78
84
04
7C
84
84
84
7C
ENDCHAR
STARTCHAR uni04D2
ENCODING 1234
SWIDTH 562 0
DWIDTH 9 0
BBX 7 13 0 0
BITMAP
24
00
10
10
28
28
28
44
44
7C
82
82
82
ENDCHAR
STARTCHAR uni04D3
ENCODING 1235
SWIDTH 562 0
DWIDTH 9 0
BBX 6 11 1 0
BITMAP
48
00
00
78
84
04
7C
84
84
84
7C
ENDCHAR
STARTCHAR uni04D4
ENCODING 1236
SWIDTH 562 0
DWIDTH 9 0
BBX 8 11 0 0
BITMAP
1F
18
28
28
28
4F
48
78
88
88
8F
ENDCHAR
STARTCHAR uni04D5
ENCODING 1237
SWIDTH 562 0
DWIDTH 9 0
BBX 7 8 0 0
BITMAP
6C
92
12
72
9C
90
90
7E
ENDCHAR
STARTCHAR uni04D6
ENCODING 1238
SWIDTH 562 0
DWIDTH 9 0
BBX 6 13 1 0
BITMAP
48
30
00
FC
80
80
80
F8
80
80
80
80
FC
ENDCHAR
STARTCHAR uni04D7
ENCODING 1239
SWIDTH 562 0
DWIDTH 9 0
BBX 6 11 1 0
BITMAP
48
30
00
78
84
84
84
FC
80
80
7C
ENDCHAR
STARTCHAR uni04D8
ENCODING 1240
SWIDTH 562 0
DWIDTH 9 0
BBX 6 11 1 0
BITMAP
78
84
04
04
04
FC
84
84
84
84
78
ENDCHAR
STARTCHAR afii10846
ENCODING 1241
SWIDTH 562 0
DWIDTH 9 0
BBX 6 8 1 0
BITMAP
F8
04
04
FC
84
84
84
78
ENDCHAR
STARTCHAR uni04DA
ENCODING 1242
SWIDTH 562 0
DWIDTH 9 0
BBX 6 13 1 0
BITMAP
48
00
78
84
04
04
04
FC
84
84
84
84
78
ENDCHAR
STARTCHAR uni04DB
ENCODING 1243
SWIDTH 562 0
DWIDTH 9 0
BBX 6 11 1 0
BITMAP
48
00
00
F8
04
04
FC
84
84
84
78
ENDCHAR
STARTCHAR uni04DC
ENCODING 1244
SWIDTH 562 0
DWIDTH 9 0
BBX 7 13 0 0
BITMAP
24
00
92
92
54
54
38
38
38
54
54
92
92
ENDCHAR
STARTCHAR uni04DD
ENCODING 1245
SWIDTH 562 0
DWIDTH 9 0
BBX 7 11 0 0
BITMAP
24
00
00
92
54
54
38
38
54
54
92
ENDCHAR
STARTCHAR uni04DE
ENCODING 1246
SWIDTH 562 0
DWIDTH 9 0
BBX 6 13 1 0
BITMAP
48
00
78
84
04
04
04
78
04
04
04
84
78
ENDCHAR
STARTCHAR uni04DF
ENCODING 1247
SWIDTH 562 0
DWIDTH 9 0
BBX 6 11 1 0
BITMAP
48
00
00
F8
04
04
78
04
04
04
F8
ENDCHAR
STARTCHAR uni04E0
ENCODING 1248
SWIDTH 562 0
DWIDTH 9 0
BBX 6 11 1 0
BITMAP
FC
04
08
10
30
08
04
04
04
88
70
ENDCHAR
STARTCHAR uni04E1
ENCODING 1249
SWIDTH 562 0
DWIDTH 9 0
BBX 6 11 1 -3
BITMAP
FC
04
08
10
30
08
04
04
04
88
70
ENDCHAR
STARTCHAR uni04E2
ENCODING 1250
SWIDTH 562 0
DWIDTH 9 0
BBX 6 13 1 0
BITMAP
78
00
84
8C
8C
94
94
A4
A4
C4
C4
84
84
ENDCHAR
STARTCHAR uni04E3
ENCODING 1251
SWIDTH 562 0
DWIDTH 9 0
BBX 6 11 1 0
BITMAP
78
00
00
8C
8C
94
94
A4
A4
C4
C4
ENDCHAR
STARTCHAR uni04E4
ENCODING 1252
SWIDTH 562 0
DWIDTH 9 0
BBX 6 13 1 0
BITMAP
48
00
84
8C
8C
94
94
A4
A4
C4
C4
84
84
ENDCHAR
STARTCHAR uni04E5
ENCODING 1253
SWIDTH 562 0
DWIDTH 9 0
BBX 6 11 1 0
BITMAP
48
00
00
8C
8C
94
94
A4
A4
C4
C4
ENDCHAR
STARTCHAR uni04E6
ENCODING 1254
SWIDTH 562 0
DWIDTH 9 0
BBX 7 13 0 0
BITMAP
28
00
38
44
82
82
82
82
82
82
82
44
38
ENDCHAR
STARTCHAR uni04E7
ENCODING 1255
SWIDTH 562 0
DWIDTH 9 0
BBX 6 11 1 0
BITMAP
48
00
00
78
84
84
84
84
84
84
78
ENDCHAR
STARTCHAR uni04E8
ENCODING 1256
SWIDTH 562 0
DWIDTH 9 0
BBX 6 11 1 0
BITMAP
30
48
84
84
84
FC
84
84
84
48
30
ENDCHAR
STARTCHAR uni04E9
ENCODING 1257
SWIDTH 562 0
DWIDTH 9 0
BBX 6 8 1 0
BITMAP
78
84
84
FC
84
84
84
78
ENDCHAR
STARTCHAR uni04EA
ENCODING 1258
SWIDTH 562 0
DWIDTH 9 0
BBX 6 13 1 0
BITMAP
48
00
30
48
84
84
84
FC
84
84
84
48
30
ENDCHAR
STARTCHAR uni04EB
ENCODING 1259
SWIDTH 562 0
DWIDTH 9 0
BBX 6 11 1 0
BITMAP
48
00
00
78
84
84
FC
84
84
84
78
ENDCHAR
STARTCHAR uni04EC
ENCODING 1260
SWIDTH 562 0
DWIDTH 9 0
BBX 6 13 1 0
BITMAP
48
00
70
88
04
04
04
7C
04
04
04
88
70
ENDCHAR
STARTCHAR uni04ED
ENCODING 1261
SWIDTH 562 0
DWIDTH 9 0
BBX 6 11 1 0
BITMAP
48
00
00
F0
08
04
7C
04
04
08
F0
ENDCHAR
STARTCHAR uni04EE
ENCODING 1262
SWIDTH 562 0
DWIDTH 9 0
BBX 6 13 1 0
BITMAP
78
00
84
84
44
48
28
28
10
10
10
20
20
ENDCHAR
STARTCHAR uni04EF
ENCODING 1263
SWIDTH 562 0
DWIDTH 9 0
BBX 6 14 1 -3
BITMAP
78
00
00
84
84
44
48
28
28
10
10
10
20
20
ENDCHAR
STARTCHAR uni04F0
ENCODING 1264
SWIDTH 562 0
DWIDTH 9 0
BBX 6 13 1 0
BITMAP
48
00
84
84
44
48
28
28
10
10
10
20
20
ENDCHAR
STARTCHAR uni04F1
ENCODING 1265
SWIDTH 562 0
DWIDTH 9 0
BBX 6 14 1 -3
BITMAP
48
00
00
84
84
44
48
28
28
10
10
10
20
20
ENDCHAR
STARTCHAR uni04F2
ENCODING 1266
SWIDTH 562 0
DWIDTH 9 0
BBX 6 13 1 0
BITMAP
24
48
00
84
84
44
48
28
28
10
10
10
20
ENDCHAR
STARTCHAR uni04F3
ENCODING 1267
SWIDTH 562 0
DWIDTH 9 0
BBX 6 16 1 -3
BITMAP
24
24
48
00
00
84
84
44
48
28
28
10
10
10
20
20
ENDCHAR
STARTCHAR uni04F4
ENCODING 1268
SWIDTH 562 0
DWIDTH 9 0
BBX 6 13 1 0
BITMAP
48
00
84
84
84
84
84
7C
04
04
04
04
04
ENDCHAR
STARTCHAR uni04F5
ENCODING 1269
SWIDTH 562 0
DWIDTH 9 0
BBX 6 11 1 0
BITMAP
48
00
00
84
84
84
84
7C
04
04
04
ENDCHAR
STARTCHAR uni04F6
ENCODING 1270
SWIDTH 562 0
DWIDTH 9 0
BBX 6 13 1 -2
BITMAP
FC
80
80
80
80
80
80
80
80
80
C0
40
40
ENDCHAR
STARTCHAR uni04F7
ENCODING 1271
SWIDTH 562 0
DWIDTH 9 0
BBX 6 10 1 -2
BITMAP
FC
80
80
80
80
80
80
C0
40
40
ENDCHAR
STARTCHAR uni04F8
ENCODING 1272
SWIDTH 562 0
DWIDTH 9 0
BBX 7 13 0 0
BITMAP
28
00
82
82
82
82
82
F2
8A
8A
8A
8A
F2
ENDCHAR
STARTCHAR uni04F9
ENCODING 1273
SWIDTH 562 0
DWIDTH 9 0
BBX 7 11 0 0
BITMAP
28
00
00
82
82
82
F2
8A
8A
8A
F2
ENDCHAR
STARTCHAR uni04FA
ENCODING 1274
SWIDTH 562 0
DWIDTH 9 0
BBX 7 14 0 -3
BITMAP
7E
40
40
40
40
F0
40
40
40
40
70
10
10
60
ENDCHAR
STARTCHAR uni04FB
ENCODING 1275
SWIDTH 562 0
DWIDTH 9 0
BBX 7 11 0 -3
BITMAP
7E
40
40
F0
40
40
40
70
10
10
60
ENDCHAR
STARTCHAR uni04FC
ENCODING 1276
SWIDTH 562 0
DWIDTH 9 0
BBX 7 14 0 -3
BITMAP
82
82
44
28
28
10
28
28
44
82
82
02
02
0C
ENDCHAR
STARTCHAR uni04FD
ENCODING 1277
SWIDTH 562 0
DWIDTH 9 0
BBX 7 11 0 -3
BITMAP
82
44
28
10
10
28
44
82
02
02
0C
ENDCHAR
STARTCHAR uni04FE
ENCODING 1278
SWIDTH 562 0
DWIDTH 9 0
BBX 7 11 0 0
BITMAP
82
82
44
28
28
FE
28
28
44
82
82
ENDCHAR
STARTCHAR uni04FF
ENCODING 1279
SWIDTH 562 0
DWIDTH 9 0
BBX 7 8 0 0
BITMAP
82
44
28
10
FE
28
44
82
ENDCHAR
STARTCHAR uni0500
ENCODING 1280
SWIDTH 562 0
DWIDTH 9 0
BBX 6 11 1 0
BITMAP
04
04
04
04
3C
44
84
84
84
44
3C
ENDCHAR
STARTCHAR uni0501
ENCODING 1281
SWIDTH 562 0
DWIDTH 9 0
BBX 6 8 1 0
BITMAP
04
04
04
7C
84
84
84
7C
ENDCHAR
STARTCHAR uni0502
ENCODING 1282
SWIDTH 562 0
DWIDTH 9 0
BBX 7 11 0 0
BITMAP
10
10
10
12
12
72
92
92
92
92
6C
ENDCHAR
STARTCHAR uni0503
ENCODING 1283
SWIDTH 562 0
DWIDTH 9 0
BBX 7 8 0 0
BITMAP
10
10
12
72
92
92
92
6C
ENDCHAR
STARTCHAR uni0504
ENCODING 1284
SWIDTH 562 0
DWIDTH 9 0
BBX 7 11 0 0
BITMAP
60
90
10
12
12
62
12
12
12
12
0C
ENDCHAR
STARTCHAR uni0505
ENCODING 1285
SWIDTH 562 0
DWIDTH 9 0
BBX 7 8 0 0
BITMAP
62
92
12
62
12
12
12
0C
ENDCHAR
STARTCHAR uni0506
ENCODING 1286
SWIDTH 562 0
DWIDTH 9 0
BBX 7 13 1 -2
BITMAP
78
84
04
04
04
38
04
04
04
04
06
02
02
ENDCHAR
STARTCHAR uni0507
ENCODING 1287
SWIDTH 562 0
DWIDTH 9 0
BBX 7 10 1 -2
BITMAP
78
84
04
38
04
04
04
06
02
02
ENDCHAR
STARTCHAR uni0508
ENCODING 1288
SWIDTH 562 0
DWIDTH 9 0
BBX 8 11 0 0
BITMAP
78
48
48
49
49
49
49
49
49
49
86
ENDCHAR
STARTCHAR uni0509
ENCODING 1289
SWIDTH 562 0
DWIDTH 9 0
BBX 8 8 0 0
BITMAP
78
48
49
49
49
49
49
86
ENDCHAR
STARTCHAR uni050A
ENCODING 1290
SWIDTH 562 0
DWIDTH 9 0
BBX 8 11 0 0
BITMAP
88
88
88
89
89
F9
89
89
89
89
86
ENDCHAR
STARTCHAR uni050B
ENCODING 1291
SWIDTH 562 0
DWIDTH 9 0
BBX 8 8 0 0
BITMAP
88
88
89
F9
89
89
89
86
ENDCHAR
STARTCHAR uni050C
ENCODING 1292
SWIDTH 562 0
DWIDTH 9 0
BBX 6 11 1 0
BITMAP
38
44
80
80
80
84
84
84
84
44
38
ENDCHAR
STARTCHAR uni050D
ENCODING 1293
SWIDTH 562 0
DWIDTH 9 0
BBX 6 8 1 0
BITMAP
38
44
80
80
84
84
44
38
ENDCHAR
STARTCHAR uni050E
ENCODING 1294
SWIDTH 562 0
DWIDTH 9 0
BBX 8 11 0 0
BITMAP
FE
10
10
10
11
11
11
11
11
11
0E
ENDCHAR
STARTCHAR uni050F
ENCODING 1295
SWIDTH 562 0
DWIDTH 9 0
BBX 8 8 0 0
BITMAP
FE
10
10
11
11
11
11
0E
ENDCHAR
STARTCHAR uni0510
ENCODING 1296
SWIDTH 562 0
DWIDTH 9 0
BBX 6 11 1 0
BITMAP
78
84
80
80
80
70
80
80
80
84
78
ENDCHAR
STARTCHAR uni0511
ENCODING 1297
SWIDTH 562 0
DWIDTH 9 0
BBX 6 8 1 0
BITMAP
7C
80
80
70
80
80
80
7C
ENDCHAR
STARTCHAR uni0512
ENCODING 1298
SWIDTH 562 0
DWIDTH 9 0
BBX 8 14 0 -3
BITMAP
3F
21
21
21
21
21
21
21
21
21
C1
01
01
06
ENDCHAR
STARTCHAR uni0513
ENCODING 1299
SWIDTH 562 0
DWIDTH 9 0
BBX 7 11 0 -3
BITMAP
7E
42
42
42
42
42
42
82
02
02
0C
ENDCHAR
STARTCHAR uni0514
ENCODING 1300
SWIDTH 562 0
DWIDTH 9 0
BBX 8 11 0 0
BITMAP
71
51
51
4A
4A
44
4A
4A
51
51
91
ENDCHAR
STARTCHAR uni0515
ENCODING 1301
SWIDTH 562 0
DWIDTH 9 0
BBX 8 8 0 0
BITMAP
71
51
4A
44
44
4A
51
91
ENDCHAR
STARTCHAR uni0516
ENCODING 1302
SWIDTH 562 0
DWIDTH 9 0
BBX 8 11 0 0
BITMAP
F1
89
8A
8A
8C
F4
84
82
82
81
81
ENDCHAR
STARTCHAR uni0517
ENCODING 1303
SWIDTH 562 0
DWIDTH 9 0
BBX 8 11 0 -3
BITMAP
B1
CA
8A
8C
8C
8A
CA
B1
80
80
80
ENDCHAR
STARTCHAR uni0518
ENCODING 1304
SWIDTH 562 0
DWIDTH 9 0
BBX 8 11 0 0
BITMAP
7F
88
88
88
88
7F
28
48
48
88
8F
ENDCHAR
STARTCHAR uni0519
ENCODING 1305
SWIDTH 562 0
DWIDTH 9 0
BBX 8 8 0 0
BITMAP
76
89
89
89
7F
28
48
87
ENDCHAR
STARTCHAR uni051A
ENCODING 1306
SWIDTH 562 0
DWIDTH 9 0
BBX 7 13 0 -2
BITMAP
38
44
82
82
82
82
82
82
82
44
38
04
02
ENDCHAR
STARTCHAR uni051B
ENCODING 1307
SWIDTH 562 0
DWIDTH 9 0
BBX 6 11 1 -3
BITMAP
74
8C
84
84
84
84
8C
74
04
04
04
ENDCHAR
STARTCHAR uni051C
ENCODING 1308
SWIDTH 562 0
DWIDTH 9 0
BBX 7 11 0 0
BITMAP
82
82
82
92
92
AA
AA
C6
C6
82
82
ENDCHAR
STARTCHAR uni051D
ENCODING 1309
SWIDTH 562 0
DWIDTH 9 0
BBX 7 8 0 0
BITMAP
82
82
82
92
92
AA
C6
82
ENDCHAR
STARTCHAR uni051E
ENCODING 1310
SWIDTH 562 0
DWIDTH 9 0
BBX 6 11 1 0
BITMAP
84
A8
90
A8
C0
80
C0
A0
90
88
84
ENDCHAR
STARTCHAR uni051F
ENCODING 1311
SWIDTH 562 0
DWIDTH 9 0
BBX 6 9 1 0
BITMAP
94
88
94
A0
C0
B0
88
84
84
ENDCHAR
STARTCHAR uni0520
ENCODING 1312
SWIDTH 562 0
DWIDTH 9 0
BBX 8 14 0 -3
BITMAP
78
48
48
48
48
4E
49
49
49
49
89
01
01
02
ENDCHAR
STARTCHAR uni0521
ENCODING 1313
SWIDTH 562 0
DWIDTH 9 0
BBX 8 11 0 -3
BITMAP
78
48
48
4E
49
49
49
89
01
01
02
ENDCHAR
STARTCHAR uni0522
ENCODING 1314
SWIDTH 562 0
DWIDTH 9 0
BBX 8 14 0 -3
BITMAP
88
88
88
88
88
FE
89
89
89
89
89
01
01
02
ENDCHAR
STARTCHAR uni0523
ENCODING 1315
SWIDTH 562 0
DWIDTH 9 0
BBX 8 11 0 -3
BITMAP
88
88
88
FE
89
89
89
89
01
01
02
ENDCHAR
STARTCHAR uni0524
ENCODING 1316
SWIDTH 562 0
DWIDTH 9 0
BBX 7 13 1 -2
BITMAP
FC
84
84
84
84
84
84
84
84
84
86
02
02
ENDCHAR
STARTCHAR uni0525
ENCODING 1317
SWIDTH 562 0
DWIDTH 9 0
BBX 7 10 1 -2
BITMAP
FC
84
84
84
84
84
84
86
02
02
ENDCHAR
STARTCHAR uni0526
ENCODING 1318
SWIDTH 562 0
DWIDTH 9 0
BBX 7 13 1 -2
BITMAP
80
80
80
80
80
F8
84
84
84
84
86
02
02
ENDCHAR
STARTCHAR uni0527
ENCODING 1319
SWIDTH 562 0
DWIDTH 9 0
BBX 7 10 1 -2
BITMAP
80
80
80
F8
84
84
84
86
02
02
ENDCHAR
STARTCHAR uni0528
ENCODING 1320
SWIDTH 562 0
DWIDTH 9 0
BBX 8 14 0 -3
BITMAP
21
21
21
21
21
3F
21
21
21
21
21
20
20
C0
ENDCHAR
STARTCHAR uni0529
ENCODING 1321
SWIDTH 562 0
DWIDTH 9 0
BBX 8 11 0 -3
BITMAP
21
21
21
3F
21
21
21
21
20
20
C0
ENDCHAR
STARTCHAR uni052A
ENCODING 1322
SWIDTH 562 0
DWIDTH 9 0
BBX 8 12 0 -1
BITMAP
75
55
55
55
56
5C
56
55
95
95
F5
90
ENDCHAR
STARTCHAR uni052B
ENCODING 1323
SWIDTH 562 0
DWIDTH 9 0
BBX 8 9 0 -1
BITMAP
75
55
55
5E
55
95
95
F5
90
ENDCHAR
STARTCHAR uni052C
ENCODING 1324
SWIDTH 562 0
DWIDTH 9 0
BBX 8 12 0 -1
BITMAP
86
86
8A
8A
92
52
3E
22
42
42
FF
81
ENDCHAR
STARTCHAR uni052D
ENCODING 1325
SWIDTH 562 0
DWIDTH 9 0
BBX 7 9 1 -1
BITMAP
8C
94
94
64
3C
44
44
FE
82
ENDCHAR
STARTCHAR uni052E
ENCODING 1326
SWIDTH 562 0
DWIDTH 9 0
BBX 8 13 0 -2
BITMAP
7E
42
42
42
42
42
42
42
42
42
83
01
01
ENDCHAR
STARTCHAR uni052F
ENCODING 1327
SWIDTH 562 0
DWIDTH 9 0
BBX 8 10 0 -2
BITMAP
7E
42
42
42
42
42
42
83
01
01
ENDCHAR
STARTCHAR afii57407
ENCODING 1567
SWIDTH 500 0
DWIDTH 8 0
BBX 5 11 1 1
BITMAP
78
80
80
80
40
30
30
00
00
30
30
ENDCHAR
STARTCHAR afii57409
ENCODING 1569
SWIDTH 500 0
DWIDTH 8 0
BBX 4 6 2 2
BITMAP
70
80
80
80
70
C0
ENDCHAR
STARTCHAR afii57410
ENCODING 1570
SWIDTH 500 0
DWIDTH 8 0
BBX 5 13 2 1
BITMAP
48
B0
00
00
40
40
40
40
40
40
40
40
40
ENDCHAR
STARTCHAR afii57411
ENCODING 1571
SWIDTH 500 0
DWIDTH 8 0
BBX 4 13 2 1
BITMAP
70
80
E0
E0
00
40
40
40
40
40
40
40
40
ENDCHAR
STARTCHAR afii57412
ENCODING 1572
SWIDTH 500 0
DWIDTH 8 0
BBX 6 14 1 -2
BITMAP
38
40
70
78
00
38
44
44
44
44
3C
04
F8
F0
ENDCHAR
STARTCHAR afii57413
ENCODING 1573
SWIDTH 500 0
DWIDTH 8 0
BBX 4 14 2 -2
BITMAP
40
40
40
40
40
40
40
40
00
00
70
80
E0
E0
ENDCHAR
STARTCHAR afii57414
ENCODING 1574
SWIDTH 500 0
DWIDTH 8 0
BBX 7 12 0 1
BITMAP
70
80
E0
E0
04
0A
48
84
84
84
84
78
ENDCHAR
STARTCHAR afii57415
ENCODING 1575
SWIDTH 500 0
DWIDTH 8 0
BBX 1 11 4 1
BITMAP
80
80
80
80
80
80
80
80
80
80
80
ENDCHAR
STARTCHAR afii57416
ENCODING 1576
SWIDTH 500 0
DWIDTH 8 0
BBX 6 6 1 1
BITMAP
08
84
84
84
84
78
ENDCHAR
STARTCHAR afii57417
ENCODING 1577
SWIDTH 500 0
DWIDTH 8 0
BBX 6 10 1 0
BITMAP
48
00
20
70
88
84
84
84
84
78
ENDCHAR
STARTCHAR afii57418
ENCODING 1578
SWIDTH 500 0
DWIDTH 8 0
BBX 6 9 1 0
BITMAP
48
00
00
08
84
84
84
78
38
ENDCHAR
STARTCHAR afii57419
ENCODING 1579
SWIDTH 500 0
DWIDTH 8 0
BBX 6 11 1 1
BITMAP
30
00
00
48
00
08
84
84
84
84
78
ENDCHAR
STARTCHAR afii57420
ENCODING 1580
SWIDTH 500 0
DWIDTH 8 0
BBX 6 11 1 -1
BITMAP
FC
30
00
40
80
B0
80
80
80
40
3C
ENDCHAR
STARTCHAR afii57421
ENCODING 1581
SWIDTH 500 0
DWIDTH 8 0
BBX 6 11 1 -1
BITMAP
FC
30
00
40
80
80
80
80
80
40
3C
ENDCHAR
STARTCHAR afii57422
ENCODING 1582
SWIDTH 500 0
DWIDTH 8 0
BBX 6 14 1 -2
BITMAP
30
00
FC
FC
30
40
80
80
80
80
80
40
3C
1C
ENDCHAR
STARTCHAR afii57423
ENCODING 1583
SWIDTH 500 0
DWIDTH 8 0
BBX 6 7 1 1
BITMAP
08
04
04
04
04
04
F8
ENDCHAR
STARTCHAR afii57424
ENCODING 1584
SWIDTH 500 0
DWIDTH 8 0
BBX 6 10 1 0
BITMAP
30
00
00
08
04
04
04
04
04
F8
ENDCHAR
STARTCHAR afii57425
ENCODING 1585
SWIDTH 500 0
DWIDTH 8 0
BBX 6 7 1 1
BITMAP
04
04
04
04
04
08
F0
ENDCHAR
STARTCHAR afii57426
ENCODING 1586
SWIDTH 500 0
DWIDTH 8 0
BBX 6 10 1 0
BITMAP
04
00
04
04
04
04
04
08
08
F0
ENDCHAR
STARTCHAR afii57427
ENCODING 1587
SWIDTH 500 0
DWIDTH 8 0
BBX 7 6 0 -1
BITMAP
4A
8E
8E
8E
88
70
ENDCHAR
STARTCHAR afii57428
ENCODING 1588
SWIDTH 500 0
DWIDTH 8 0
BBX 7 11 0 -1
BITMAP
08
02
00
08
00
4A
8E
8E
8E
88
70
ENDCHAR
STARTCHAR afii57429
ENCODING 1589
SWIDTH 500 0
DWIDTH 8 0
BBX 9 7 0 -1
BITMAP
0A00
4D00
8980
8900
8E00
8800
7000
ENDCHAR
STARTCHAR afii57430
ENCODING 1590
SWIDTH 500 0
DWIDTH 8 0
BBX 9 10 0 -2
BITMAP
0400
0000
0000
0A00
4D80
8980
8E00
8800
8800
7000
ENDCHAR
STARTCHAR afii57431
ENCODING 1591
SWIDTH 500 0
DWIDTH 8 0
BBX 7 11 0 1
BITMAP
40
40
40
40
40
40
4C
72
62
62
FE
ENDCHAR
STARTCHAR afii57432
ENCODING 1592
SWIDTH 500 0
DWIDTH 8 0
BBX 7 11 0 1
BITMAP
40
40
40
40
48
40
4C
72
62
62
FE
ENDCHAR
STARTCHAR afii57433
ENCODING 1593
SWIDTH 500 0
DWIDTH 8 0
BBX 6 11 1 -1
BITMAP
70
80
80
80
78
80
80
80
80
84
78
ENDCHAR
STARTCHAR afii57434
ENCODING 1594
SWIDTH 500 0
DWIDTH 8 0
BBX 6 14 1 -2
BITMAP
30
00
20
60
80
80
78
80
80
80
80
84
78
30
ENDCHAR
STARTCHAR afii57440
ENCODING 1600
SWIDTH 500 0
DWIDTH 8 0
BBX 7 1 0 2
BITMAP
FE
ENDCHAR
STARTCHAR afii57441
ENCODING 1601
SWIDTH 500 0
DWIDTH 8 0
BBX 6 10 0 -1
BITMAP
08
00
00
08
14
8C
84
84
84
78
ENDCHAR
STARTCHAR afii57442
ENCODING 1602
SWIDTH 500 0
DWIDTH 8 0
BBX 6 10 0 -1
BITMAP
34
00
00
08
14
8C
84
84
84
78
ENDCHAR
STARTCHAR afii57443
ENCODING 1603
SWIDTH 500 0
DWIDTH 8 0
BBX 6 11 0 1
BITMAP
34
44
24
24
C4
04
84
84
84
84
78
ENDCHAR
STARTCHAR afii57444
ENCODING 1604
SWIDTH 500 0
DWIDTH 8 0
BBX 6 14 0 -2
BITMAP
04
04
04
04
04
04
04
04
04
44
84
84
78
30
ENDCHAR
STARTCHAR afii57445
ENCODING 1605
SWIDTH 500 0
DWIDTH 8 0
BBX 6 7 0 0
BITMAP
38
44
44
44
98
80
80
ENDCHAR
STARTCHAR afii57446
ENCODING 1606
SWIDTH 500 0
DWIDTH 8 0
BBX 6 10 0 -1
BITMAP
30
00
00
08
84
84
84
84
84
78
ENDCHAR
STARTCHAR afii57470
ENCODING 1607
SWIDTH 500 0
DWIDTH 8 0
BBX 6 6 0 2
BITMAP
70
88
84
84
84
78
ENDCHAR
STARTCHAR afii57448
ENCODING 1608
SWIDTH 500 0
DWIDTH 8 0
BBX 6 7 0 0
BITMAP
38
44
44
44
1C
04
F8
ENDCHAR
STARTCHAR afii57449
ENCODING 1609
SWIDTH 500 0
DWIDTH 8 0
BBX 7 6 0 1
BITMAP
04
0A
88
88
84
78
ENDCHAR
STARTCHAR afii57450
ENCODING 1610
SWIDTH 500 0
DWIDTH 8 0
BBX 7 11 0 -1
BITMAP
04
0A
08
48
84
84
78
00
00
00
48
ENDCHAR
STARTCHAR afii57392
ENCODING 1632
SWIDTH 500 0
DWIDTH 8 0
BBX 1 2 2 6
BITMAP
80
80
ENDCHAR
STARTCHAR afii57393
ENCODING 1633
SWIDTH 500 0
DWIDTH 8 0
BBX 4 11 1 1
BITMAP
80
80
40
40
40
30
30
30
30
30
30
ENDCHAR
STARTCHAR afii57394
ENCODING 1634
SWIDTH 500 0
DWIDTH 8 0
BBX 5 11 1 1
BITMAP
88
88
70
60
40
30
30
30
30
30
30
ENDCHAR
STARTCHAR afii57395
ENCODING 1635
SWIDTH 500 0
DWIDTH 8 0
BBX 6 11 0 1
BITMAP
B4
B4
78
78
40
30
30
30
30
30
30
ENDCHAR
STARTCHAR afii57396
ENCODING 1636
SWIDTH 500 0
DWIDTH 8 0
BBX 6 11 0 1
BITMAP
70
80
80
80
70
80
80
80
80
84
78
ENDCHAR
STARTCHAR afii57397
ENCODING 1637
SWIDTH 500 0
DWIDTH 8 0
BBX 6 11 0 1
BITMAP
30
48
48
48
84
84
84
84
84
84
78
ENDCHAR
STARTCHAR afii57398
ENCODING 1638
SWIDTH 500 0
DWIDTH 8 0
BBX 6 10 0 1
BITMAP
F8
08
08
08
08
08
04
04
04
04
ENDCHAR
STARTCHAR afii57399
ENCODING 1639
SWIDTH 500 0
DWIDTH 8 0
BBX 6 11 0 1
BITMAP
84
84
48
48
48
48
30
30
30
30
30
ENDCHAR
STARTCHAR afii57400
ENCODING 1640
SWIDTH 500 0
DWIDTH 8 0
BBX 6 11 0 1
BITMAP
30
30
30
30
30
48
48
48
48
84
84
ENDCHAR
STARTCHAR afii57401
ENCODING 1641
SWIDTH 500 0
DWIDTH 8 0
BBX 6 10 0 1
BITMAP
70
88
88
98
78
08
04
04
04
04
ENDCHAR
STARTCHAR afii57381
ENCODING 1642
SWIDTH 500 0
DWIDTH 8 0
BBX 6 10 0 0
BITMAP
84
84
08
08
30
30
40
84
84
84
ENDCHAR
STARTCHAR uni066B
ENCODING 1643
SWIDTH 500 0
DWIDTH 8 0
BBX 5 5 1 0
BITMAP
08
08
10
20
C0
ENDCHAR
STARTCHAR uni066C
ENCODING 1644
SWIDTH 500 0
DWIDTH 8 0
BBX 2 4 2 11
BITMAP
40
40
80
80
ENDCHAR
STARTCHAR uni066E
ENCODING 1646
SWIDTH 500 0
DWIDTH 8 0
BBX 6 5 0 1
BITMAP
08
84
84
84
78
ENDCHAR
STARTCHAR uni066F
ENCODING 1647
SWIDTH 500 0
DWIDTH 8 0
BBX 6 6 0 1
BITMAP
08
14
8C
8C
84
78
ENDCHAR
STARTCHAR uni0FD5
ENCODING 4053
SWIDTH 562 0
DWIDTH 9 0
BBX 9 9 0 0
BITMAP
8F80
8800
8800
8800
FF80
0880
0880
0880
F880
ENDCHAR
STARTCHAR uni0FD6
ENCODING 4054
SWIDTH 562 0
DWIDTH 9 0
BBX 9 9 0 0
BITMAP
F880
0880
0880
0880
FF80
8800
8800
8800
8F80
ENDCHAR
STARTCHAR uni0FD7
ENCODING 4055
SWIDTH 562 0
DWIDTH 9 0
BBX 9 9 0 0
BITMAP
8F80
8800
AA00
8800
FF80
0880
2A80
0880
F880
ENDCHAR
STARTCHAR uni0FD8
ENCODING 4056
SWIDTH 562 0
DWIDTH 9 0
BBX 9 9 0 0
BITMAP
F880
0880
2A80
0880
FF80
8800
AA00
8800
8F80
ENDCHAR
STARTCHAR uni1DC4
ENCODING 7620
SWIDTH 0 0
DWIDTH 9 0
BBX 1 1 0 0
BITMAP
00
ENDCHAR
STARTCHAR uni1DC5
ENCODING 7621
SWIDTH 0 0
DWIDTH 9 0
BBX 1 1 0 0
BITMAP
00
ENDCHAR
STARTCHAR uni1DC6
ENCODING 7622
SWIDTH 0 0
DWIDTH 9 0
BBX 1 1 0 0
BITMAP
00
ENDCHAR
STARTCHAR uni1DC7
ENCODING 7623
SWIDTH 0 0
DWIDTH 9 0
BBX 1 1 0 0
BITMAP
00
ENDCHAR
STARTCHAR uni1DC8
ENCODING 7624
SWIDTH 0 0
DWIDTH 9 0
BBX 1 1 0 0
BITMAP
00
ENDCHAR
STARTCHAR uni1DC9
ENCODING 7625
SWIDTH 0 0
DWIDTH 9 0
BBX 1 1 0 0
BITMAP
00
ENDCHAR
STARTCHAR uni1DCA
ENCODING 7626
SWIDTH 0 0
DWIDTH 9 0
BBX 1 1 0 0
BITMAP
00
ENDCHAR
STARTCHAR uni1DCB
ENCODING 7627
SWIDTH 0 0
DWIDTH 9 0
BBX 1 1 0 0
BITMAP
00
ENDCHAR
STARTCHAR uni1DCC
ENCODING 7628
SWIDTH 0 0
DWIDTH 9 0
BBX 1 1 0 0
BITMAP
00
ENDCHAR
STARTCHAR uni1DCD
ENCODING 7629
SWIDTH 0 0
DWIDTH 9 0
BBX 1 1 0 0
BITMAP
00
ENDCHAR
STARTCHAR uni1DCE
ENCODING 7630
SWIDTH 0 0
DWIDTH 9 0
BBX 1 1 0 0
BITMAP
00
ENDCHAR
STARTCHAR uni1DCF
ENCODING 7631
SWIDTH 0 0
DWIDTH 9 0
BBX 1 1 0 0
BITMAP
00
ENDCHAR
STARTCHAR uni1E00
ENCODING 7680
SWIDTH 562 0
DWIDTH 9 0
BBX 7 14 0 -3
BITMAP
10
10
28
28
28
44
44
7C
82
82
82
10
28
10
ENDCHAR
STARTCHAR uni1E01
ENCODING 7681
SWIDTH 562 0
DWIDTH 9 0
BBX 6 11 1 -3
BITMAP
78
84
04
7C
84
84
84
7C
10
28
10
ENDCHAR
STARTCHAR uni1E02
ENCODING 7682
SWIDTH 562 0
DWIDTH 9 0
BBX 6 13 1 0
BITMAP
20
00
F8
84
84
84
84
F8
84
84
84
84
F8
ENDCHAR
STARTCHAR uni1E03
ENCODING 7683
SWIDTH 562 0
DWIDTH 9 0
BBX 6 13 1 0
BITMAP
10
00
80
80
80
B8
C4
84
84
84
84
C4
B8
ENDCHAR
STARTCHAR uni1E04
ENCODING 7684
SWIDTH 562 0
DWIDTH 9 0
BBX 6 13 1 -2
BITMAP
F8
84
84
84
84
F8
84
84
84
84
F8
00
20
ENDCHAR
STARTCHAR uni1E05
ENCODING 7685
SWIDTH 562 0
DWIDTH 9 0
BBX 6 13 1 -2
BITMAP
80
80
80
B8
C4
84
84
84
84
C4
B8
00
10
ENDCHAR
STARTCHAR uni1E06
ENCODING 7686
SWIDTH 562 0
DWIDTH 9 0
BBX 6 13 1 -2
BITMAP
F8
84
84
84
84
F8
84
84
84
84
F8
00
78
ENDCHAR
STARTCHAR uni1E07
ENCODING 7687
SWIDTH 562 0
DWIDTH 9 0
BBX 6 13 1 -2
BITMAP
80
80
80
B8
C4
84
84
84
84
C4
B8
00
78
ENDCHAR
STARTCHAR uni1E08
ENCODING 7688
SWIDTH 562 0
DWIDTH 9 0
BBX 6 16 1 -3
BITMAP
08
10
00
38
44
80
80
80
80
80
80
44
38
10
08
30
ENDCHAR
STARTCHAR uni1E09
ENCODING 7689
SWIDTH 562 0
DWIDTH 9 0
BBX 6 15 1 -3
BITMAP
08
08
10
00
38
44
80
80
80
80
44
38
10
08
30
ENDCHAR
STARTCHAR uni1E0A
ENCODING 7690
SWIDTH 562 0
DWIDTH 9 0
BBX 6 13 1 0
BITMAP
20
00
F0
88
84
84
84
84
84
84
84
88
F0
ENDCHAR
STARTCHAR uni1E0B
ENCODING 7691
SWIDTH 562 0
DWIDTH 9 0
BBX 6 13 1 0
BITMAP
20
00
04
04
04
74
8C
84
84
84
84
8C
74
ENDCHAR
STARTCHAR uni1E0C
ENCODING 7692
SWIDTH 562 0
DWIDTH 9 0
BBX 6 13 1 -2
BITMAP
F0
88
84
84
84
84
84
84
84
88
F0
00
20
ENDCHAR
STARTCHAR uni1E0D
ENCODING 7693
SWIDTH 562 0
DWIDTH 9 0
BBX 6 13 1 -2
BITMAP
04
04
04
74
8C
84
84
84
84
8C
74
00
20
ENDCHAR
STARTCHAR uni1E0E
ENCODING 7694
SWIDTH 562 0
DWIDTH 9 0
BBX 6 13 1 -2
BITMAP
F0
88
84
84
84
84
84
84
84
88
F0
00
78
ENDCHAR
STARTCHAR uni1E0F
ENCODING 7695
SWIDTH 562 0
DWIDTH 9 0
BBX 6 13 1 -2
BITMAP
04
04
04
74
8C
84
84
84
84
8C
74
00
78
ENDCHAR
STARTCHAR uni1E10
ENCODING 7696
SWIDTH 562 0
DWIDTH 9 0
BBX 6 14 1 -3
BITMAP
F0
88
84
84
84
84
84
84
84
88
F0
20
10
60
ENDCHAR
STARTCHAR uni1E11
ENCODING 7697
SWIDTH 562 0
DWIDTH 9 0
BBX 6 14 1 -3
BITMAP
04
04
04
74
8C
84
84
84
84
8C
74
20
10
60
ENDCHAR
STARTCHAR uni1E12
ENCODING 7698
SWIDTH 562 0
DWIDTH 9 0
BBX 6 14 1 -3
BITMAP
F0
88
84
84
84
84
84
84
84
88
F0
20
50
88
ENDCHAR
STARTCHAR uni1E13
ENCODING 7699
SWIDTH 562 0
DWIDTH 9 0
BBX 6 14 1 -3
BITMAP
04
04
04
74
8C
84
84
84
84
8C
74
20
50
88
ENDCHAR
STARTCHAR uni1E14
ENCODING 7700
SWIDTH 562 0
DWIDTH 9 0
BBX 6 13 1 0
BITMAP
20
10
00
78
00
FC
80
80
F8
80
80
80
FC
ENDCHAR
STARTCHAR uni1E15
ENCODING 7701
SWIDTH 562 0
DWIDTH 9 0
BBX 6 13 1 0
BITMAP
20
10
00
78
00
78
84
84
84
FC
80
80
7C
ENDCHAR
STARTCHAR uni1E16
ENCODING 7702
SWIDTH 562 0
DWIDTH 9 0
BBX 6 13 1 0
BITMAP
10
20
00
78
00
FC
80
80
F8
80
80
80
FC
ENDCHAR
STARTCHAR uni1E17
ENCODING 7703
SWIDTH 562 0
DWIDTH 9 0
BBX 6 13 1 0
BITMAP
10
20
00
78
00
78
84
84
84
FC
80
80
7C
ENDCHAR
STARTCHAR uni1E18
ENCODING 7704
SWIDTH 562 0
DWIDTH 9 0
BBX 6 14 1 -3
BITMAP
FC
80
80
80
80
F8
80
80
80
80
FC
20
50
88
ENDCHAR
STARTCHAR uni1E19
ENCODING 7705
SWIDTH 562 0
DWIDTH 9 0
BBX 6 11 1 -3
BITMAP
78
84
84
84
FC
80
80
7C
20
50
88
ENDCHAR
STARTCHAR uni1E1A
ENCODING 7706
SWIDTH 562 0
DWIDTH 9 0
BBX 6 14 1 -3
BITMAP
FC
80
80
80
80
F8
80
80
80
80
FC
00
64
98
ENDCHAR
STARTCHAR uni1E1B
ENCODING 7707
SWIDTH 562 0
DWIDTH 9 0
BBX 6 11 1 -3
BITMAP
78
84
84
84
FC
80
80
7C
00
64
98
ENDCHAR
STARTCHAR uni1E1C
ENCODING 7708
SWIDTH 562 0
DWIDTH 9 0
BBX 6 16 1 -3
BITMAP
48
30
00
FC
80
80
80
F8
80
80
80
80
FC
10
08
30
ENDCHAR
STARTCHAR uni1E1D
ENCODING 7709
SWIDTH 562 0
DWIDTH 9 0
BBX 6 14 1 -3
BITMAP
48
30
00
78
84
84
84
FC
80
80
7C
10
08
30
ENDCHAR
STARTCHAR uni1E1E
ENCODING 7710
SWIDTH 562 0
DWIDTH 9 0
BBX 6 13 1 0
BITMAP
20
00
FC
80
80
80
80
F8
80
80
80
80
80
ENDCHAR
STARTCHAR uni1E1F
ENCODING 7711
SWIDTH 562 0
DWIDTH 9 0
BBX 6 13 1 0
BITMAP
10
00
38
44
40
40
F8
40
40
40
40
40
40
ENDCHAR
STARTCHAR uni1E20
ENCODING 7712
SWIDTH 562 0
DWIDTH 9 0
BBX 6 13 1 0
BITMAP
78
00
38
44
80
80
80
9C
84
84
84
44
3C
ENDCHAR
STARTCHAR uni1E21
ENCODING 7713
SWIDTH 562 0
DWIDTH 9 0
BBX 6 14 1 -3
BITMAP
78
00
00
74
8C
84
84
84
84
8C
74
04
84
78
ENDCHAR
STARTCHAR uni1E22
ENCODING 7714
SWIDTH 562 0
DWIDTH 9 0
BBX 6 13 1 0
BITMAP
20
00
84
84
84
84
84
FC
84
84
84
84
84
ENDCHAR
STARTCHAR uni1E23
ENCODING 7715
SWIDTH 562 0
DWIDTH 9 0
BBX 6 13 1 0
BITMAP
20
00
80
80
80
B8
C4
84
84
84
84
84
84
ENDCHAR
STARTCHAR uni1E24
ENCODING 7716
SWIDTH 562 0
DWIDTH 9 0
BBX 6 13 1 -2
BITMAP
84
84
84
84
84
FC
84
84
84
84
84
00
20
ENDCHAR
STARTCHAR uni1E25
ENCODING 7717
SWIDTH 562 0
DWIDTH 9 0
BBX 6 13 1 -2
BITMAP
80
80
80
B8
C4
84
84
84
84
84
84
00
20
ENDCHAR
STARTCHAR uni1E26
ENCODING 7718
SWIDTH 562 0
DWIDTH 9 0
BBX 6 13 1 0
BITMAP
48
00
84
84
84
84
84
FC
84
84
84
84
84
ENDCHAR
STARTCHAR uni1E27
ENCODING 7719
SWIDTH 562 0
DWIDTH 9 0
BBX 6 13 1 0
BITMAP
48
00
80
80
80
B8
C4
84
84
84
84
84
84
ENDCHAR
STARTCHAR uni1E28
ENCODING 7720
SWIDTH 562 0
DWIDTH 9 0
BBX 7 14 0 -3
BITMAP
42
42
42
42
42
7E
42
42
42
42
42
40
20
C0
ENDCHAR
STARTCHAR uni1E29
ENCODING 7721
SWIDTH 562 0
DWIDTH 9 0
BBX 7 14 0 -3
BITMAP
40
40
40
5C
62
42
42
42
42
42
42
40
20
C0
ENDCHAR
STARTCHAR uni1E2A
ENCODING 7722
SWIDTH 562 0
DWIDTH 9 0
BBX 6 14 1 -3
BITMAP
84
84
84
84
84
FC
84
84
84
84
84
00
48
30
ENDCHAR
STARTCHAR uni1E2B
ENCODING 7723
SWIDTH 562 0
DWIDTH 9 0
BBX 6 14 1 -3
BITMAP
80
80
80
B8
C4
84
84
84
84
84
84
00
48
30
ENDCHAR
STARTCHAR uni1E2C
ENCODING 7724
SWIDTH 562 0
DWIDTH 9 0
BBX 6 14 1 -3
BITMAP
F8
20
20
20
20
20
20
20
20
20
F8
00
64
98
ENDCHAR
STARTCHAR uni1E2D
ENCODING 7725
SWIDTH 562 0
DWIDTH 9 0
BBX 6 14 1 -3
BITMAP
10
00
00
70
10
10
10
10
10
10
7C
00
64
98
ENDCHAR
STARTCHAR uni1E2E
ENCODING 7726
SWIDTH 562 0
DWIDTH 9 0
BBX 5 13 1 0
BITMAP
10
20
88
00
F8
20
20
20
20
20
20
20
F8
ENDCHAR
STARTCHAR uni1E2F
ENCODING 7727
SWIDTH 562 0
DWIDTH 9 0
BBX 5 13 2 0
BITMAP
10
10
20
88
00
E0
20
20
20
20
20
20
F8
ENDCHAR
STARTCHAR uni1E30
ENCODING 7728
SWIDTH 562 0
DWIDTH 9 0
BBX 6 13 1 0
BITMAP
10
20
84
88
90
A0
C0
80
C0
A0
90
88
84
ENDCHAR
STARTCHAR uni1E31
ENCODING 7729
SWIDTH 562 0
DWIDTH 9 0
BBX 6 13 1 0
BITMAP
10
20
80
80
80
84
88
90
A0
E0
90
88
84
ENDCHAR
STARTCHAR uni1E32
ENCODING 7730
SWIDTH 562 0
DWIDTH 9 0
BBX 6 13 1 -2
BITMAP
84
88
90
A0
C0
80
C0
A0
90
88
84
00
20
ENDCHAR
STARTCHAR uni1E33
ENCODING 7731
SWIDTH 562 0
DWIDTH 9 0
BBX 6 13 1 -2
BITMAP
80
80
80
84
88
90
A0
E0
90
88
84
00
20
ENDCHAR
STARTCHAR uni1E34
ENCODING 7732
SWIDTH 562 0
DWIDTH 9 0
BBX 6 13 1 -2
BITMAP
84
88
90
A0
C0
80
C0
A0
90
88
84
00
78
ENDCHAR
STARTCHAR uni1E35
ENCODING 7733
SWIDTH 562 0
DWIDTH 9 0
BBX 6 13 1 -2
BITMAP
80
80
80
84
88
90
A0
E0
90
88
84
00
78
ENDCHAR
STARTCHAR uni1E36
ENCODING 7734
SWIDTH 562 0
DWIDTH 9 0
BBX 6 13 1 -2
BITMAP
80
80
80
80
80
80
80
80
80
80
FC
00
20
ENDCHAR
STARTCHAR uni1E37
ENCODING 7735
SWIDTH 562 0
DWIDTH 9 0
BBX 4 13 2 -2
BITMAP
C0
40
40
40
40
40
40
40
40
40
30
00
40
ENDCHAR
STARTCHAR uni1E38
ENCODING 7736
SWIDTH 562 0
DWIDTH 9 0
BBX 6 15 1 -2
BITMAP
78
00
80
80
80
80
80
80
80
80
80
80
FC
00
20
ENDCHAR
STARTCHAR uni1E39
ENCODING 7737
SWIDTH 562 0
DWIDTH 9 0
BBX 4 15 2 -2
BITMAP
F0
00
C0
40
40
40
40
40
40
40
40
40
30
00
40
ENDCHAR
STARTCHAR uni1E3A
ENCODING 7738
SWIDTH 562 0
DWIDTH 9 0
BBX 6 13 1 -2
BITMAP
80
80
80
80
80
80
80
80
80
80
FC
00
78
ENDCHAR
STARTCHAR uni1E3B
ENCODING 7739
SWIDTH 562 0
DWIDTH 9 0
BBX 4 13 2 -2
BITMAP
C0
40
40
40
40
40
40
40
40
40
30
00
F0
ENDCHAR
STARTCHAR uni1E3C
ENCODING 7740
SWIDTH 562 0
DWIDTH 9 0
BBX 6 14 1 -3
BITMAP
80
80
80
80
80
80
80
80
80
80
FC
20
50
88
ENDCHAR
STARTCHAR uni1E3D
ENCODING 7741
SWIDTH 562 0
DWIDTH 9 0
BBX 5 14 1 -3
BITMAP
60
20
20
20
20
20
20
20
20
20
18
20
50
88
ENDCHAR
STARTCHAR uni1E3E
ENCODING 7742
SWIDTH 562 0
DWIDTH 9 0
BBX 7 13 0 0
BITMAP
08
10
82
82
C6
C6
AA
AA
92
92
82
82
82
ENDCHAR
STARTCHAR uni1E3F
ENCODING 7743
SWIDTH 562 0
DWIDTH 9 0
BBX 7 12 0 0
BITMAP
08
08
10
00
EC
92
92
92
92
92
92
92
ENDCHAR
STARTCHAR uni1E40
ENCODING 7744
SWIDTH 562 0
DWIDTH 9 0
BBX 7 13 0 0
BITMAP
10
00
82
82
C6
C6
AA
AA
92
92
82
82
82
ENDCHAR
STARTCHAR uni1E41
ENCODING 7745
SWIDTH 562 0
DWIDTH 9 0
BBX 7 11 0 0
BITMAP
10
00
00
EC
92
92
92
92
92
92
92
ENDCHAR
STARTCHAR uni1E42
ENCODING 7746
SWIDTH 562 0
DWIDTH 9 0
BBX 7 13 0 -2
BITMAP
82
82
C6
C6
AA
AA
92
92
82
82
82
00
10
ENDCHAR
STARTCHAR uni1E43
ENCODING 7747
SWIDTH 562 0
DWIDTH 9 0
BBX 7 10 0 -2
BITMAP
EC
92
92
92
92
92
92
92
00
10
ENDCHAR
STARTCHAR uni1E44
ENCODING 7748
SWIDTH 562 0
DWIDTH 9 0
BBX 6 13 1 0
BITMAP
20
00
84
C4
C4
A4
A4
94
94
8C
8C
84
84
ENDCHAR
STARTCHAR uni1E45
ENCODING 7749
SWIDTH 562 0
DWIDTH 9 0
BBX 6 11 1 0
BITMAP
20
00
00
B8
C4
84
84
84
84
84
84
ENDCHAR
STARTCHAR uni1E46
ENCODING 7750
SWIDTH 562 0
DWIDTH 9 0
BBX 6 13 1 -2
BITMAP
84
C4
C4
A4
A4
94
94
8C
8C
84
84
00
20
ENDCHAR
STARTCHAR uni1E47
ENCODING 7751
SWIDTH 562 0
DWIDTH 9 0
BBX 6 10 1 -2
BITMAP
B8
C4
84
84
84
84
84
84
00
20
ENDCHAR
STARTCHAR uni1E48
ENCODING 7752
SWIDTH 562 0
DWIDTH 9 0
BBX 6 13 1 -2
BITMAP
84
C4
C4
A4
A4
94
94
8C
8C
84
84
00
78
ENDCHAR
STARTCHAR uni1E49
ENCODING 7753
SWIDTH 562 0
DWIDTH 9 0
BBX 6 10 1 -2
BITMAP
B8
C4
84
84
84
84
84
84
00
78
ENDCHAR
STARTCHAR uni1E4A
ENCODING 7754
SWIDTH 562 0
DWIDTH 9 0
BBX 6 14 1 -3
BITMAP
84
C4
C4
A4
A4
94
94
8C
8C
84
84
20
50
88
ENDCHAR
STARTCHAR uni1E4B
ENCODING 7755
SWIDTH 562 0
DWIDTH 9 0
BBX 6 11 1 -3
BITMAP
B8
C4
84
84
84
84
84
84
20
50
88
ENDCHAR
STARTCHAR uni1E4C
ENCODING 7756
SWIDTH 562 0
DWIDTH 9 0
BBX 9 13 0 0
BITMAP
4C80
9300
0000
3800
4400
8200
8200
8200
8200
8200
8200
4400
3800
ENDCHAR
STARTCHAR uni1E4D
ENCODING 7757
SWIDTH 562 0
DWIDTH 9 0
BBX 7 13 0 0
BITMAP
40
80
32
4C
00
3C
42
42
42
42
42
42
3C
ENDCHAR
STARTCHAR uni1E4E
ENCODING 7758
SWIDTH 562 0
DWIDTH 9 0
BBX 7 13 0 0
BITMAP
28
00
32
4C
00
38
44
82
82
82
82
44
38
ENDCHAR
STARTCHAR uni1E4F
ENCODING 7759
SWIDTH 562 0
DWIDTH 9 0
BBX 6 13 1 0
BITMAP
48
00
64
98
00
78
84
84
84
84
84
84
78
ENDCHAR
STARTCHAR uni1E50
ENCODING 7760
SWIDTH 562 0
DWIDTH 9 0
BBX 7 13 0 0
BITMAP
20
10
7C
00
38
44
82
82
82
82
82
44
38
ENDCHAR
STARTCHAR uni1E51
ENCODING 7761
SWIDTH 562 0
DWIDTH 9 0
BBX 6 13 1 0
BITMAP
20
10
00
78
00
78
84
84
84
84
84
84
78
ENDCHAR
STARTCHAR uni1E52
ENCODING 7762
SWIDTH 562 0
DWIDTH 9 0
BBX 7 13 0 0
BITMAP
08
10
00
7C
00
38
44
82
82
82
82
44
38
ENDCHAR
STARTCHAR uni1E53
ENCODING 7763
SWIDTH 562 0
DWIDTH 9 0
BBX 6 13 1 0
BITMAP
10
20
00
78
00
78
84
84
84
84
84
84
78
ENDCHAR
STARTCHAR uni1E54
ENCODING 7764
SWIDTH 562 0
DWIDTH 9 0
BBX 6 13 1 0
BITMAP
10
20
00
F0
88
84
84
84
88
F0
80
80
80
ENDCHAR
STARTCHAR uni1E55
ENCODING 7765
SWIDTH 562 0
DWIDTH 9 0
BBX 6 15 1 -3
BITMAP
10
10
20
00
B8
C4
84
84
84
84
C4
B8
80
80
80
ENDCHAR
STARTCHAR uni1E56
ENCODING 7766
SWIDTH 562 0
DWIDTH 9 0
BBX 6 13 1 0
BITMAP
20
00
F0
88
84
84
84
88
F0
80
80
80
80
ENDCHAR
STARTCHAR uni1E57
ENCODING 7767
SWIDTH 562 0
DWIDTH 9 0
BBX 6 14 1 -3
BITMAP
10
00
00
B8
C4
84
84
84
84
C4
B8
80
80
80
ENDCHAR
STARTCHAR uni1E58
ENCODING 7768
SWIDTH 562 0
DWIDTH 9 0
BBX 6 13 1 0
BITMAP
20
00
F8
84
84
84
84
F8
C0
A0
90
88
84
ENDCHAR
STARTCHAR uni1E59
ENCODING 7769
SWIDTH 562 0
DWIDTH 9 0
BBX 6 11 1 0
BITMAP
20
00
00
B8
C4
80
80
80
80
80
80
ENDCHAR
STARTCHAR uni1E5A
ENCODING 7770
SWIDTH 562 0
DWIDTH 9 0
BBX 6 13 1 -2
BITMAP
F8
84
84
84
84
F8
C0
A0
90
88
84
00
20
ENDCHAR
STARTCHAR uni1E5B
ENCODING 7771
SWIDTH 562 0
DWIDTH 9 0
BBX 6 10 1 -2
BITMAP
B8
C4
80
80
80
80
80
80
00
20
ENDCHAR
STARTCHAR uni1E5C
ENCODING 7772
SWIDTH 562 0
DWIDTH 9 0
BBX 6 15 1 -2
BITMAP
78
00
F8
84
84
84
84
F8
C0
A0
90
88
84
00
20
ENDCHAR
STARTCHAR uni1E5D
ENCODING 7773
SWIDTH 562 0
DWIDTH 9 0
BBX 6 12 1 -2
BITMAP
78
00
B8
C4
80
80
80
80
80
80
00
20
ENDCHAR
STARTCHAR uni1E5E
ENCODING 7774
SWIDTH 562 0
DWIDTH 9 0
BBX 6 13 1 -2
BITMAP
F8
84
84
84
84
F8
C0
A0
90
88
84
00
78
ENDCHAR
STARTCHAR uni1E5F
ENCODING 7775
SWIDTH 562 0
DWIDTH 9 0
BBX 6 10 1 -2
BITMAP
B8
C4
80
80
80
80
80
80
00
78
ENDCHAR
STARTCHAR uni1E60
ENCODING 7776
SWIDTH 562 0
DWIDTH 9 0
BBX 6 13 1 0
BITMAP
20
00
78
84
80
80
40
30
08
04
04
84
78
ENDCHAR
STARTCHAR uni1E61
ENCODING 7777
SWIDTH 562 0
DWIDTH 9 0
BBX 6 11 1 0
BITMAP
20
00
00
78
84
80
60
18
04
84
78
ENDCHAR
STARTCHAR uni1E62
ENCODING 7778
SWIDTH 562 0
DWIDTH 9 0
BBX 6 13 1 -2
BITMAP
78
84
80
80
40
30
08
04
04
84
78
00
20
ENDCHAR
STARTCHAR uni1E63
ENCODING 7779
SWIDTH 562 0
DWIDTH 9 0
BBX 6 10 1 -2
BITMAP
78
84
80
60
18
04
84
78
00
20
ENDCHAR
STARTCHAR uni1E64
ENCODING 7780
SWIDTH 562 0
DWIDTH 9 0
BBX 6 13 1 0
BITMAP
24
08
00
78
84
80
80
60
18
04
04
84
78
ENDCHAR
STARTCHAR uni1E65
ENCODING 7781
SWIDTH 562 0
DWIDTH 9 0
BBX 6 12 1 0
BITMAP
08
48
10
00
78
84
80
60
18
04
84
78
ENDCHAR
STARTCHAR uni1E66
ENCODING 7782
SWIDTH 562 0
DWIDTH 9 0
BBX 6 13 1 0
BITMAP
20
88
50
20
00
78
84
80
60
18
04
84
78
ENDCHAR
STARTCHAR uni1E67
ENCODING 7783
SWIDTH 562 0
DWIDTH 9 0
BBX 6 12 1 0
BITMAP
20
88
50
20
00
78
84
80
78
04
84
78
ENDCHAR
STARTCHAR uni1E68
ENCODING 7784
SWIDTH 562 0
DWIDTH 9 0
BBX 6 15 1 -2
BITMAP
20
00
78
84
80
80
40
30
08
04
04
84
78
00
20
ENDCHAR
STARTCHAR uni1E69
ENCODING 7785
SWIDTH 562 0
DWIDTH 9 0
BBX 6 13 1 -2
BITMAP
20
00
00
78
84
80
60
18
04
84
78
00
20
ENDCHAR
STARTCHAR uni1E6A
ENCODING 7786
SWIDTH 562 0
DWIDTH 9 0
BBX 7 13 0 0
BITMAP
10
00
FE
10
10
10
10
10
10
10
10
10
10
ENDCHAR
STARTCHAR uni1E6B
ENCODING 7787
SWIDTH 562 0
DWIDTH 9 0
BBX 6 13 1 0
BITMAP
40
00
40
40
40
F8
40
40
40
40
40
44
38
ENDCHAR
STARTCHAR uni1E6C
ENCODING 7788
SWIDTH 562 0
DWIDTH 9 0
BBX 7 13 0 -2
BITMAP
FE
10
10
10
10
10
10
10
10
10
10
00
10
ENDCHAR
STARTCHAR uni1E6D
ENCODING 7789
SWIDTH 562 0
DWIDTH 9 0
BBX 6 13 1 -2
BITMAP
40
40
40
F8
40
40
40
40
40
44
38
00
10
ENDCHAR
STARTCHAR uni1E6E
ENCODING 7790
SWIDTH 562 0
DWIDTH 9 0
BBX 7 13 0 -2
BITMAP
FE
10
10
10
10
10
10
10
10
10
10
00
7C
ENDCHAR
STARTCHAR uni1E6F
ENCODING 7791
SWIDTH 562 0
DWIDTH 9 0
BBX 6 13 1 -2
BITMAP
40
40
40
F8
40
40
40
40
40
44
38
00
78
ENDCHAR
STARTCHAR uni1E70
ENCODING 7792
SWIDTH 562 0
DWIDTH 9 0
BBX 7 14 0 -3
BITMAP
FE
10
10
10
10
10
10
10
10
10
10
08
14
22
ENDCHAR
STARTCHAR uni1E71
ENCODING 7793
SWIDTH 562 0
DWIDTH 9 0
BBX 6 14 1 -3
BITMAP
40
40
40
F8
40
40
40
40
40
44
38
20
50
88
ENDCHAR
STARTCHAR uni1E72
ENCODING 7794
SWIDTH 562 0
DWIDTH 9 0
BBX 6 13 1 -2
BITMAP
84
84
84
84
84
84
84
84
84
84
78
00
48
ENDCHAR
STARTCHAR uni1E73
ENCODING 7795
SWIDTH 562 0
DWIDTH 9 0
BBX 6 10 1 -2
BITMAP
84
84
84
84
84
84
84
78
00
48
ENDCHAR
STARTCHAR uni1E74
ENCODING 7796
SWIDTH 562 0
DWIDTH 9 0
BBX 6 14 1 -3
BITMAP
84
84
84
84
84
84
84
84
84
84
78
00
64
98
ENDCHAR
STARTCHAR uni1E75
ENCODING 7797
SWIDTH 562 0
DWIDTH 9 0
BBX 6 11 1 -3
BITMAP
84
84
84
84
84
84
84
78
00
64
98
ENDCHAR
STARTCHAR uni1E76
ENCODING 7798
SWIDTH 562 0
DWIDTH 9 0
BBX 6 14 1 -3
BITMAP
84
84
84
84
84
84
84
84
84
84
78
20
50
88
ENDCHAR
STARTCHAR uni1E77
ENCODING 7799
SWIDTH 562 0
DWIDTH 9 0
BBX 6 11 1 -3
BITMAP
84
84
84
84
84
84
84
78
20
50
88
ENDCHAR
STARTCHAR uni1E78
ENCODING 7800
SWIDTH 562 0
DWIDTH 9 0
BBX 9 13 0 0
BITMAP
4C80
9300
0000
4200
4200
4200
4200
4200
4200
4200
4200
4200
3C00
ENDCHAR
STARTCHAR uni1E79
ENCODING 7801
SWIDTH 562 0
DWIDTH 9 0
BBX 7 13 0 0
BITMAP
40
80
32
4C
00
42
42
42
42
42
42
42
3C
ENDCHAR
STARTCHAR uni1E7A
ENCODING 7802
SWIDTH 562 0
DWIDTH 9 0
BBX 6 13 1 0
BITMAP
48
00
78
00
84
84
84
84
84
84
84
84
78
ENDCHAR
STARTCHAR uni1E7B
ENCODING 7803
SWIDTH 562 0
DWIDTH 9 0
BBX 6 12 1 0
BITMAP
48
00
78
00
84
84
84
84
84
84
84
78
ENDCHAR
STARTCHAR uni1E7C
ENCODING 7804
SWIDTH 562 0
DWIDTH 9 0
BBX 7 13 0 0
BITMAP
32
4C
00
82
82
44
44
44
28
28
28
10
10
ENDCHAR
STARTCHAR uni1E7D
ENCODING 7805
SWIDTH 562 0
DWIDTH 9 0
BBX 7 11 0 0
BITMAP
32
4C
00
82
82
44
44
28
28
10
10
ENDCHAR
STARTCHAR uni1E7E
ENCODING 7806
SWIDTH 562 0
DWIDTH 9 0
BBX 7 13 0 -2
BITMAP
82
82
82
44
44
44
28
28
28
10
10
00
10
ENDCHAR
STARTCHAR uni1E7F
ENCODING 7807
SWIDTH 562 0
DWIDTH 9 0
BBX 7 10 0 -2
BITMAP
82
82
44
44
28
28
10
10
00
10
ENDCHAR
STARTCHAR Wgrave
ENCODING 7808
SWIDTH 562 0
DWIDTH 9 0
BBX 7 13 0 0
BITMAP
20
10
82
82
82
92
92
AA
AA
C6
C6
82
82
ENDCHAR
STARTCHAR wgrave
ENCODING 7809
SWIDTH 562 0
DWIDTH 9 0
BBX 7 12 0 0
BITMAP
20
20
10
00
82
82
82
92
92
AA
C6
82
ENDCHAR
STARTCHAR Wacute
ENCODING 7810
SWIDTH 562 0
DWIDTH 9 0
BBX 7 13 0 0
BITMAP
08
10
82
82
82
92
92
AA
AA
C6
C6
82
82
ENDCHAR
STARTCHAR wacute
ENCODING 7811
SWIDTH 562 0
DWIDTH 9 0
BBX 7 12 0 0
BITMAP
08
08
10
00
82
82
82
92
92
AA
C6
82
ENDCHAR
STARTCHAR Wdieresis
ENCODING 7812
SWIDTH 562 0
DWIDTH 9 0
BBX 7 13 0 0
BITMAP
28
00
82
82
82
92
92
AA
AA
C6
C6
82
82
ENDCHAR
STARTCHAR wdieresis
ENCODING 7813
SWIDTH 562 0
DWIDTH 9 0
BBX 7 11 0 0
BITMAP
28
00
00
82
82
82
92
92
AA
C6
82
ENDCHAR
STARTCHAR uni1E86
ENCODING 7814
SWIDTH 562 0
DWIDTH 9 0
BBX 7 13 0 0
BITMAP
10
00
82
82
82
92
92
AA
AA
C6
C6
82
82
ENDCHAR
STARTCHAR uni1E87
ENCODING 7815
SWIDTH 562 0
DWIDTH 9 0
BBX 7 11 0 0
BITMAP
10
00
00
82
82
82
92
92
AA
C6
82
ENDCHAR
STARTCHAR uni1E88
ENCODING 7816
SWIDTH 562 0
DWIDTH 9 0
BBX 7 13 0 -2
BITMAP
82
82
82
92
92
AA
AA
C6
C6
82
82
00
10
ENDCHAR
STARTCHAR uni1E89
ENCODING 7817
SWIDTH 562 0
DWIDTH 9 0
BBX 7 10 0 -2
BITMAP
82
82
82
92
92
AA
C6
82
00
10
ENDCHAR
STARTCHAR uni1E8A
ENCODING 7818
SWIDTH 562 0
DWIDTH 9 0
BBX 7 13 0 0
BITMAP
10
00
82
44
44
28
28
10
28
28
44
44
82
ENDCHAR
STARTCHAR uni1E8B
ENCODING 7819
SWIDTH 562 0
DWIDTH 9 0
BBX 7 11 0 0
BITMAP
10
00
00
82
44
28
10
10
28
44
82
ENDCHAR
STARTCHAR uni1E8C
ENCODING 7820
SWIDTH 562 0
DWIDTH 9 0
BBX 7 13 0 0
BITMAP
28
00
82
44
44
28
28
10
28
28
44
44
82
ENDCHAR
STARTCHAR uni1E8D
ENCODING 7821
SWIDTH 562 0
DWIDTH 9 0
BBX 7 11 0 0
BITMAP
28
00
00
82
44
28
10
10
28
44
82
ENDCHAR
STARTCHAR uni1E8E
ENCODING 7822
SWIDTH 562 0
DWIDTH 9 0
BBX 7 13 0 0
BITMAP
10
00
82
82
44
44
28
28
10
10
10
10
10
ENDCHAR
STARTCHAR uni1E8F
ENCODING 7823
SWIDTH 562 0
DWIDTH 9 0
BBX 6 14 1 -3
BITMAP
20
00
00
84
84
44
48
28
28
10
10
10
20
20
ENDCHAR
STARTCHAR uni1E90
ENCODING 7824
SWIDTH 562 0
DWIDTH 9 0
BBX 6 13 1 0
BITMAP
20
50
88
00
FC
08
10
10
20
20
40
40
FC
ENDCHAR
STARTCHAR uni1E91
ENCODING 7825
SWIDTH 562 0
DWIDTH 9 0
BBX 6 12 1 0
BITMAP
20
50
88
00
FC
04
08
10
20
40
80
FC
ENDCHAR
STARTCHAR uni1E92
ENCODING 7826
SWIDTH 562 0
DWIDTH 9 0
BBX 6 13 1 -2
BITMAP
FC
04
08
08
10
10
20
20
40
40
FC
00
20
ENDCHAR
STARTCHAR uni1E93
ENCODING 7827
SWIDTH 562 0
DWIDTH 9 0
BBX 6 10 1 -2
BITMAP
FC
04
08
10
20
40
80
FC
00
20
ENDCHAR
STARTCHAR uni1E94
ENCODING 7828
SWIDTH 562 0
DWIDTH 9 0
BBX 6 13 1 -2
BITMAP
FC
04
08
08
10
10
20
20
40
40
FC
00
78
ENDCHAR
STARTCHAR uni1E95
ENCODING 7829
SWIDTH 562 0
DWIDTH 9 0
BBX 6 10 1 -2
BITMAP
FC
04
08
10
20
40
80
FC
00
78
ENDCHAR
STARTCHAR uni1E96
ENCODING 7830
SWIDTH 562 0
DWIDTH 9 0
BBX 6 13 1 -2
BITMAP
80
80
80
B8
C4
84
84
84
84
84
84
00
78
ENDCHAR
STARTCHAR uni1E97
ENCODING 7831
SWIDTH 562 0
DWIDTH 9 0
BBX 6 13 1 0
BITMAP
90
00
40
40
40
F8
40
40
40
40
40
44
38
ENDCHAR
STARTCHAR uni1E98
ENCODING 7832
SWIDTH 562 0
DWIDTH 9 0
BBX 7 12 0 0
BITMAP
10
28
10
00
82
82
82
92
92
AA
C6
82
ENDCHAR
STARTCHAR uni1E99
ENCODING 7833
SWIDTH 562 0
DWIDTH 9 0
BBX 6 15 1 -3
BITMAP
20
50
20
00
84
84
44
48
28
28
10
10
10
20
20
ENDCHAR
STARTCHAR uni1E9A
ENCODING 7834
SWIDTH 562 0
DWIDTH 9 0
BBX 7 12 1 0
BITMAP
04
02
02
04
78
84
04
7C
84
84
84
7C
ENDCHAR
STARTCHAR uni1E9B
ENCODING 7835
SWIDTH 562 0
DWIDTH 9 0
BBX 4 13 3 0
BITMAP
20
00
70
80
80
80
80
80
80
80
80
80
80
ENDCHAR
STARTCHAR uni1E9C
ENCODING 7836
SWIDTH 562 0
DWIDTH 9 0
BBX 6 11 1 0
BITMAP
1C
20
20
20
20
38
E0
20
20
20
20
ENDCHAR
STARTCHAR uni1E9D
ENCODING 7837
SWIDTH 562 0
DWIDTH 9 0
BBX 5 11 2 0
BITMAP
38
40
E0
40
40
40
40
40
40
40
40
ENDCHAR
STARTCHAR uni1E9E
ENCODING 7838
SWIDTH 562 0
DWIDTH 9 0
BBX 6 11 1 0
BITMAP
30
48
84
98
A0
A0
90
88
84
84
B8
ENDCHAR
STARTCHAR uni1E9F
ENCODING 7839
SWIDTH 562 0
DWIDTH 9 0
BBX 6 11 1 0
BITMAP
38
40
40
30
48
84
84
84
84
48
30
ENDCHAR
STARTCHAR uni1EA0
ENCODING 7840
SWIDTH 562 0
DWIDTH 9 0
BBX 7 13 0 -2
BITMAP
10
10
28
28
28
44
44
7C
82
82
82
00
10
ENDCHAR
STARTCHAR uni1EA1
ENCODING 7841
SWIDTH 562 0
DWIDTH 9 0
BBX 6 10 1 -2
BITMAP
78
84
04
7C
84
84
84
7C
00
20
ENDCHAR
STARTCHAR uni1EA2
ENCODING 7842
SWIDTH 562 0
DWIDTH 9 0
BBX 7 13 0 0
BITMAP
60
10
20
10
10
28
28
28
44
44
7C
82
82
ENDCHAR
STARTCHAR uni1EA3
ENCODING 7843
SWIDTH 562 0
DWIDTH 9 0
BBX 6 12 1 0
BITMAP
60
10
20
00
78
84
04
7C
84
84
84
7C
ENDCHAR
STARTCHAR uni1EA4
ENCODING 7844
SWIDTH 562 0
DWIDTH 9 0
BBX 8 13 0 0
BITMAP
01
12
28
44
10
10
28
28
44
44
FE
82
82
ENDCHAR
STARTCHAR uni1EA5
ENCODING 7845
SWIDTH 562 0
DWIDTH 9 0
BBX 7 13 1 0
BITMAP
02
24
50
88
00
78
84
04
7C
84
84
84
7C
ENDCHAR
STARTCHAR uni1EA6
ENCODING 7846
SWIDTH 562 0
DWIDTH 9 0
BBX 8 13 0 0
BITMAP
80
48
14
22
08
08
14
14
22
22
7F
41
41
ENDCHAR
STARTCHAR uni1EA7
ENCODING 7847
SWIDTH 562 0
DWIDTH 9 0
BBX 7 13 0 0
BITMAP
80
48
14
22
00
3C
42
02
3E
42
42
42
3E
ENDCHAR
STARTCHAR uni1EA8
ENCODING 7848
SWIDTH 562 0
DWIDTH 9 0
BBX 8 13 0 0
BITMAP
02
11
29
44
10
10
28
28
44
44
FE
82
82
ENDCHAR
STARTCHAR uni1EA9
ENCODING 7849
SWIDTH 562 0
DWIDTH 9 0
BBX 7 13 1 0
BITMAP
04
22
52
88
00
78
84
04
7C
84
84
84
7C
ENDCHAR
STARTCHAR uni1EAA
ENCODING 7850
SWIDTH 562 0
DWIDTH 9 0
BBX 7 13 0 0
BITMAP
32
4C
10
28
44
10
10
28
28
44
7C
82
82
ENDCHAR
STARTCHAR uni1EAB
ENCODING 7851
SWIDTH 562 0
DWIDTH 9 0
BBX 6 13 1 0
BITMAP
64
98
20
50
88
00
78
84
04
7C
84
84
7C
ENDCHAR
STARTCHAR uni1EAC
ENCODING 7852
SWIDTH 562 0
DWIDTH 9 0
BBX 7 15 0 -2
BITMAP
10
28
44
10
10
28
28
28
44
44
7C
82
82
00
10
ENDCHAR
STARTCHAR uni1EAD
ENCODING 7853
SWIDTH 562 0
DWIDTH 9 0
BBX 6 14 1 -2
BITMAP
20
50
88
00
78
84
04
7C
84
84
84
7C
00
20
ENDCHAR
STARTCHAR uni1EAE
ENCODING 7854
SWIDTH 562 0
DWIDTH 9 0
BBX 7 13 0 0
BITMAP
08
10
44
38
00
10
10
28
28
44
7C
82
82
ENDCHAR
STARTCHAR uni1EAF
ENCODING 7855
SWIDTH 562 0
DWIDTH 9 0
BBX 6 13 1 0
BITMAP
10
20
88
70
00
78
84
04
7C
84
84
84
7C
ENDCHAR
STARTCHAR uni1EB0
ENCODING 7856
SWIDTH 562 0
DWIDTH 9 0
BBX 7 13 0 0
BITMAP
20
10
44
38
00
10
10
28
28
44
7C
82
82
ENDCHAR
STARTCHAR uni1EB1
ENCODING 7857
SWIDTH 562 0
DWIDTH 9 0
BBX 6 13 1 0
BITMAP
40
20
88
70
00
78
84
04
7C
84
84
84
7C
ENDCHAR
STARTCHAR uni1EB2
ENCODING 7858
SWIDTH 562 0
DWIDTH 9 0
BBX 7 13 0 0
BITMAP
60
10
44
38
00
10
10
28
28
44
7C
82
82
ENDCHAR
STARTCHAR uni1EB3
ENCODING 7859
SWIDTH 562 0
DWIDTH 9 0
BBX 6 13 1 0
BITMAP
C0
20
88
70
00
78
84
04
7C
84
84
84
7C
ENDCHAR
STARTCHAR uni1EB4
ENCODING 7860
SWIDTH 562 0
DWIDTH 9 0
BBX 7 13 0 0
BITMAP
32
4C
00
12
0C
10
10
28
28
44
7C
82
82
ENDCHAR
STARTCHAR uni1EB5
ENCODING 7861
SWIDTH 562 0
DWIDTH 9 0
BBX 6 13 1 0
BITMAP
64
98
00
24
18
00
78
84
04
7C
84
84
7C
ENDCHAR
STARTCHAR uni1EB6
ENCODING 7862
SWIDTH 562 0
DWIDTH 9 0
BBX 7 15 0 -2
BITMAP
44
38
00
10
10
28
28
28
44
44
7C
82
82
00
10
ENDCHAR
STARTCHAR uni1EB7
ENCODING 7863
SWIDTH 562 0
DWIDTH 9 0
BBX 6 13 1 -2
BITMAP
48
30
00
78
84
04
7C
84
84
84
7C
00
20
ENDCHAR
STARTCHAR uni1EB8
ENCODING 7864
SWIDTH 562 0
DWIDTH 9 0
BBX 6 13 1 -2
BITMAP
FC
80
80
80
80
F8
80
80
80
80
FC
00
20
ENDCHAR
STARTCHAR uni1EB9
ENCODING 7865
SWIDTH 562 0
DWIDTH 9 0
BBX 6 10 1 -2
BITMAP
78
84
84
84
FC
80
80
7C
00
20
ENDCHAR
STARTCHAR uni1EBA
ENCODING 7866
SWIDTH 562 0
DWIDTH 9 0
BBX 6 13 1 0
BITMAP
30
08
10
FC
80
80
80
F8
80
80
80
80
FC
ENDCHAR
STARTCHAR uni1EBB
ENCODING 7867
SWIDTH 562 0
DWIDTH 9 0
BBX 6 12 1 0
BITMAP
30
08
10
00
78
84
84
84
FC
80
80
7C
ENDCHAR
STARTCHAR uni1EBC
ENCODING 7868
SWIDTH 562 0
DWIDTH 9 0
BBX 6 13 1 0
BITMAP
64
98
00
FC
80
80
80
F8
80
80
80
80
FC
ENDCHAR
STARTCHAR uni1EBD
ENCODING 7869
SWIDTH 562 0
DWIDTH 9 0
BBX 6 11 1 0
BITMAP
64
98
00
78
84
84
84
FC
80
80
7C
ENDCHAR
STARTCHAR uni1EBE
ENCODING 7870
SWIDTH 562 0
DWIDTH 9 0
BBX 7 13 1 0
BITMAP
02
24
50
88
00
FC
80
80
F8
80
80
80
FC
ENDCHAR
STARTCHAR uni1EBF
ENCODING 7871
SWIDTH 562 0
DWIDTH 9 0
BBX 7 13 1 0
BITMAP
02
24
50
88
00
78
84
84
84
FC
80
80
7C
ENDCHAR
STARTCHAR uni1EC0
ENCODING 7872
SWIDTH 562 0
DWIDTH 9 0
BBX 7 13 0 0
BITMAP
80
48
14
22
00
7E
40
40
7C
40
40
40
7E
ENDCHAR
STARTCHAR uni1EC1
ENCODING 7873
SWIDTH 562 0
DWIDTH 9 0
BBX 7 13 0 0
BITMAP
80
48
14
22
00
3C
42
42
42
7E
40
40
3E
ENDCHAR
STARTCHAR uni1EC2
ENCODING 7874
SWIDTH 562 0
DWIDTH 9 0
BBX 7 13 1 0
BITMAP
04
22
52
88
00
FC
80
80
F8
80
80
80
FC
ENDCHAR
STARTCHAR uni1EC3
ENCODING 7875
SWIDTH 562 0
DWIDTH 9 0
BBX 7 13 1 0
BITMAP
04
22
52
88
00
78
84
84
84
FC
80
80
7C
ENDCHAR
STARTCHAR uni1EC4
ENCODING 7876
SWIDTH 562 0
DWIDTH 9 0
BBX 6 13 1 0
BITMAP
64
98
20
50
88
00
FC
80
80
F8
80
80
FC
ENDCHAR
STARTCHAR uni1EC5
ENCODING 7877
SWIDTH 562 0
DWIDTH 9 0
BBX 6 13 1 0
BITMAP
64
98
20
50
88
00
78
84
84
FC
80
80
7C
ENDCHAR
STARTCHAR uni1EC6
ENCODING 7878
SWIDTH 562 0
DWIDTH 9 0
BBX 6 15 1 -2
BITMAP
20
50
88
00
FC
80
80
80
F8
80
80
80
FC
00
20
ENDCHAR
STARTCHAR uni1EC7
ENCODING 7879
SWIDTH 562 0
DWIDTH 9 0
BBX 6 14 1 -2
BITMAP
20
50
88
00
78
84
84
84
FC
80
80
7C
00
20
ENDCHAR
STARTCHAR uni1EC8
ENCODING 7880
SWIDTH 562 0
DWIDTH 9 0
BBX 5 13 1 0
BITMAP
60
10
20
00
F8
20
20
20
20
20
20
20
F8
ENDCHAR
STARTCHAR uni1EC9
ENCODING 7881
SWIDTH 562 0
DWIDTH 9 0
BBX 5 12 2 0
BITMAP
60
10
20
00
E0
20
20
20
20
20
20
F8
ENDCHAR
STARTCHAR uni1ECA
ENCODING 7882
SWIDTH 562 0
DWIDTH 9 0
BBX 5 13 1 -2
BITMAP
F8
20
20
20
20
20
20
20
20
20
F8
00
20
ENDCHAR
STARTCHAR uni1ECB
ENCODING 7883
SWIDTH 562 0
DWIDTH 9 0
BBX 5 13 2 -2
BITMAP
20
00
00
E0
20
20
20
20
20
20
F8
00
20
ENDCHAR
STARTCHAR uni1ECC
ENCODING 7884
SWIDTH 562 0
DWIDTH 9 0
BBX 7 13 0 -2
BITMAP
38
44
82
82
82
82
82
82
82
44
38
00
10
ENDCHAR
STARTCHAR uni1ECD
ENCODING 7885
SWIDTH 562 0
DWIDTH 9 0
BBX 6 10 1 -2
BITMAP
78
84
84
84
84
84
84
78
00
20
ENDCHAR
STARTCHAR uni1ECE
ENCODING 7886
SWIDTH 562 0
DWIDTH 9 0
BBX 7 13 0 0
BITMAP
30
08
10
00
38
44
82
82
82
82
82
44
38
ENDCHAR
STARTCHAR uni1ECF
ENCODING 7887
SWIDTH 562 0
DWIDTH 9 0
BBX 6 12 1 0
BITMAP
30
08
10
00
78
84
84
84
84
84
84
78
ENDCHAR
STARTCHAR uni1ED0
ENCODING 7888
SWIDTH 562 0
DWIDTH 9 0
BBX 8 13 0 0
BITMAP
01
12
28
44
38
44
82
82
82
82
82
44
38
ENDCHAR
STARTCHAR uni1ED1
ENCODING 7889
SWIDTH 562 0
DWIDTH 9 0
BBX 7 13 1 0
BITMAP
02
24
50
88
00
78
84
84
84
84
84
84
78
ENDCHAR
STARTCHAR uni1ED2
ENCODING 7890
SWIDTH 562 0
DWIDTH 9 0
BBX 8 13 0 0
BITMAP
80
48
14
22
1C
22
41
41
41
41
41
22
1C
ENDCHAR
STARTCHAR uni1ED3
ENCODING 7891
SWIDTH 562 0
DWIDTH 9 0
BBX 7 13 0 0
BITMAP
80
48
14
22
00
3C
42
42
42
42
42
42
3C
ENDCHAR
STARTCHAR uni1ED4
ENCODING 7892
SWIDTH 562 0
DWIDTH 9 0
BBX 8 13 0 0
BITMAP
12
29
45
00
38
44
82
82
82
82
82
44
38
ENDCHAR
STARTCHAR uni1ED5
ENCODING 7893
SWIDTH 562 0
DWIDTH 9 0
BBX 7 13 1 0
BITMAP
04
22
52
88
00
78
84
84
84
84
84
84
78
ENDCHAR
STARTCHAR uni1ED6
ENCODING 7894
SWIDTH 562 0
DWIDTH 9 0
BBX 7 13 0 0
BITMAP
32
4C
10
28
44
38
44
82
82
82
82
44
38
ENDCHAR
STARTCHAR uni1ED7
ENCODING 7895
SWIDTH 562 0
DWIDTH 9 0
BBX 6 13 1 0
BITMAP
64
98
20
50
88
00
78
84
84
84
84
84
78
ENDCHAR
STARTCHAR uni1ED8
ENCODING 7896
SWIDTH 562 0
DWIDTH 9 0
BBX 7 15 0 -2
BITMAP
10
28
44
38
44
82
82
82
82
82
82
44
38
00
10
ENDCHAR
STARTCHAR uni1ED9
ENCODING 7897
SWIDTH 562 0
DWIDTH 9 0
BBX 6 14 1 -2
BITMAP
20
50
88
00
78
84
84
84
84
84
84
78
00
20
ENDCHAR
STARTCHAR uni1EDA
ENCODING 7898
SWIDTH 562 0
DWIDTH 9 0
BBX 8 13 0 0
BITMAP
08
11
01
3A
44
82
82
82
82
82
82
44
38
ENDCHAR
STARTCHAR uni1EDB
ENCODING 7899
SWIDTH 562 0
DWIDTH 9 0
BBX 7 12 1 0
BITMAP
10
12
22
04
78
84
84
84
84
84
84
78
ENDCHAR
STARTCHAR uni1EDC
ENCODING 7900
SWIDTH 562 0
DWIDTH 9 0
BBX 8 13 0 0
BITMAP
20
11
01
3A
44
82
82
82
82
82
82
44
38
ENDCHAR
STARTCHAR uni1EDD
ENCODING 7901
SWIDTH 562 0
DWIDTH 9 0
BBX 7 12 1 0
BITMAP
20
22
12
04
78
84
84
84
84
84
84
78
ENDCHAR
STARTCHAR uni1EDE
ENCODING 7902
SWIDTH 562 0
DWIDTH 9 0
BBX 8 13 0 0
BITMAP
30
08
11
01
3A
44
82
82
82
82
82
44
38
ENDCHAR
STARTCHAR uni1EDF
ENCODING 7903
SWIDTH 562 0
DWIDTH 9 0
BBX 7 12 1 0
BITMAP
60
12
22
04
78
84
84
84
84
84
84
78
ENDCHAR
STARTCHAR uni1EE0
ENCODING 7904
SWIDTH 562 0
DWIDTH 9 0
BBX 8 13 0 0
BITMAP
64
99
01
3A
44
82
82
82
82
82
82
44
38
ENDCHAR
STARTCHAR uni1EE1
ENCODING 7905
SWIDTH 562 0
DWIDTH 9 0
BBX 8 11 0 0
BITMAP
65
99
02
3C
42
42
42
42
42
42
3C
ENDCHAR
STARTCHAR uni1EE2
ENCODING 7906
SWIDTH 562 0
DWIDTH 9 0
BBX 8 15 0 -2
BITMAP
01
01
3A
44
82
82
82
82
82
82
82
44
38
00
10
ENDCHAR
STARTCHAR uni1EE3
ENCODING 7907
SWIDTH 562 0
DWIDTH 9 0
BBX 7 13 1 -2
BITMAP
02
02
04
78
84
84
84
84
84
84
78
00
20
ENDCHAR
STARTCHAR uni1EE4
ENCODING 7908
SWIDTH 562 0
DWIDTH 9 0
BBX 6 13 1 -2
BITMAP
84
84
84
84
84
84
84
84
84
84
78
00
20
ENDCHAR
STARTCHAR uni1EE5
ENCODING 7909
SWIDTH 562 0
DWIDTH 9 0
BBX 6 10 1 -2
BITMAP
84
84
84
84
84
84
84
78
00
20
ENDCHAR
STARTCHAR uni1EE6
ENCODING 7910
SWIDTH 562 0
DWIDTH 9 0
BBX 6 13 1 0
BITMAP
60
10
20
84
84
84
84
84
84
84
84
84
78
ENDCHAR
STARTCHAR uni1EE7
ENCODING 7911
SWIDTH 562 0
DWIDTH 9 0
BBX 6 11 1 0
BITMAP
60
10
20
84
84
84
84
84
84
84
78
ENDCHAR
STARTCHAR uni1EE8
ENCODING 7912
SWIDTH 562 0
DWIDTH 9 0
BBX 8 13 0 0
BITMAP
10
20
01
85
86
84
84
84
84
84
84
84
78
ENDCHAR
STARTCHAR uni1EE9
ENCODING 7913
SWIDTH 562 0
DWIDTH 9 0
BBX 8 12 0 0
BITMAP
10
10
20
01
85
86
84
84
84
84
84
78
ENDCHAR
STARTCHAR uni1EEA
ENCODING 7914
SWIDTH 562 0
DWIDTH 9 0
BBX 8 13 0 0
BITMAP
20
10
01
85
86
84
84
84
84
84
84
84
78
ENDCHAR
STARTCHAR uni1EEB
ENCODING 7915
SWIDTH 562 0
DWIDTH 9 0
BBX 8 12 0 0
BITMAP
20
20
10
01
85
86
84
84
84
84
84
78
ENDCHAR
STARTCHAR uni1EEC
ENCODING 7916
SWIDTH 562 0
DWIDTH 9 0
BBX 8 13 0 0
BITMAP
60
10
21
85
86
84
84
84
84
84
84
84
78
ENDCHAR
STARTCHAR uni1EED
ENCODING 7917
SWIDTH 562 0
DWIDTH 9 0
BBX 8 11 0 0
BITMAP
60
10
21
85
86
84
84
84
84
84
78
ENDCHAR
STARTCHAR uni1EEE
ENCODING 7918
SWIDTH 562 0
DWIDTH 9 0
BBX 8 13 0 0
BITMAP
64
98
01
85
86
84
84
84
84
84
84
84
78
ENDCHAR
STARTCHAR uni1EEF
ENCODING 7919
SWIDTH 562 0
DWIDTH 9 0
BBX 8 11 0 0
BITMAP
64
98
01
85
86
84
84
84
84
84
78
ENDCHAR
STARTCHAR uni1EF0
ENCODING 7920
SWIDTH 562 0
DWIDTH 9 0
BBX 8 14 0 -2
BITMAP
01
85
86
84
84
84
84
84
84
84
84
78
00
20
ENDCHAR
STARTCHAR uni1EF1
ENCODING 7921
SWIDTH 562 0
DWIDTH 9 0
BBX 8 11 0 -2
BITMAP
01
85
86
84
84
84
84
84
78
00
20
ENDCHAR
STARTCHAR Ygrave
ENCODING 7922
SWIDTH 562 0
DWIDTH 9 0
BBX 7 13 0 0
BITMAP
20
10
82
82
44
44
28
28
10
10
10
10
10
ENDCHAR
STARTCHAR ygrave
ENCODING 7923
SWIDTH 562 0
DWIDTH 9 0
BBX 6 15 1 -3
BITMAP
20
20
10
00
84
84
44
48
28
28
10
10
10
20
20
ENDCHAR
STARTCHAR uni1EF4
ENCODING 7924
SWIDTH 562 0
DWIDTH 9 0
BBX 7 13 0 -2
BITMAP
82
82
44
44
28
28
10
10
10
10
10
00
10
ENDCHAR
STARTCHAR uni1EF5
ENCODING 7925
SWIDTH 562 0
DWIDTH 9 0
BBX 6 11 1 -3
BITMAP
84
84
44
48
28
28
10
10
10
20
24
ENDCHAR
STARTCHAR uni1EF6
ENCODING 7926
SWIDTH 562 0
DWIDTH 9 0
BBX 7 13 0 0
BITMAP
30
08
10
82
82
44
44
28
28
10
10
10
10
ENDCHAR
STARTCHAR uni1EF7
ENCODING 7927
SWIDTH 562 0
DWIDTH 9 0
BBX 6 15 1 -3
BITMAP
30
08
10
00
84
84
44
48
28
28
10
10
10
20
20
ENDCHAR
STARTCHAR uni1EF8
ENCODING 7928
SWIDTH 562 0
DWIDTH 9 0
BBX 7 13 0 0
BITMAP
32
4C
00
82
82
44
44
28
28
10
10
10
10
ENDCHAR
STARTCHAR uni1EF9
ENCODING 7929
SWIDTH 562 0
DWIDTH 9 0
BBX 6 14 1 -3
BITMAP
64
98
00
84
84
44
48
28
28
10
10
10
20
20
ENDCHAR
STARTCHAR uni1EFA
ENCODING 7930
SWIDTH 562 0
DWIDTH 9 0
BBX 7 11 0 0
BITMAP
90
90
90
90
90
90
90
90
90
90
FE
ENDCHAR
STARTCHAR uni1EFB
ENCODING 7931
SWIDTH 562 0
DWIDTH 9 0
BBX 6 11 1 0
BITMAP
48
48
FC
48
48
48
48
48
48
48
48
ENDCHAR
STARTCHAR uni1EFC
ENCODING 7932
SWIDTH 562 0
DWIDTH 9 0
BBX 6 11 1 0
BITMAP
08
10
20
20
40
48
84
84
84
48
30
ENDCHAR
STARTCHAR uni1EFD
ENCODING 7933
SWIDTH 562 0
DWIDTH 9 0
BBX 6 8 1 0
BITMAP
10
20
40
40
98
84
84
78
ENDCHAR
STARTCHAR uni1EFE
ENCODING 7934
SWIDTH 562 0
DWIDTH 9 0
BBX 6 11 1 0
BITMAP
84
84
44
48
28
28
10
10
50
A0
40
ENDCHAR
STARTCHAR uni1EFF
ENCODING 7935
SWIDTH 562 0
DWIDTH 9 0
BBX 6 11 1 -3
BITMAP
84
84
44
48
28
28
10
10
50
A0
40
ENDCHAR
STARTCHAR uni1F00
ENCODING 7936
SWIDTH 562 0
DWIDTH 9 0
BBX 7 12 1 0
BITMAP
10
10
20
00
62
94
94
88
88
94
94
62
ENDCHAR
STARTCHAR uni1F01
ENCODING 7937
SWIDTH 562 0
DWIDTH 9 0
BBX 7 12 1 0
BITMAP
20
20
10
00
62
94
94
88
88
94
94
62
ENDCHAR
STARTCHAR uni1F02
ENCODING 7938
SWIDTH 562 0
DWIDTH 9 0
BBX 7 12 1 0
BITMAP
28
24
40
00
62
94
94
88
88
94
94
62
ENDCHAR
STARTCHAR uni1F03
ENCODING 7939
SWIDTH 562 0
DWIDTH 9 0
BBX 7 12 1 0
BITMAP
48
44
20
00
62
94
94
88
88
94
94
62
ENDCHAR
STARTCHAR uni1F04
ENCODING 7940
SWIDTH 562 0
DWIDTH 9 0
BBX 7 12 1 0
BITMAP
24
28
40
00
62
94
94
88
88
94
94
62
ENDCHAR
STARTCHAR uni1F05
ENCODING 7941
SWIDTH 562 0
DWIDTH 9 0
BBX 7 12 1 0
BITMAP
44
48
20
00
62
94
94
88
88
94
94
62
ENDCHAR
STARTCHAR uni1F06
ENCODING 7942
SWIDTH 562 0
DWIDTH 9 0
BBX 7 13 1 0
BITMAP
32
4C
10
10
20
00
62
94
94
88
94
94
62
ENDCHAR
STARTCHAR uni1F07
ENCODING 7943
SWIDTH 562 0
DWIDTH 9 0
BBX 7 13 1 0
BITMAP
64
98
20
20
10
00
62
94
94
88
94
94
62
ENDCHAR
STARTCHAR uni1F08
ENCODING 7944
SWIDTH 562 0
DWIDTH 9 0
BBX 7 13 0 0
BITMAP
40
40
90
10
28
28
28
44
44
7C
82
82
82
ENDCHAR
STARTCHAR uni1F09
ENCODING 7945
SWIDTH 562 0
DWIDTH 9 0
BBX 7 13 0 0
BITMAP
80
80
50
10
28
28
28
44
44
7C
82
82
82
ENDCHAR
STARTCHAR uni1F0A
ENCODING 7946
SWIDTH 562 0
DWIDTH 9 0
BBX 7 13 0 0
BITMAP
50
48
80
10
10
28
28
28
44
44
7C
82
82
ENDCHAR
STARTCHAR uni1F0B
ENCODING 7947
SWIDTH 562 0
DWIDTH 9 0
BBX 7 13 0 0
BITMAP
90
88
40
10
10
28
28
28
44
44
7C
82
82
ENDCHAR
STARTCHAR uni1F0C
ENCODING 7948
SWIDTH 562 0
DWIDTH 9 0
BBX 7 13 0 0
BITMAP
48
50
80
10
10
28
28
28
44
44
7C
82
82
ENDCHAR
STARTCHAR uni1F0D
ENCODING 7949
SWIDTH 562 0
DWIDTH 9 0
BBX 7 13 0 0
BITMAP
88
90
40
10
10
28
28
28
44
44
7C
82
82
ENDCHAR
STARTCHAR uni1F0E
ENCODING 7950
SWIDTH 562 0
DWIDTH 9 0
BBX 8 13 0 0
BITMAP
32
4C
00
48
48
94
14
14
22
22
3E
41
41
ENDCHAR
STARTCHAR uni1F0F
ENCODING 7951
SWIDTH 562 0
DWIDTH 9 0
BBX 8 13 0 0
BITMAP
32
4C
00
88
88
54
14
14
22
22
3E
41
41
ENDCHAR
STARTCHAR uni1F10
ENCODING 7952
SWIDTH 562 0
DWIDTH 9 0
BBX 6 12 1 0
BITMAP
10
10
20
00
7C
80
80
78
80
80
80
7C
ENDCHAR
STARTCHAR uni1F11
ENCODING 7953
SWIDTH 562 0
DWIDTH 9 0
BBX 6 12 1 0
BITMAP
20
20
10
00
7C
80
80
78
80
80
80
7C
ENDCHAR
STARTCHAR uni1F12
ENCODING 7954
SWIDTH 562 0
DWIDTH 9 0
BBX 6 12 1 0
BITMAP
28
24
40
00
7C
80
80
78
80
80
80
7C
ENDCHAR
STARTCHAR uni1F13
ENCODING 7955
SWIDTH 562 0
DWIDTH 9 0
BBX 6 12 1 0
BITMAP
48
44
20
00
7C
80
80
78
80
80
80
7C
ENDCHAR
STARTCHAR uni1F14
ENCODING 7956
SWIDTH 562 0
DWIDTH 9 0
BBX 6 12 1 0
BITMAP
24
28
40
00
7C
80
80
78
80
80
80
7C
ENDCHAR
STARTCHAR uni1F15
ENCODING 7957
SWIDTH 562 0
DWIDTH 9 0
BBX 6 12 1 0
BITMAP
24
28
40
00
7C
80
80
78
80
80
80
7C
ENDCHAR
STARTCHAR uni1F18
ENCODING 7960
SWIDTH 562 0
DWIDTH 9 0
BBX 7 13 0 0
BITMAP
40
40
80
00
7E
40
40
40
7C
40
40
40
7E
ENDCHAR
STARTCHAR uni1F19
ENCODING 7961
SWIDTH 562 0
DWIDTH 9 0
BBX 7 13 0 0
BITMAP
80
80
40
00
7E
40
40
40
7C
40
40
40
7E
ENDCHAR
STARTCHAR uni1F1A
ENCODING 7962
SWIDTH 562 0
DWIDTH 9 0
BBX 7 13 0 0
BITMAP
50
48
80
00
7E
40
40
40
7C
40
40
40
7E
ENDCHAR
STARTCHAR uni1F1B
ENCODING 7963
SWIDTH 562 0
DWIDTH 9 0
BBX 7 13 0 0
BITMAP
90
88
40
00
7E
40
40
40
7C
40
40
40
7E
ENDCHAR
STARTCHAR uni1F1C
ENCODING 7964
SWIDTH 562 0
DWIDTH 9 0
BBX 7 13 0 0
BITMAP
48
50
80
00
7E
40
40
40
7C
40
40
40
7E
ENDCHAR
STARTCHAR uni1F1D
ENCODING 7965
SWIDTH 562 0
DWIDTH 9 0
BBX 7 13 0 0
BITMAP
88
90
40
00
7E
40
40
40
7C
40
40
40
7E
ENDCHAR
STARTCHAR uni1F20
ENCODING 7968
SWIDTH 562 0
DWIDTH 9 0
BBX 6 15 1 -3
BITMAP
10
10
20
00
B8
C4
84
84
84
84
84
84
04
04
04
ENDCHAR
STARTCHAR uni1F21
ENCODING 7969
SWIDTH 562 0
DWIDTH 9 0
BBX 6 15 1 -3
BITMAP
20
20
10
00
B8
C4
84
84
84
84
84
84
04
04
04
ENDCHAR
STARTCHAR uni1F22
ENCODING 7970
SWIDTH 562 0
DWIDTH 9 0
BBX 6 15 1 -3
BITMAP
50
48
80
00
B8
C4
84
84
84
84
84
84
04
04
04
ENDCHAR
STARTCHAR uni1F23
ENCODING 7971
SWIDTH 562 0
DWIDTH 9 0
BBX 6 15 1 -3
BITMAP
90
88
40
00
B8
C4
84
84
84
84
84
84
04
04
04
ENDCHAR
STARTCHAR uni1F24
ENCODING 7972
SWIDTH 562 0
DWIDTH 9 0
BBX 6 15 1 -3
BITMAP
48
50
80
00
B8
C4
84
84
84
84
84
84
04
04
04
ENDCHAR
STARTCHAR uni1F25
ENCODING 7973
SWIDTH 562 0
DWIDTH 9 0
BBX 6 15 1 -3
BITMAP
88
90
40
00
B8
C4
84
84
84
84
84
84
04
04
04
ENDCHAR
STARTCHAR uni1F26
ENCODING 7974
SWIDTH 562 0
DWIDTH 9 0
BBX 6 16 1 -3
BITMAP
64
98
20
20
40
00
B8
C4
84
84
84
84
84
04
04
04
ENDCHAR
STARTCHAR uni1F27
ENCODING 7975
SWIDTH 562 0
DWIDTH 9 0
BBX 6 16 1 -3
BITMAP
64
98
20
20
10
00
B8
C4
84
84
84
84
84
04
04
04
ENDCHAR
STARTCHAR uni1F28
ENCODING 7976
SWIDTH 562 0
DWIDTH 9 0
BBX 7 13 0 0
BITMAP
40
40
80
00
42
42
42
42
7E
42
42
42
42
ENDCHAR
STARTCHAR uni1F29
ENCODING 7977
SWIDTH 562 0
DWIDTH 9 0
BBX 7 13 0 0
BITMAP
80
80
40
00
42
42
42
42
7E
42
42
42
42
ENDCHAR
STARTCHAR uni1F2A
ENCODING 7978
SWIDTH 562 0
DWIDTH 9 0
BBX 7 13 0 0
BITMAP
50
48
80
00
42
42
42
42
7E
42
42
42
42
ENDCHAR
STARTCHAR uni1F2B
ENCODING 7979
SWIDTH 562 0
DWIDTH 9 0
BBX 7 13 0 0
BITMAP
90
88
40
00
42
42
42
42
7E
42
42
42
42
ENDCHAR
STARTCHAR uni1F2C
ENCODING 7980
SWIDTH 562 0
DWIDTH 9 0
BBX 7 13 0 0
BITMAP
48
50
80
00
42
42
42
42
7E
42
42
42
42
ENDCHAR
STARTCHAR uni1F2D
ENCODING 7981
SWIDTH 562 0
DWIDTH 9 0
BBX 7 13 0 0
BITMAP
88
90
40
00
42
42
42
42
7E
42
42
42
42
ENDCHAR
STARTCHAR uni1F2E
ENCODING 7982
SWIDTH 562 0
DWIDTH 9 0
BBX 8 13 0 0
BITMAP
19
26
00
91
91
51
11
1F
11
11
11
11
11
ENDCHAR
STARTCHAR uni1F2F
ENCODING 7983
SWIDTH 562 0
DWIDTH 9 0
BBX 8 13 0 0
BITMAP
19
26
00
51
51
91
11
1F
11
11
11
11
11
ENDCHAR
STARTCHAR uni1F30
ENCODING 7984
SWIDTH 562 0
DWIDTH 9 0
BBX 4 12 3 0
BITMAP
20
20
40
00
C0
40
40
40
40
40
40
30
ENDCHAR
STARTCHAR uni1F31
ENCODING 7985
SWIDTH 562 0
DWIDTH 9 0
BBX 4 12 3 0
BITMAP
80
80
40
00
C0
40
40
40
40
40
40
30
ENDCHAR
STARTCHAR uni1F32
ENCODING 7986
SWIDTH 562 0
DWIDTH 9 0
BBX 5 12 2 0
BITMAP
50
48
80
00
60
20
20
20
20
20
20
18
ENDCHAR
STARTCHAR uni1F33
ENCODING 7987
SWIDTH 562 0
DWIDTH 9 0
BBX 5 12 2 0
BITMAP
90
88
40
00
60
20
20
20
20
20
20
18
ENDCHAR
STARTCHAR uni1F34
ENCODING 7988
SWIDTH 562 0
DWIDTH 9 0
BBX 5 12 2 0
BITMAP
48
50
80
00
60
20
20
20
20
20
20
18
ENDCHAR
STARTCHAR uni1F35
ENCODING 7989
SWIDTH 562 0
DWIDTH 9 0
BBX 5 12 2 0
BITMAP
88
90
40
00
60
20
20
20
20
20
20
18
ENDCHAR
STARTCHAR uni1F36
ENCODING 7990
SWIDTH 562 0
DWIDTH 9 0
BBX 6 13 1 0
BITMAP
64
98
20
20
40
00
30
10
10
10
10
10
0C
ENDCHAR
STARTCHAR uni1F37
ENCODING 7991
SWIDTH 562 0
DWIDTH 9 0
BBX 6 13 1 0
BITMAP
64
98
20
20
10
00
30
10
10
10
10
10
0C
ENDCHAR
STARTCHAR uni1F38
ENCODING 7992
SWIDTH 562 0
DWIDTH 9 0
BBX 8 13 0 0
BITMAP
40
40
9F
04
04
04
04
04
04
04
04
04
1F
ENDCHAR
STARTCHAR uni1F39
ENCODING 7993
SWIDTH 562 0
DWIDTH 9 0
BBX 8 13 0 0
BITMAP
80
80
5F
04
04
04
04
04
04
04
04
04
1F
ENDCHAR
STARTCHAR uni1F3A
ENCODING 7994
SWIDTH 562 0
DWIDTH 9 0
BBX 6 13 0 0
BITMAP
50
48
80
00
7C
10
10
10
10
10
10
10
7C
ENDCHAR
STARTCHAR uni1F3B
ENCODING 7995
SWIDTH 562 0
DWIDTH 9 0
BBX 6 13 0 0
BITMAP
90
88
40
00
7C
10
10
10
10
10
10
10
7C
ENDCHAR
STARTCHAR uni1F3C
ENCODING 7996
SWIDTH 562 0
DWIDTH 9 0
BBX 6 13 0 0
BITMAP
48
50
80
00
7C
10
10
10
10
10
10
10
7C
ENDCHAR
STARTCHAR uni1F3D
ENCODING 7997
SWIDTH 562 0
DWIDTH 9 0
BBX 6 13 0 0
BITMAP
88
90
40
00
7C
10
10
10
10
10
10
10
7C
ENDCHAR
STARTCHAR uni1F3E
ENCODING 7998
SWIDTH 562 0
DWIDTH 9 0
BBX 8 13 0 0
BITMAP
19
26
00
9F
84
44
04
04
04
04
04
04
1F
ENDCHAR
STARTCHAR uni1F3F
ENCODING 7999
SWIDTH 562 0
DWIDTH 9 0
BBX 8 13 0 0
BITMAP
19
26
00
9F
84
44
04
04
04
04
04
04
1F
ENDCHAR
STARTCHAR uni1F40
ENCODING 8000
SWIDTH 562 0
DWIDTH 9 0
BBX 6 12 1 0
BITMAP
10
10
20
00
30
48
84
84
84
84
48
30
ENDCHAR
STARTCHAR uni1F41
ENCODING 8001
SWIDTH 562 0
DWIDTH 9 0
BBX 6 12 1 0
BITMAP
20
20
10
00
30
48
84
84
84
84
48
30
ENDCHAR
STARTCHAR uni1F42
ENCODING 8002
SWIDTH 562 0
DWIDTH 9 0
BBX 6 12 1 0
BITMAP
50
48
80
00
30
48
84
84
84
84
48
30
ENDCHAR
STARTCHAR uni1F43
ENCODING 8003
SWIDTH 562 0
DWIDTH 9 0
BBX 6 12 1 0
BITMAP
90
88
40
00
30
48
84
84
84
84
48
30
ENDCHAR
STARTCHAR uni1F44
ENCODING 8004
SWIDTH 562 0
DWIDTH 9 0
BBX 6 12 1 0
BITMAP
48
50
80
00
30
48
84
84
84
84
48
30
ENDCHAR
STARTCHAR uni1F45
ENCODING 8005
SWIDTH 562 0
DWIDTH 9 0
BBX 6 12 1 0
BITMAP
88
90
40
00
30
48
84
84
84
84
48
30
ENDCHAR
STARTCHAR uni1F48
ENCODING 8008
SWIDTH 562 0
DWIDTH 9 0
BBX 8 13 0 0
BITMAP
40
40
8C
12
21
21
21
21
21
21
21
12
0C
ENDCHAR
STARTCHAR uni1F49
ENCODING 8009
SWIDTH 562 0
DWIDTH 9 0
BBX 8 13 0 0
BITMAP
80
80
4C
12
21
21
21
21
21
21
21
12
0C
ENDCHAR
STARTCHAR uni1F4A
ENCODING 8010
SWIDTH 562 0
DWIDTH 9 0
BBX 7 13 0 0
BITMAP
50
48
80
00
38
44
82
82
82
82
82
44
38
ENDCHAR
STARTCHAR uni1F4B
ENCODING 8011
SWIDTH 562 0
DWIDTH 9 0
BBX 7 13 0 0
BITMAP
90
88
40
00
38
44
82
82
82
82
82
44
38
ENDCHAR
STARTCHAR uni1F4C
ENCODING 8012
SWIDTH 562 0
DWIDTH 9 0
BBX 7 13 0 0
BITMAP
48
50
80
00
38
44
82
82
82
82
82
44
38
ENDCHAR
STARTCHAR uni1F4D
ENCODING 8013
SWIDTH 562 0
DWIDTH 9 0
BBX 7 13 0 0
BITMAP
90
88
40
00
38
44
82
82
82
82
82
44
38
ENDCHAR
STARTCHAR uni1F50
ENCODING 8016
SWIDTH 562 0
DWIDTH 9 0
BBX 6 12 1 0
BITMAP
10
10
20
00
88
84
84
84
84
84
88
70
ENDCHAR
STARTCHAR uni1F51
ENCODING 8017
SWIDTH 562 0
DWIDTH 9 0
BBX 6 12 1 0
BITMAP
20
20
10
00
88
84
84
84
84
84
88
70
ENDCHAR
STARTCHAR uni1F52
ENCODING 8018
SWIDTH 562 0
DWIDTH 9 0
BBX 6 12 1 0
BITMAP
50
48
80
00
88
84
84
84
84
84
88
70
ENDCHAR
STARTCHAR uni1F53
ENCODING 8019
SWIDTH 562 0
DWIDTH 9 0
BBX 6 12 1 0
BITMAP
90
88
40
00
88
84
84
84
84
84
88
70
ENDCHAR
STARTCHAR uni1F54
ENCODING 8020
SWIDTH 562 0
DWIDTH 9 0
BBX 6 12 1 0
BITMAP
48
50
80
00
88
84
84
84
84
84
88
70
ENDCHAR
STARTCHAR uni1F55
ENCODING 8021
SWIDTH 562 0
DWIDTH 9 0
BBX 6 12 1 0
BITMAP
88
90
40
00
88
84
84
84
84
84
88
70
ENDCHAR
STARTCHAR uni1F56
ENCODING 8022
SWIDTH 562 0
DWIDTH 9 0
BBX 6 13 1 0
BITMAP
64
98
20
20
40
00
88
84
84
84
84
88
70
ENDCHAR
STARTCHAR uni1F57
ENCODING 8023
SWIDTH 562 0
DWIDTH 9 0
BBX 6 13 1 0
BITMAP
64
98
40
40
20
00
88
84
84
84
84
88
70
ENDCHAR
STARTCHAR uni1F59
ENCODING 8025
SWIDTH 562 0
DWIDTH 9 0
BBX 8 11 0 0
BITMAP
91
91
51
11
0A
0A
04
04
04
04
04
ENDCHAR
STARTCHAR uni1F5B
ENCODING 8027
SWIDTH 562 0
DWIDTH 9 0
BBX 8 13 0 0
BITMAP
90
88
40
00
41
41
22
14
14
08
08
08
08
ENDCHAR
STARTCHAR uni1F5D
ENCODING 8029
SWIDTH 562 0
DWIDTH 9 0
BBX 8 13 0 0
BITMAP
88
90
40
00
41
41
22
14
14
08
08
08
08
ENDCHAR
STARTCHAR uni1F5F
ENCODING 8031
SWIDTH 562 0
DWIDTH 9 0
BBX 8 13 0 0
BITMAP
19
26
00
51
51
91
0A
0A
04
04
04
04
04
ENDCHAR
STARTCHAR uni1F60
ENCODING 8032
SWIDTH 562 0
DWIDTH 9 0
BBX 7 12 0 0
BITMAP
08
08
10
00
44
82
82
82
92
92
92
6C
ENDCHAR
STARTCHAR uni1F61
ENCODING 8033
SWIDTH 562 0
DWIDTH 9 0
BBX 7 12 0 0
BITMAP
20
20
10
00
44
82
82
82
92
92
92
6C
ENDCHAR
STARTCHAR uni1F62
ENCODING 8034
SWIDTH 562 0
DWIDTH 9 0
BBX 7 12 0 0
BITMAP
28
24
40
00
44
82
82
82
92
92
92
6C
ENDCHAR
STARTCHAR uni1F63
ENCODING 8035
SWIDTH 562 0
DWIDTH 9 0
BBX 7 12 0 0
BITMAP
48
44
20
00
44
82
82
82
92
92
92
6C
ENDCHAR
STARTCHAR uni1F64
ENCODING 8036
SWIDTH 562 0
DWIDTH 9 0
BBX 7 12 0 0
BITMAP
24
28
40
00
44
82
82
82
92
92
92
6C
ENDCHAR
STARTCHAR uni1F65
ENCODING 8037
SWIDTH 562 0
DWIDTH 9 0
BBX 7 12 0 0
BITMAP
44
48
20
00
44
82
82
82
92
92
92
6C
ENDCHAR
STARTCHAR uni1F66
ENCODING 8038
SWIDTH 562 0
DWIDTH 9 0
BBX 7 13 0 0
BITMAP
32
4C
10
10
20
00
44
82
82
92
92
92
6C
ENDCHAR
STARTCHAR uni1F67
ENCODING 8039
SWIDTH 562 0
DWIDTH 9 0
BBX 7 13 0 0
BITMAP
32
4C
10
10
08
00
44
82
82
92
92
92
6C
ENDCHAR
STARTCHAR uni1F68
ENCODING 8040
SWIDTH 562 0
DWIDTH 9 0
BBX 8 13 0 0
BITMAP
40
40
8C
12
21
21
21
21
21
21
12
12
33
ENDCHAR
STARTCHAR uni1F69
ENCODING 8041
SWIDTH 562 0
DWIDTH 9 0
BBX 8 13 0 0
BITMAP
80
80
4C
12
21
21
21
21
21
21
12
12
33
ENDCHAR
STARTCHAR uni1F6A
ENCODING 8042
SWIDTH 562 0
DWIDTH 9 0
BBX 8 13 0 0
BITMAP
50
48
80
1C
22
41
41
41
41
41
22
14
77
ENDCHAR
STARTCHAR uni1F6B
ENCODING 8043
SWIDTH 562 0
DWIDTH 9 0
BBX 8 13 0 0
BITMAP
90
88
40
1C
22
41
41
41
41
41
22
14
77
ENDCHAR
STARTCHAR uni1F6C
ENCODING 8044
SWIDTH 562 0
DWIDTH 9 0
BBX 8 13 0 0
BITMAP
48
50
80
1C
22
41
41
41
41
41
22
14
77
ENDCHAR
STARTCHAR uni1F6D
ENCODING 8045
SWIDTH 562 0
DWIDTH 9 0
BBX 8 13 0 0
BITMAP
88
90
40
1C
22
41
41
41
41
41
22
14
77
ENDCHAR
STARTCHAR uni1F6E
ENCODING 8046
SWIDTH 562 0
DWIDTH 9 0
BBX 8 13 0 0
BITMAP
64
98
00
8E
91
51
11
11
11
11
0A
0A
1B
ENDCHAR
STARTCHAR uni1F6F
ENCODING 8047
SWIDTH 562 0
DWIDTH 9 0
BBX 8 13 0 0
BITMAP
64
98
00
4E
51
91
11
11
11
11
0A
0A
1B
ENDCHAR
STARTCHAR uni1F70
ENCODING 8048
SWIDTH 562 0
DWIDTH 9 0
BBX 7 12 1 0
BITMAP
20
20
10
00
62
94
94
88
88
94
94
62
ENDCHAR
STARTCHAR uni1F71
ENCODING 8049
SWIDTH 562 0
DWIDTH 9 0
BBX 7 12 1 0
BITMAP
10
10
20
00
62
94
94
88
88
94
94
62
ENDCHAR
STARTCHAR uni1F72
ENCODING 8050
SWIDTH 562 0
DWIDTH 9 0
BBX 6 12 1 0
BITMAP
20
20
10
00
7C
80
80
78
80
80
80
7C
ENDCHAR
STARTCHAR uni1F73
ENCODING 8051
SWIDTH 562 0
DWIDTH 9 0
BBX 6 12 1 0
BITMAP
10
10
20
00
7C
80
80
78
80
80
80
7C
ENDCHAR
STARTCHAR uni1F74
ENCODING 8052
SWIDTH 562 0
DWIDTH 9 0
BBX 6 15 1 -3
BITMAP
20
20
10
00
B8
C4
84
84
84
84
84
84
04
04
04
ENDCHAR
STARTCHAR uni1F75
ENCODING 8053
SWIDTH 562 0
DWIDTH 9 0
BBX 6 15 1 -3
BITMAP
10
10
20
00
B8
C4
84
84
84
84
84
84
04
04
04
ENDCHAR
STARTCHAR uni1F76
ENCODING 8054
SWIDTH 562 0
DWIDTH 9 0
BBX 4 12 3 0
BITMAP
80
80
40
00
C0
40
40
40
40
40
40
30
ENDCHAR
STARTCHAR uni1F77
ENCODING 8055
SWIDTH 562 0
DWIDTH 9 0
BBX 4 12 3 0
BITMAP
40
40
80
00
C0
40
40
40
40
40
40
30
ENDCHAR
STARTCHAR uni1F78
ENCODING 8056
SWIDTH 562 0
DWIDTH 9 0
BBX 6 12 1 0
BITMAP
20
20
10
00
30
48
84
84
84
84
48
30
ENDCHAR
STARTCHAR uni1F79
ENCODING 8057
SWIDTH 562 0
DWIDTH 9 0
BBX 6 12 1 0
BITMAP
10
10
20
00
30
48
84
84
84
84
48
30
ENDCHAR
STARTCHAR uni1F7A
ENCODING 8058
SWIDTH 562 0
DWIDTH 9 0
BBX 6 12 1 0
BITMAP
20
20
10
00
88
84
84
84
84
84
88
70
ENDCHAR
STARTCHAR uni1F7B
ENCODING 8059
SWIDTH 562 0
DWIDTH 9 0
BBX 6 12 1 0
BITMAP
10
10
20
00
88
84
84
84
84
84
88
70
ENDCHAR
STARTCHAR uni1F7C
ENCODING 8060
SWIDTH 562 0
DWIDTH 9 0
BBX 7 12 0 0
BITMAP
20
20
10
00
44
82
82
82
92
92
92
6C
ENDCHAR
STARTCHAR uni1F7D
ENCODING 8061
SWIDTH 562 0
DWIDTH 9 0
BBX 7 12 0 0
BITMAP
10
10
20
00
44
82
82
82
92
92
92
6C
ENDCHAR
STARTCHAR uni1F80
ENCODING 8064
SWIDTH 562 0
DWIDTH 9 0
BBX 7 15 1 -3
BITMAP
10
10
20
00
62
94
94
88
88
94
94
62
00
20
18
ENDCHAR
STARTCHAR uni1F81
ENCODING 8065
SWIDTH 562 0
DWIDTH 9 0
BBX 7 15 1 -3
BITMAP
20
20
10
00
62
94
94
88
88
94
94
62
00
20
18
ENDCHAR
STARTCHAR uni1F82
ENCODING 8066
SWIDTH 562 0
DWIDTH 9 0
BBX 7 15 1 -3
BITMAP
28
24
40
00
62
94
94
88
88
94
94
62
00
20
18
ENDCHAR
STARTCHAR uni1F83
ENCODING 8067
SWIDTH 562 0
DWIDTH 9 0
BBX 7 15 1 -3
BITMAP
48
44
20
00
62
94
94
88
88
94
94
62
00
20
18
ENDCHAR
STARTCHAR uni1F84
ENCODING 8068
SWIDTH 562 0
DWIDTH 9 0
BBX 7 15 1 -3
BITMAP
24
28
40
00
62
94
94
88
88
94
94
62
00
20
18
ENDCHAR
STARTCHAR uni1F85
ENCODING 8069
SWIDTH 562 0
DWIDTH 9 0
BBX 7 15 1 -3
BITMAP
44
48
20
00
62
94
94
88
88
94
94
62
00
20
18
ENDCHAR
STARTCHAR uni1F86
ENCODING 8070
SWIDTH 562 0
DWIDTH 9 0
BBX 7 16 1 -3
BITMAP
32
4C
10
10
20
00
62
94
94
88
94
94
62
00
20
18
ENDCHAR
STARTCHAR uni1F87
ENCODING 8071
SWIDTH 562 0
DWIDTH 9 0
BBX 7 16 1 -3
BITMAP
64
98
20
20
10
00
62
94
94
88
94
94
62
00
20
18
ENDCHAR
STARTCHAR uni1F88
ENCODING 8072
SWIDTH 562 0
DWIDTH 9 0
BBX 7 16 0 -3
BITMAP
40
40
90
10
28
28
28
44
44
7C
82
82
82
00
10
0C
ENDCHAR
STARTCHAR uni1F89
ENCODING 8073
SWIDTH 562 0
DWIDTH 9 0
BBX 7 16 0 -3
BITMAP
80
80
50
10
28
28
28
44
44
7C
82
82
82
00
10
0C
ENDCHAR
STARTCHAR uni1F8A
ENCODING 8074
SWIDTH 562 0
DWIDTH 9 0
BBX 7 16 0 -3
BITMAP
50
48
80
10
10
28
28
28
44
44
7C
82
82
00
10
0C
ENDCHAR
STARTCHAR uni1F8B
ENCODING 8075
SWIDTH 562 0
DWIDTH 9 0
BBX 7 16 0 -3
BITMAP
90
88
40
10
10
28
28
28
44
44
7C
82
82
00
10
0C
ENDCHAR
STARTCHAR uni1F8C
ENCODING 8076
SWIDTH 562 0
DWIDTH 9 0
BBX 7 16 0 -3
BITMAP
48
50
80
10
10
28
28
28
44
44
7C
82
82
00
10
0C
ENDCHAR
STARTCHAR uni1F8D
ENCODING 8077
SWIDTH 562 0
DWIDTH 9 0
BBX 7 16 0 -3
BITMAP
88
90
40
10
10
28
28
28
44
44
7C
82
82
00
10
0C
ENDCHAR
STARTCHAR uni1F8E
ENCODING 8078
SWIDTH 562 0
DWIDTH 9 0
BBX 8 16 0 -3
BITMAP
32
4C
00
48
48
94
14
14
22
22
3E
41
41
00
08
06
ENDCHAR
STARTCHAR uni1F8F
ENCODING 8079
SWIDTH 562 0
DWIDTH 9 0
BBX 8 16 0 -3
BITMAP
32
4C
00
88
88
54
14
14
22
22
3E
41
41
00
08
06
ENDCHAR
STARTCHAR uni1F90
ENCODING 8080
SWIDTH 562 0
DWIDTH 9 0
BBX 6 15 1 -3
BITMAP
10
10
20
00
B8
C4
84
84
84
84
84
84
04
84
64
ENDCHAR
STARTCHAR uni1F91
ENCODING 8081
SWIDTH 562 0
DWIDTH 9 0
BBX 6 15 1 -3
BITMAP
20
20
10
00
B8
C4
84
84
84
84
84
84
04
84
64
ENDCHAR
STARTCHAR uni1F92
ENCODING 8082
SWIDTH 562 0
DWIDTH 9 0
BBX 6 15 1 -3
BITMAP
50
48
80
00
B8
C4
84
84
84
84
84
84
04
84
64
ENDCHAR
STARTCHAR uni1F93
ENCODING 8083
SWIDTH 562 0
DWIDTH 9 0
BBX 6 15 1 -3
BITMAP
90
88
40
00
B8
C4
84
84
84
84
84
84
04
84
64
ENDCHAR
STARTCHAR uni1F94
ENCODING 8084
SWIDTH 562 0
DWIDTH 9 0
BBX 6 15 1 -3
BITMAP
48
50
80
00
B8
C4
84
84
84
84
84
84
04
84
64
ENDCHAR
STARTCHAR uni1F95
ENCODING 8085
SWIDTH 562 0
DWIDTH 9 0
BBX 6 15 1 -3
BITMAP
88
90
40
00
B8
C4
84
84
84
84
84
84
04
84
64
ENDCHAR
STARTCHAR uni1F96
ENCODING 8086
SWIDTH 562 0
DWIDTH 9 0
BBX 6 16 1 -3
BITMAP
64
98
20
20
40
00
B8
C4
84
84
84
84
84
04
84
64
ENDCHAR
STARTCHAR uni1F97
ENCODING 8087
SWIDTH 562 0
DWIDTH 9 0
BBX 6 16 1 -3
BITMAP
64
98
20
20
10
00
B8
C4
84
84
84
84
84
04
84
64
ENDCHAR
STARTCHAR uni1F98
ENCODING 8088
SWIDTH 562 0
DWIDTH 9 0
BBX 7 16 0 -3
BITMAP
40
40
80
00
42
42
42
42
7E
42
42
42
42
00
10
0C
ENDCHAR
STARTCHAR uni1F99
ENCODING 8089
SWIDTH 562 0
DWIDTH 9 0
BBX 7 16 0 -3
BITMAP
80
80
40
00
42
42
42
42
7E
42
42
42
42
00
10
0C
ENDCHAR
STARTCHAR uni1F9A
ENCODING 8090
SWIDTH 562 0
DWIDTH 9 0
BBX 7 16 0 -3
BITMAP
50
48
80
00
42
42
42
42
7E
42
42
42
42
00
10
0C
ENDCHAR
STARTCHAR uni1F9B
ENCODING 8091
SWIDTH 562 0
DWIDTH 9 0
BBX 7 16 0 -3
BITMAP
90
88
40
00
42
42
42
42
7E
42
42
42
42
00
10
0C
ENDCHAR
STARTCHAR uni1F9C
ENCODING 8092
SWIDTH 562 0
DWIDTH 9 0
BBX 7 16 0 -3
BITMAP
48
50
80
00
42
42
42
42
7E
42
42
42
42
00
10
0C
ENDCHAR
STARTCHAR uni1F9D
ENCODING 8093
SWIDTH 562 0
DWIDTH 9 0
BBX 7 16 0 -3
BITMAP
88
90
40
00
42
42
42
42
7E
42
42
42
42
00
10
0C
ENDCHAR
STARTCHAR uni1F9E
ENCODING 8094
SWIDTH 562 0
DWIDTH 9 0
BBX 8 16 0 -3
BITMAP
19
26
00
91
91
51
11
1F
11
11
11
11
11
00
04
03
ENDCHAR
STARTCHAR uni1F9F
ENCODING 8095
SWIDTH 562 0
DWIDTH 9 0
BBX 8 16 0 -3
BITMAP
19
26
00
51
51
91
11
1F
11
11
11
11
11
00
04
03
ENDCHAR
STARTCHAR uni1FA0
ENCODING 8096
SWIDTH 562 0
DWIDTH 9 0
BBX 7 15 0 -3
BITMAP
08
08
10
00
44
82
82
82
92
92
92
6C
00
10
0C
ENDCHAR
STARTCHAR uni1FA1
ENCODING 8097
SWIDTH 562 0
DWIDTH 9 0
BBX 7 15 0 -3
BITMAP
20
20
10
00
44
82
82
82
92
92
92
6C
00
10
0C
ENDCHAR
STARTCHAR uni1FA2
ENCODING 8098
SWIDTH 562 0
DWIDTH 9 0
BBX 7 15 0 -3
BITMAP
28
24
40
00
44
82
82
82
92
92
92
6C
00
10
0C
ENDCHAR
STARTCHAR uni1FA3
ENCODING 8099
SWIDTH 562 0
DWIDTH 9 0
BBX 7 15 0 -3
BITMAP
48
44
20
00
44
82
82
82
92
92
92
6C
00
10
0C
ENDCHAR
STARTCHAR uni1FA4
ENCODING 8100
SWIDTH 562 0
DWIDTH 9 0
BBX 7 15 0 -3
BITMAP
24
28
40
00
44
82
82
82
92
92
92
6C
00
10
0C
ENDCHAR
STARTCHAR uni1FA5
ENCODING 8101
SWIDTH 562 0
DWIDTH 9 0
BBX 7 15 0 -3
BITMAP
44
48
20
00
44
82
82
82
92
92
92
6C
00
10
0C
ENDCHAR
STARTCHAR uni1FA6
ENCODING 8102
SWIDTH 562 0
DWIDTH 9 0
BBX 7 16 0 -3
BITMAP
32
4C
10
10
20
00
44
82
82
92
92
92
6C
00
10
0C
ENDCHAR
STARTCHAR uni1FA7
ENCODING 8103
SWIDTH 562 0
DWIDTH 9 0
BBX 7 16 0 -3
BITMAP
32
4C
10
10
08
00
44
82
82
92
92
92
6C
00
10
0C
ENDCHAR
STARTCHAR uni1FA8
ENCODING 8104
SWIDTH 562 0
DWIDTH 9 0
BBX 8 16 0 -3
BITMAP
40
40
8C
12
21
21
21
21
21
21
12
12
33
00
08
06
ENDCHAR
STARTCHAR uni1FA9
ENCODING 8105
SWIDTH 562 0
DWIDTH 9 0
BBX 8 16 0 -3
BITMAP
80
80
4C
12
21
21
21
21
21
21
12
12
33
00
08
06
ENDCHAR
STARTCHAR uni1FAA
ENCODING 8106
SWIDTH 562 0
DWIDTH 9 0
BBX 8 16 0 -3
BITMAP
50
48
80
1C
22
41
41
41
41
41
22
14
77
00
08
06
ENDCHAR
STARTCHAR uni1FAB
ENCODING 8107
SWIDTH 562 0
DWIDTH 9 0
BBX 8 16 0 -3
BITMAP
90
88
40
1C
22
41
41
41
41
41
22
14
77
00
08
06
ENDCHAR
STARTCHAR uni1FAC
ENCODING 8108
SWIDTH 562 0
DWIDTH 9 0
BBX 8 16 0 -3
BITMAP
48
50
80
1C
22
41
41
41
41
41
22
14
77
00
08
06
ENDCHAR
STARTCHAR uni1FAD
ENCODING 8109
SWIDTH 562 0
DWIDTH 9 0
BBX 8 16 0 -3
BITMAP
88
90
40
1C
22
41
41
41
41
41
22
14
77
00
08
06
ENDCHAR
STARTCHAR uni1FAE
ENCODING 8110
SWIDTH 562 0
DWIDTH 9 0
BBX 8 16 0 -3
BITMAP
64
98
00
8E
91
51
11
11
11
11
0A
0A
1B
00
04
03
ENDCHAR
STARTCHAR uni1FAF
ENCODING 8111
SWIDTH 562 0
DWIDTH 9 0
BBX 8 16 0 -3
BITMAP
64
98
00
4E
51
91
11
11
11
11
0A
0A
1B
00
04
03
ENDCHAR
STARTCHAR uni1FB0
ENCODING 8112
SWIDTH 562 0
DWIDTH 9 0
BBX 7 11 1 0
BITMAP
48
30
00
62
94
94
88
88
94
94
62
ENDCHAR
STARTCHAR uni1FB1
ENCODING 8113
SWIDTH 562 0
DWIDTH 9 0
BBX 7 13 1 -3
BITMAP
78
00
62
94
94
88
88
94
94
62
00
20
18
ENDCHAR
STARTCHAR uni1FB2
ENCODING 8114
SWIDTH 562 0
DWIDTH 9 0
BBX 7 15 1 -3
BITMAP
20
20
10
00
62
94
94
88
88
94
94
62
00
20
18
ENDCHAR
STARTCHAR uni1FB3
ENCODING 8115
SWIDTH 562 0
DWIDTH 9 0
BBX 7 11 1 -3
BITMAP
62
94
94
88
88
94
94
62
00
20
18
ENDCHAR
STARTCHAR uni1FB4
ENCODING 8116
SWIDTH 562 0
DWIDTH 9 0
BBX 7 15 1 -3
BITMAP
10
10
20
00
62
94
94
88
88
94
94
62
00
20
18
ENDCHAR
STARTCHAR uni1FB6
ENCODING 8118
SWIDTH 562 0
DWIDTH 9 0
BBX 7 11 1 0
BITMAP
64
98
00
62
94
94
88
88
94
94
62
ENDCHAR
STARTCHAR uni1FB7
ENCODING 8119
SWIDTH 562 0
DWIDTH 9 0
BBX 7 14 1 -3
BITMAP
64
98
00
62
94
94
88
88
94
94
62
00
20
18
ENDCHAR
STARTCHAR uni1FB8
ENCODING 8120
SWIDTH 562 0
DWIDTH 9 0
BBX 7 13 0 0
BITMAP
44
38
00
10
10
28
28
28
44
44
7C
82
82
ENDCHAR
STARTCHAR uni1FB9
ENCODING 8121
SWIDTH 562 0
DWIDTH 9 0
BBX 7 13 0 0
BITMAP
7C
00
10
10
28
28
28
44
44
7C
82
82
82
ENDCHAR
STARTCHAR uni1FBA
ENCODING 8122
SWIDTH 562 0
DWIDTH 9 0
BBX 7 13 0 0
BITMAP
80
80
50
10
28
28
28
44
44
7C
82
82
82
ENDCHAR
STARTCHAR uni1FBB
ENCODING 8123
SWIDTH 562 0
DWIDTH 9 0
BBX 7 13 0 0
BITMAP
40
40
90
10
28
28
28
44
44
7C
82
82
82
ENDCHAR
STARTCHAR uni1FBC
ENCODING 8124
SWIDTH 562 0
DWIDTH 9 0
BBX 7 14 0 -3
BITMAP
10
10
28
28
28
44
44
7C
82
82
82
00
10
0C
ENDCHAR
STARTCHAR uni1FBD
ENCODING 8125
SWIDTH 562 0
DWIDTH 9 0
BBX 2 3 3 9
BITMAP
40
40
80
ENDCHAR
STARTCHAR uni1FBE
ENCODING 8126
SWIDTH 562 0
DWIDTH 9 0
BBX 3 2 3 -3
BITMAP
80
60
ENDCHAR
STARTCHAR uni1FBF
ENCODING 8127
SWIDTH 562 0
DWIDTH 9 0
BBX 2 3 3 9
BITMAP
40
40
80
ENDCHAR
STARTCHAR uni1FC0
ENCODING 8128
SWIDTH 562 0
DWIDTH 9 0
BBX 6 2 1 10
BITMAP
64
98
ENDCHAR
STARTCHAR uni1FC1
ENCODING 8129
SWIDTH 562 0
DWIDTH 9 0
BBX 6 4 1 9
BITMAP
64
98
00
48
ENDCHAR
STARTCHAR uni1FC2
ENCODING 8130
SWIDTH 562 0
DWIDTH 9 0
BBX 6 15 1 -3
BITMAP
20
20
10
00
B8
C4
84
84
84
84
84
84
04
84
64
ENDCHAR
STARTCHAR uni1FC3
ENCODING 8131
SWIDTH 562 0
DWIDTH 9 0
BBX 6 11 1 -3
BITMAP
B8
C4
84
84
84
84
84
84
04
84
64
ENDCHAR
STARTCHAR uni1FC4
ENCODING 8132
SWIDTH 562 0
DWIDTH 9 0
BBX 6 15 1 -3
BITMAP
10
10
20
00
B8
C4
84
84
84
84
84
84
04
84
64
ENDCHAR
STARTCHAR uni1FC6
ENCODING 8134
SWIDTH 562 0
DWIDTH 9 0
BBX 6 14 1 -3
BITMAP
64
98
00
B8
C4
84
84
84
84
84
84
04
04
04
ENDCHAR
STARTCHAR uni1FC7
ENCODING 8135
SWIDTH 562 0
DWIDTH 9 0
BBX 6 14 1 -3
BITMAP
64
98
00
B8
C4
84
84
84
84
84
84
04
84
64
ENDCHAR
STARTCHAR uni1FC8
ENCODING 8136
SWIDTH 562 0
DWIDTH 9 0
BBX 7 13 0 0
BITMAP
80
40
00
7E
40
40
40
7C
40
40
40
40
7E
ENDCHAR
STARTCHAR uni1FC9
ENCODING 8137
SWIDTH 562 0
DWIDTH 9 0
BBX 7 13 0 0
BITMAP
40
80
00
7E
40
40
40
7C
40
40
40
40
7E
ENDCHAR
STARTCHAR uni1FCA
ENCODING 8138
SWIDTH 562 0
DWIDTH 9 0
BBX 7 13 0 0
BITMAP
80
40
00
42
42
42
42
7E
42
42
42
42
42
ENDCHAR
STARTCHAR uni1FCB
ENCODING 8139
SWIDTH 562 0
DWIDTH 9 0
BBX 7 13 0 0
BITMAP
40
80
00
42
42
42
42
7E
42
42
42
42
42
ENDCHAR
STARTCHAR uni1FCC
ENCODING 8140
SWIDTH 562 0
DWIDTH 9 0
BBX 6 14 1 -3
BITMAP
84
84
84
84
84
FC
84
84
84
84
84
00
20
18
ENDCHAR
STARTCHAR uni1FCD
ENCODING 8141
SWIDTH 562 0
DWIDTH 9 0
BBX 5 3 1 9
BITMAP
50
48
80
ENDCHAR
STARTCHAR uni1FCE
ENCODING 8142
SWIDTH 562 0
DWIDTH 9 0
BBX 5 3 1 9
BITMAP
48
50
80
ENDCHAR
STARTCHAR uni1FCF
ENCODING 8143
SWIDTH 562 0
DWIDTH 9 0
BBX 6 5 1 8
BITMAP
64
98
20
20
40
ENDCHAR
STARTCHAR uni1FD0
ENCODING 8144
SWIDTH 562 0
DWIDTH 9 0
BBX 5 11 2 0
BITMAP
90
60
00
60
20
20
20
20
20
20
18
ENDCHAR
STARTCHAR uni1FD1
ENCODING 8145
SWIDTH 562 0
DWIDTH 9 0
BBX 5 10 2 0
BITMAP
F0
00
60
20
20
20
20
20
20
18
ENDCHAR
STARTCHAR uni1FD2
ENCODING 8146
SWIDTH 562 0
DWIDTH 9 0
BBX 5 12 2 0
BITMAP
40
20
88
00
60
20
20
20
20
20
20
18
ENDCHAR
STARTCHAR uni1FD3
ENCODING 8147
SWIDTH 562 0
DWIDTH 9 0
BBX 5 12 2 0
BITMAP
10
20
88
00
60
20
20
20
20
20
20
18
ENDCHAR
STARTCHAR uni1FD6
ENCODING 8150
SWIDTH 562 0
DWIDTH 9 0
BBX 6 11 1 0
BITMAP
64
98
00
30
10
10
10
10
10
10
0C
ENDCHAR
STARTCHAR uni1FD7
ENCODING 8151
SWIDTH 562 0
DWIDTH 9 0
BBX 6 13 1 0
BITMAP
64
98
00
48
00
30
10
10
10
10
10
10
0C
ENDCHAR
STARTCHAR uni1FD8
ENCODING 8152
SWIDTH 562 0
DWIDTH 9 0
BBX 5 13 1 0
BITMAP
88
70
00
F8
20
20
20
20
20
20
20
20
F8
ENDCHAR
STARTCHAR uni1FD9
ENCODING 8153
SWIDTH 562 0
DWIDTH 9 0
BBX 5 13 1 0
BITMAP
F8
00
F8
20
20
20
20
20
20
20
20
20
F8
ENDCHAR
STARTCHAR uni1FDA
ENCODING 8154
SWIDTH 562 0
DWIDTH 9 0
BBX 5 13 1 0
BITMAP
40
20
00
F8
20
20
20
20
20
20
20
20
F8
ENDCHAR
STARTCHAR uni1FDB
ENCODING 8155
SWIDTH 562 0
DWIDTH 9 0
BBX 5 13 1 0
BITMAP
10
20
00
F8
20
20
20
20
20
20
20
20
F8
ENDCHAR
STARTCHAR uni1FDD
ENCODING 8157
SWIDTH 562 0
DWIDTH 9 0
BBX 5 3 1 9
BITMAP
90
88
40
ENDCHAR
STARTCHAR uni1FDE
ENCODING 8158
SWIDTH 562 0
DWIDTH 9 0
BBX 5 3 1 9
BITMAP
88
90
40
ENDCHAR
STARTCHAR uni1FDF
ENCODING 8159
SWIDTH 562 0
DWIDTH 9 0
BBX 6 5 1 8
BITMAP
64
98
20
20
10
ENDCHAR
STARTCHAR uni1FE0
ENCODING 8160
SWIDTH 562 0
DWIDTH 9 0
BBX 6 11 1 0
BITMAP
48
30
00
88
84
84
84
84
84
88
70
ENDCHAR
STARTCHAR uni1FE1
ENCODING 8161
SWIDTH 562 0
DWIDTH 9 0
BBX 6 10 1 0
BITMAP
78
00
88
84
84
84
84
84
88
70
ENDCHAR
STARTCHAR uni1FE2
ENCODING 8162
SWIDTH 562 0
DWIDTH 9 0
BBX 6 12 1 0
BITMAP
40
20
88
00
88
84
84
84
84
84
88
70
ENDCHAR
STARTCHAR uni1FE3
ENCODING 8163
SWIDTH 562 0
DWIDTH 9 0
BBX 6 12 1 0
BITMAP
10
20
88
00
88
84
84
84
84
84
88
70
ENDCHAR
STARTCHAR uni1FE4
ENCODING 8164
SWIDTH 562 0
DWIDTH 9 0
BBX 6 15 1 -3
BITMAP
10
10
20
00
30
48
84
84
84
84
C8
B0
80
80
80
ENDCHAR
STARTCHAR uni1FE5
ENCODING 8165
SWIDTH 562 0
DWIDTH 9 0
BBX 6 15 1 -3
BITMAP
40
40
20
00
30
48
84
84
84
84
C8
B0
80
80
80
ENDCHAR
STARTCHAR uni1FE6
ENCODING 8166
SWIDTH 562 0
DWIDTH 9 0
BBX 6 11 1 0
BITMAP
64
98
00
88
84
84
84
84
84
88
70
ENDCHAR
STARTCHAR uni1FE7
ENCODING 8167
SWIDTH 562 0
DWIDTH 9 0
BBX 6 13 1 0
BITMAP
64
98
00
48
00
88
84
84
84
84
84
88
70
ENDCHAR
STARTCHAR uni1FE8
ENCODING 8168
SWIDTH 562 0
DWIDTH 9 0
BBX 7 13 0 0
BITMAP
44
38
82
82
44
44
28
28
10
10
10
10
10
ENDCHAR
STARTCHAR uni1FE9
ENCODING 8169
SWIDTH 562 0
DWIDTH 9 0
BBX 7 13 0 0
BITMAP
7C
00
82
82
44
44
28
28
10
10
10
10
10
ENDCHAR
STARTCHAR uni1FEA
ENCODING 8170
SWIDTH 562 0
DWIDTH 9 0
BBX 7 13 0 0
BITMAP
80
40
00
82
82
44
44
28
28
10
10
10
10
ENDCHAR
STARTCHAR uni1FEB
ENCODING 8171
SWIDTH 562 0
DWIDTH 9 0
BBX 7 13 0 0
BITMAP
40
80
00
82
82
44
44
28
28
10
10
10
10
ENDCHAR
STARTCHAR uni1FEC
ENCODING 8172
SWIDTH 562 0
DWIDTH 9 0
BBX 8 12 0 0
BITMAP
80
9C
52
11
11
11
12
1C
10
10
10
10
ENDCHAR
STARTCHAR uni1FED
ENCODING 8173
SWIDTH 562 0
DWIDTH 9 0
BBX 4 4 2 9
BITMAP
40
20
00
90
ENDCHAR
STARTCHAR uni1FEE
ENCODING 8174
SWIDTH 562 0
DWIDTH 9 0
BBX 4 4 2 9
BITMAP
20
40
00
90
ENDCHAR
STARTCHAR uni1FEF
ENCODING 8175
SWIDTH 562 0
DWIDTH 9 0
BBX 2 2 3 10
BITMAP
80
40
ENDCHAR
STARTCHAR uni1FF2
ENCODING 8178
SWIDTH 562 0
DWIDTH 9 0
BBX 7 14 0 -3
BITMAP
20
10
00
44
82
82
82
92
92
92
6C
00
10
0C
ENDCHAR
STARTCHAR uni1FF3
ENCODING 8179
SWIDTH 562 0
DWIDTH 9 0
BBX 7 11 0 -3
BITMAP
44
82
82
82
92
92
92
6C
00
10
0C
ENDCHAR
STARTCHAR uni1FF4
ENCODING 8180
SWIDTH 562 0
DWIDTH 9 0
BBX 7 14 0 -3
BITMAP
08
10
00
44
82
82
82
92
92
92
6C
00
10
0C
ENDCHAR
STARTCHAR uni1FF6
ENCODING 8182
SWIDTH 562 0
DWIDTH 9 0
BBX 7 11 0 0
BITMAP
64
98
00
44
82
82
82
92
92
92
6C
ENDCHAR
STARTCHAR uni1FF7
ENCODING 8183
SWIDTH 562 0
DWIDTH 9 0
BBX 7 14 0 -3
BITMAP
64
98
00
44
82
82
82
92
92
92
6C
00
10
0C
ENDCHAR
STARTCHAR uni1FF8
ENCODING 8184
SWIDTH 562 0
DWIDTH 9 0
BBX 7 13 0 0
BITMAP
80
40
00
38
44
82
82
82
82
82
82
44
38
ENDCHAR
STARTCHAR uni1FF9
ENCODING 8185
SWIDTH 562 0
DWIDTH 9 0
BBX 7 13 0 0
BITMAP
40
80
00
38
44
82
82
82
82
82
82
44
38
ENDCHAR
STARTCHAR uni1FFA
ENCODING 8186
SWIDTH 562 0
DWIDTH 9 0
BBX 7 13 0 0
BITMAP
80
40
00
38
44
82
82
82
82
82
44
28
EE
ENDCHAR
STARTCHAR uni1FFB
ENCODING 8187
SWIDTH 562 0
DWIDTH 9 0
BBX 7 13 0 0
BITMAP
40
80
00
38
44
82
82
82
82
82
44
28
EE
ENDCHAR
STARTCHAR uni1FFC
ENCODING 8188
SWIDTH 562 0
DWIDTH 9 0
BBX 7 14 0 -3
BITMAP
38
44
82
82
82
82
82
82
44
28
EE
00
10
0C
ENDCHAR
STARTCHAR uni1FFD
ENCODING 8189
SWIDTH 562 0
DWIDTH 9 0
BBX 2 3 2 9
BITMAP
40
40
80
ENDCHAR
STARTCHAR uni1FFE
ENCODING 8190
SWIDTH 562 0
DWIDTH 9 0
BBX 2 3 3 9
BITMAP
80
80
40
ENDCHAR
STARTCHAR uni2000
ENCODING 8192
SWIDTH 562 0
DWIDTH 9 0
BBX 1 1 8 -2
BITMAP
00
ENDCHAR
STARTCHAR uni2001
ENCODING 8193
SWIDTH 562 0
DWIDTH 9 0
BBX 1 1 8 -2
BITMAP
00
ENDCHAR
STARTCHAR uni2002
ENCODING 8194
SWIDTH 562 0
DWIDTH 9 0
BBX 1 1 8 -2
BITMAP
00
ENDCHAR
STARTCHAR uni2003
ENCODING 8195
SWIDTH 562 0
DWIDTH 9 0
BBX 1 1 8 -2
BITMAP
00
ENDCHAR
STARTCHAR uni2004
ENCODING 8196
SWIDTH 562 0
DWIDTH 9 0
BBX 1 1 8 -2
BITMAP
00
ENDCHAR
STARTCHAR uni2005
ENCODING 8197
SWIDTH 562 0
DWIDTH 9 0
BBX 1 1 8 -2
BITMAP
00
ENDCHAR
STARTCHAR uni2006
ENCODING 8198
SWIDTH 562 0
DWIDTH 9 0
BBX 1 1 8 -2
BITMAP
00
ENDCHAR
STARTCHAR uni2007
ENCODING 8199
SWIDTH 562 0
DWIDTH 9 0
BBX 1 1 8 -2
BITMAP
00
ENDCHAR
STARTCHAR uni2008
ENCODING 8200
SWIDTH 562 0
DWIDTH 9 0
BBX 1 1 8 -2
BITMAP
00
ENDCHAR
STARTCHAR uni2009
ENCODING 8201
SWIDTH 562 0
DWIDTH 9 0
BBX 1 1 8 -2
BITMAP
00
ENDCHAR
STARTCHAR uni200A
ENCODING 8202
SWIDTH 562 0
DWIDTH 9 0
BBX 1 1 8 -2
BITMAP
00
ENDCHAR
STARTCHAR uni2010
ENCODING 8208
SWIDTH 562 0
DWIDTH 9 0
BBX 4 1 2 5
BITMAP
F0
ENDCHAR
STARTCHAR uni2011
ENCODING 8209
SWIDTH 562 0
DWIDTH 9 0
BBX 4 1 2 5
BITMAP
F0
ENDCHAR
STARTCHAR figuredash
ENCODING 8210
SWIDTH 562 0
DWIDTH 9 0
BBX 5 1 1 5
BITMAP
F8
ENDCHAR
STARTCHAR endash
ENCODING 8211
SWIDTH 562 0
DWIDTH 9 0
BBX 5 1 1 5
BITMAP
F8
ENDCHAR
STARTCHAR emdash
ENCODING 8212
SWIDTH 562 0
DWIDTH 9 0
BBX 7 1 0 5
BITMAP
FE
ENDCHAR
STARTCHAR afii00208
ENCODING 8213
SWIDTH 562 0
DWIDTH 9 0
BBX 7 1 0 5
BITMAP
FE
ENDCHAR
STARTCHAR uni2016
ENCODING 8214
SWIDTH 562 0
DWIDTH 9 0
BBX 3 14 2 -3
BITMAP
A0
A0
A0
A0
A0
A0
A0
A0
A0
A0
A0
A0
A0
A0
ENDCHAR
STARTCHAR underscoredbl
ENCODING 8215
SWIDTH 562 0
DWIDTH 9 0
BBX 8 3 0 -3
BITMAP
FF
00
FF
ENDCHAR
STARTCHAR quoteleft
ENCODING 8216
SWIDTH 562 0
DWIDTH 9 0
BBX 2 4 3 9
BITMAP
40
80
C0
C0
ENDCHAR
STARTCHAR quoteright
ENCODING 8217
SWIDTH 562 0
DWIDTH 9 0
BBX 2 4 3 9
BITMAP
C0
C0
40
80
ENDCHAR
STARTCHAR quotesinglbase
ENCODING 8218
SWIDTH 562 0
DWIDTH 9 0
BBX 2 4 3 -2
BITMAP
C0
C0
40
80
ENDCHAR
STARTCHAR quotereversed
ENCODING 8219
SWIDTH 562 0
DWIDTH 9 0
BBX 2 4 3 9
BITMAP
C0
C0
80
40
ENDCHAR
STARTCHAR quotedblleft
ENCODING 8220
SWIDTH 562 0
DWIDTH 9 0
BBX 5 4 2 9
BITMAP
48
90
D8
D8
ENDCHAR
STARTCHAR quotedblright
ENCODING 8221
SWIDTH 562 0
DWIDTH 9 0
BBX 5 4 1 9
BITMAP
D8
D8
48
90
ENDCHAR
STARTCHAR quotedblbase
ENCODING 8222
SWIDTH 562 0
DWIDTH 9 0
BBX 5 4 1 -2
BITMAP
D8
D8
48
90
ENDCHAR
STARTCHAR uni201F
ENCODING 8223
SWIDTH 562 0
DWIDTH 9 0
BBX 5 4 2 9
BITMAP
D8
D8
90
48
ENDCHAR
STARTCHAR dagger
ENCODING 8224
SWIDTH 562 0
DWIDTH 9 0
BBX 7 11 0 0
BITMAP
10
10
10
FE
10
10
10
10
10
10
10
ENDCHAR
STARTCHAR daggerdbl
ENCODING 8225
SWIDTH 562 0
DWIDTH 9 0
BBX 7 14 0 -3
BITMAP
10
10
10
FE
10
10
10
10
10
10
FE
10
10
10
ENDCHAR
STARTCHAR bullet
ENCODING 8226
SWIDTH 562 0
DWIDTH 9 0
BBX 4 4 2 3
BITMAP
60
F0
F0
60
ENDCHAR
STARTCHAR uni2023
ENCODING 8227
SWIDTH 562 0
DWIDTH 9 0
BBX 6 5 1 3
BITMAP
C0
F0
FC
F0
C0
ENDCHAR
STARTCHAR onedotenleader
ENCODING 8228
SWIDTH 562 0
DWIDTH 9 0
BBX 2 2 3 0
BITMAP
C0
C0
ENDCHAR
STARTCHAR twodotenleader
ENCODING 8229
SWIDTH 562 0
DWIDTH 9 0
BBX 5 2 2 0
BITMAP
D8
D8
ENDCHAR
STARTCHAR ellipsis
ENCODING 8230
SWIDTH 562 0
DWIDTH 9 0
BBX 8 2 0 0
BITMAP
DB
DB
ENDCHAR
STARTCHAR uni2027
ENCODING 8231
SWIDTH 562 0
DWIDTH 9 0
BBX 2 2 3 3
BITMAP
C0
C0
ENDCHAR
STARTCHAR perthousand
ENCODING 8240
SWIDTH 500 0
DWIDTH 9 0
BBX 8 12 0 0
BITMAP
40
A0
A1
42
04
08
10
20
4A
95
15
0A
ENDCHAR
STARTCHAR uni2031
ENCODING 8241
SWIDTH 538 0
DWIDTH 9 0
BBX 8 12 0 0
BITMAP
41
A2
A4
48
10
20
40
80
2A
55
55
2A
ENDCHAR
STARTCHAR minute
ENCODING 8242
SWIDTH 562 0
DWIDTH 9 0
BBX 1 3 4 9
BITMAP
80
80
80
ENDCHAR
STARTCHAR second
ENCODING 8243
SWIDTH 562 0
DWIDTH 9 0
BBX 3 3 2 8
BITMAP
A0
A0
A0
ENDCHAR
STARTCHAR uni2034
ENCODING 8244
SWIDTH 562 0
DWIDTH 9 0
BBX 5 3 1 8
BITMAP
A8
A8
A8
ENDCHAR
STARTCHAR uni2035
ENCODING 8245
SWIDTH 562 0
DWIDTH 9 0
BBX 2 3 3 9
BITMAP
80
80
40
ENDCHAR
STARTCHAR uni2036
ENCODING 8246
SWIDTH 562 0
DWIDTH 9 0
BBX 5 3 2 9
BITMAP
90
90
48
ENDCHAR
STARTCHAR uni2037
ENCODING 8247
SWIDTH 562 0
DWIDTH 9 0
BBX 6 3 1 9
BITMAP
A8
A8
54
ENDCHAR
STARTCHAR uni2038
ENCODING 8248
SWIDTH 562 0
DWIDTH 9 0
BBX 5 3 1 -3
BITMAP
20
50
88
ENDCHAR
STARTCHAR guilsinglleft
ENCODING 8249
SWIDTH 562 0
DWIDTH 9 0
BBX 3 5 3 1
BITMAP
20
40
80
40
20
ENDCHAR
STARTCHAR guilsinglright
ENCODING 8250
SWIDTH 562 0
DWIDTH 9 0
BBX 3 5 2 1
BITMAP
80
40
20
40
80
ENDCHAR
STARTCHAR uni203B
ENCODING 8251
SWIDTH 562 0
DWIDTH 9 0
BBX 7 7 0 2
BITMAP
92
44
28
92
28
44
92
ENDCHAR
STARTCHAR exclamdbl
ENCODING 8252
SWIDTH 562 0
DWIDTH 9 0
BBX 4 11 2 0
BITMAP
90
90
90
90
90
90
90
90
00
90
90
ENDCHAR
STARTCHAR uni203D
ENCODING 8253
SWIDTH 562 0
DWIDTH 9 0
BBX 6 11 1 0
BITMAP
78
A4
24
24
28
30
20
20
00
20
20
ENDCHAR
STARTCHAR uni203E
ENCODING 8254
SWIDTH 562 0
DWIDTH 9 0
BBX 8 1 0 12
BITMAP
FF
ENDCHAR
STARTCHAR uni203F
ENCODING 8255
SWIDTH 562 0
DWIDTH 9 0
BBX 8 3 0 -3
BITMAP
81
42
3C
ENDCHAR
STARTCHAR uni2040
ENCODING 8256
SWIDTH 562 0
DWIDTH 9 0
BBX 8 3 0 8
BITMAP
3C
42
81
ENDCHAR
STARTCHAR uni2043
ENCODING 8259
SWIDTH 562 0
DWIDTH 9 0
BBX 4 3 2 4
BITMAP
F0
F0
F0
ENDCHAR
STARTCHAR uni2047
ENCODING 8263
SWIDTH 562 0
DWIDTH 9 0
BBX 8 11 0 0
BITMAP
66
99
11
11
22
44
44
44
00
44
44
ENDCHAR
STARTCHAR uni2048
ENCODING 8264
SWIDTH 562 0
DWIDTH 9 0
BBX 7 11 0 0
BITMAP
72
8A
0A
0A
12
22
22
22
00
22
22
ENDCHAR
STARTCHAR uni2049
ENCODING 8265
SWIDTH 562 0
DWIDTH 9 0
BBX 6 11 1 1
BITMAP
B8
84
84
84
84
88
88
00
00
88
88
ENDCHAR
STARTCHAR uni204A
ENCODING 8266
SWIDTH 562 0
DWIDTH 9 0
BBX 1 1 0 0
BITMAP
00
ENDCHAR
STARTCHAR uni204B
ENCODING 8267
SWIDTH 562 0
DWIDTH 9 0
BBX 6 11 1 0
BITMAP
F8
BC
BC
BC
BC
BC
B8
A0
A0
A0
A0
ENDCHAR
STARTCHAR uni204C
ENCODING 8268
SWIDTH 562 0
DWIDTH 9 0
BBX 7 5 0 2
BITMAP
7E
FA
FA
FA
7E
ENDCHAR
STARTCHAR uni204D
ENCODING 8269
SWIDTH 562 0
DWIDTH 9 0
BBX 7 5 0 2
BITMAP
FC
BE
BE
BE
FC
ENDCHAR
STARTCHAR uni204E
ENCODING 8270
SWIDTH 562 0
DWIDTH 9 0
BBX 5 5 2 -3
BITMAP
20
A8
70
A8
20
ENDCHAR
STARTCHAR uni204F
ENCODING 8271
SWIDTH 562 0
DWIDTH 9 0
BBX 2 9 3 -2
BITMAP
C0
C0
00
00
00
C0
C0
80
40
ENDCHAR
STARTCHAR uni2050
ENCODING 8272
SWIDTH 562 0
DWIDTH 9 0
BBX 1 1 0 0
BITMAP
00
ENDCHAR
ENDFONT
